SplineFontDB: 3.0
FontName: Dyuthi
FullName: Dyuthi
FamilyName: Dyuthi
Weight: Book
Copyright: Copyright (c) 2007,Hiran Venugopalan, Hussain K H,Suresh P, Swathanthra Malayalam Computing(http://savannah.nongnu.org/projects/smc)\nAll rights reserved.
Version: 1.0.1
ItalicAngle: 0
UnderlinePosition: -190
UnderlineWidth: 15
Ascent: 604
Descent: 420
LayerCount: 2
Layer: 0 1 "Back"  1
Layer: 1 1 "Fore"  0
XUID: [1021 400 913805956 9518307]
FSType: 0
OS2Version: 1
OS2_WeightWidthSlopeOnly: 0
OS2_UseTypoMetrics: 1
CreationTime: 1201144287
ModificationTime: 1272649281
PfmFamily: 17
TTFWeight: 400
TTFWidth: 5
LineGap: 0
VLineGap: 0
Panose: 2 0 6 3 0 0 0 0 0 0
OS2TypoAscent: 0
OS2TypoAOffset: 1
OS2TypoDescent: 0
OS2TypoDOffset: 1
OS2TypoLinegap: 0
OS2WinAscent: 0
OS2WinAOffset: 1
OS2WinDescent: 0
OS2WinDOffset: 1
HheadAscent: 0
HheadAOffset: 1
HheadDescent: 0
HheadDOffset: 1
OS2SubXSize: 665
OS2SubYSize: 613
OS2SubXOff: 0
OS2SubYOff: 76
OS2SupXSize: 665
OS2SupYSize: 715
OS2SupXOff: 0
OS2SupYOff: 489
OS2StrikeYSize: 50
OS2StrikeYPos: 256
OS2Vendor: 'PfEd'
OS2CodePages: 00000000.80000000
OS2UnicodeRanges: 80800001.00002000.00000000.00000000
Lookup: 4 0 0 "'akhn' Akhand in Malay+AQEA-lam lookup 0"  {"'akhn' Akhand in Malay+AQEA-lam lookup 0 subtable"  } ['akhn' ('mlym' <'dflt' > ) ]
Lookup: 4 0 0 "'half' Half Forms in Malay+AQEA-lam lookup 1"  {"'half' Half Forms in Malay+AQEA-lam lookup 1 subtable"  } ['half' ('mlym' <'dflt' > ) ]
Lookup: 4 0 0 "'blwf' Below Base Forms in Malay+AQEA-lam lookup 2"  {"'blwf' Below Base Forms in Malay+AQEA-lam lookup 2 subtable"  } ['blwf' ('mlym' <'dflt' > ) ]
Lookup: 4 0 0 "'blws' Below Base Substitutions in Malay+AQEA-lam lookup 3"  {"'blws' Below Base Substitutions in Malay+AQEA-lam lookup 3 subtable"  } ['blws' ('mlym' <'dflt' > ) ]
Lookup: 4 0 0 "'pres' Pre Base Substitutions in Malay+AQEA-lam lookup 4"  {"'pres' Pre Base Substitutions in Malay+AQEA-lam lookup 4 subtable"  } ['pres' ('mlym' <'dflt' > ) ]

StartChar: .notdef
Encoding: 65536 -1 0
Width: 299
GlyphClass: 2
Flags: W
LayerCount: 2
Fore
SplineSet
22 0 m 1,0,-1
 22 466 l 1,1,-1
 256 466 l 1,2,-1
 256 0 l 1,3,-1
 22 0 l 1,0,-1
46 22 m 1,4,-1
 234 22 l 1,5,-1
 234 442 l 1,6,-1
 46 442 l 1,7,-1
 46 22 l 1,4,-1
EndSplineSet
Validated: 1
EndChar

StartChar: exclam
Encoding: 33 33 5
Width: 193
GlyphClass: 2
Flags: W
LayerCount: 2
Fore
SplineSet
127 148 m 0,0,1
 157 148 157 148 175 127 c 0,2,3
 190 109 190 109 190 82 c 0,4,5
 190 54 190 54 175 36 c 0,6,7
 157 15 157 15 127 15 c 0,8,9
 93 15 93 15 75 35 c 0,10,11
 56 56 56 56 56 82 c 0,12,13
 56 109 56 109 74 127 c 0,14,15
 94 148 94 148 127 148 c 0,0,1
65 236 m 2,16,-1
 65 472 l 2,17,18
 65 508 65 508 84 528 c 1,19,20
 99 547 99 547 123 547 c 128,-1,21
 147 547 147 547 163 528 c 1,22,23
 182 508 182 508 182 472 c 2,24,-1
 182 236 l 2,25,26
 182 205 182 205 164 187 c 1,27,28
 145 170 145 170 123 170 c 0,29,30
 99 170 99 170 84 186 c 0,31,32
 65 205 65 205 65 236 c 2,16,-1
EndSplineSet
Validated: 1
EndChar

StartChar: quotedbl
Encoding: 34 34 6
Width: 304
GlyphClass: 2
Flags: W
LayerCount: 2
Fore
SplineSet
203 548 m 2,0,1
 203 571 203 571 218 583 c 1,2,3
 231 596 231 596 252 596 c 0,4,5
 270 596 270 596 286 583 c 0,6,7
 301 571 301 571 301 548 c 2,8,-1
 301 413 l 2,9,10
 301 390 301 390 286 377 c 0,11,12
 272 365 272 365 252 365 c 128,-1,13
 232 365 232 365 218 377 c 0,14,15
 203 390 203 390 203 413 c 2,16,-1
 203 548 l 2,0,1
56 413 m 2,17,-1
 56 548 l 2,18,19
 56 571 56 571 71 583 c 0,20,21
 86 596 86 596 105 596 c 128,-1,22
 124 596 124 596 140 583 c 0,23,24
 155 570 155 570 155 548 c 2,25,-1
 155 413 l 2,26,27
 155 391 155 391 141 377 c 1,28,29
 126 365 126 365 106 365 c 128,-1,30
 86 365 86 365 71 377 c 0,31,32
 56 390 56 390 56 413 c 2,17,-1
EndSplineSet
Validated: 1
EndChar

StartChar: numbersign
Encoding: 35 35 7
Width: 468
GlyphClass: 2
Flags: W
LayerCount: 2
Fore
SplineSet
219 227 m 1,0,-1
 287 227 l 1,1,-1
 300 301 l 1,2,-1
 231 301 l 1,3,-1
 219 227 l 1,0,-1
149 301 m 1,4,5
 112 301 112 301 101 304 c 0,6,7
 79 311 79 311 79 337 c 128,-1,8
 79 363 79 363 109 369 c 0,9,10
 123 371 123 371 162 371 c 1,11,-1
 180 476 l 2,12,13
 183 499 183 499 197 511 c 1,14,15
 210 524 210 524 228 524 c 0,16,17
 243 524 243 524 253 514 c 128,-1,18
 263 504 263 504 263 487 c 0,19,20
 263 480 263 480 262 476 c 2,21,-1
 243 371 l 1,22,-1
 311 371 l 1,23,-1
 329 476 l 1,24,25
 340 524 340 524 375 524 c 0,26,27
 390 524 390 524 401 513 c 0,28,29
 411 503 411 503 411 486 c 0,30,31
 411 479 411 479 410 476 c 2,32,-1
 391 371 l 1,33,34
 425 371 425 371 441 367 c 0,35,36
 466 360 466 360 466 333 c 0,37,38
 466 309 466 309 433 303 c 0,39,40
 426 301 426 301 380 301 c 1,41,-1
 367 227 l 1,42,43
 404 227 404 227 414 224 c 0,44,45
 437 217 437 217 437 192 c 0,46,47
 437 166 437 166 408 160 c 1,48,49
 399 157 399 157 355 157 c 1,50,-1
 336 52 l 2,51,52
 333 36 333 36 319 28 c 0,53,54
 307 20 307 20 288 20 c 0,55,56
 272 20 272 20 262 27 c 0,57,58
 252 35 252 35 255 47 c 2,59,-1
 274 157 l 1,60,-1
 205 157 l 1,61,-1
 186 52 l 2,62,63
 183 35 183 35 169 27 c 1,64,65
 156 18 156 18 137 18 c 0,66,67
 122 18 122 18 112 25 c 1,68,69
 102 35 102 35 105 47 c 2,70,-1
 124 157 l 1,71,72
 87 157 87 157 78 160 c 0,73,74
 56 167 56 167 56 192 c 0,75,76
 56 218 56 218 85 224 c 0,77,78
 96 227 96 227 137 227 c 1,79,-1
 149 301 l 1,4,5
EndSplineSet
Validated: 1
EndChar

StartChar: dollar
Encoding: 36 36 8
Width: 370
GlyphClass: 2
Flags: W
LayerCount: 2
Fore
SplineSet
65 353 m 1,0,1
 50 384 50 384 62 413.5 c 128,-1,2
 74 443 74 443 101 463 c 0,3,4
 136 489 136 489 191 494 c 1,5,6
 192 533 192 533 199 563 c 0,7,8
 201 572 201 572 204 575.5 c 128,-1,9
 207 579 207 579 210.5 578.5 c 128,-1,10
 214 578 214 578 218 578 c 128,-1,11
 222 578 222 578 225 578.5 c 128,-1,12
 228 579 228 579 231 575.5 c 128,-1,13
 234 572 234 572 237 563 c 0,14,15
 244 533 244 533 245 494 c 1,16,17
 282 489 282 489 316 478 c 0,18,19
 339 470 339 470 350 455 c 0,20,21
 362 440 362 440 362 419 c 0,22,23
 362 401 362 401 349 389 c 0,24,25
 337 377 337 377 313 377 c 0,26,27
 294 377 294 377 270 386 c 2,28,-1
 245 395 l 1,29,-1
 245 307 l 1,30,31
 261 303 261 303 278 297.5 c 128,-1,32
 295 292 295 292 309.5 285.5 c 128,-1,33
 324 279 324 279 337.5 267 c 128,-1,34
 351 255 351 255 360 239 c 1,35,36
 373 205 373 205 360 175 c 128,-1,37
 347 145 347 145 319 124 c 128,-1,38
 291 103 291 103 245 95 c 1,39,40
 245 55 245 55 237 29 c 0,41,42
 235 21 235 21 231.5 17.5 c 128,-1,43
 228 14 228 14 225 14 c 128,-1,44
 222 14 222 14 218 14 c 128,-1,45
 214 14 214 14 210.5 13.5 c 128,-1,46
 207 13 207 13 204 16 c 128,-1,47
 201 19 201 19 199 27 c 0,48,49
 193 49 193 49 191 93 c 1,50,51
 151 94 151 94 104 109 c 0,52,53
 82 117 82 117 70 132 c 0,54,55
 58 148 58 148 58 172 c 0,56,57
 58 189 58 189 71 201 c 256,58,59
 84 213 84 213 107 213 c 0,60,61
 126 213 126 213 150 204 c 0,62,63
 154 203 154 203 168.5 197 c 128,-1,64
 183 191 183 191 191 189 c 1,65,-1
 191 280 l 1,66,67
 174 284 174 284 156 290.5 c 128,-1,68
 138 297 138 297 122 304 c 128,-1,69
 106 311 106 311 90.5 323.5 c 128,-1,70
 75 336 75 336 65 353 c 1,0,1
245 256 m 1,71,-1
 245 190 l 1,72,73
 272 204 272 204 272 226 c 0,74,75
 272 239 272 239 245 256 c 1,71,-1
191 330 m 1,76,-1
 191 402 l 1,77,78
 160 396 160 396 160 362 c 0,79,80
 160 349 160 349 191 330 c 1,76,-1
EndSplineSet
Validated: 33
EndChar

StartChar: percent
Encoding: 37 37 9
Width: 458
GlyphClass: 2
Flags: W
LayerCount: 2
Fore
SplineSet
387 386 m 2,0,-1
 172 18 l 2,1,2
 162 0 162 0 141 0 c 0,3,4
 126 0 126 0 117 9 c 1,5,6
 106 18 106 18 106 33 c 128,-1,7
 106 48 106 48 116 64 c 2,8,-1
 326 423 l 2,9,10
 338 444 338 444 360 444 c 0,11,12
 374 444 374 444 384 434 c 0,13,14
 394 425 394 425 394 410 c 0,15,16
 394 397 394 397 387 386 c 2,0,-1
361 86 m 0,17,18
 384 86 384 86 384 108 c 0,19,20
 384 133 384 133 361 133 c 0,21,22
 337 133 337 133 337 110 c 0,23,24
 337 99 337 99 343 93 c 0,25,26
 350 86 350 86 361 86 c 0,17,18
149 437 m 0,27,28
 192 437 192 437 219 406 c 1,29,30
 242 378 242 378 242 339 c 128,-1,31
 242 300 242 300 219 271 c 1,32,33
 191 240 191 240 149 240 c 0,34,35
 104 240 104 240 79 271 c 0,36,37
 56 299 56 299 56 337 c 0,38,39
 56 378 56 378 80 406 c 1,40,41
 105 437 105 437 149 437 c 0,27,28
149 362 m 0,42,43
 125 362 125 362 125 340 c 0,44,45
 125 330 125 330 131 322 c 1,46,47
 138 315 138 315 149 315 c 0,48,49
 172 315 172 315 172 338 c 0,50,51
 172 362 172 362 149 362 c 0,42,43
361 208 m 0,52,53
 405 208 405 208 431 177 c 0,54,55
 455 148 455 148 455 108 c 0,56,57
 455 70 455 70 432 42 c 0,58,59
 406 12 406 12 361 12 c 128,-1,60
 316 12 316 12 291 43 c 1,61,62
 267 70 267 70 267 110 c 128,-1,63
 267 150 267 150 291 177 c 1,64,65
 316 208 316 208 361 208 c 0,52,53
EndSplineSet
Validated: 1
EndChar

StartChar: ampersand
Encoding: 38 38 10
Width: 460
GlyphClass: 2
Flags: W
LayerCount: 2
Fore
SplineSet
150 270 m 1,0,1
 115 308 115 308 115 353 c 0,2,3
 115 399 115 399 150 430 c 0,4,5
 184 461 184 461 239 461 c 0,6,7
 293 461 293 461 327 427 c 0,8,9
 359 395 359 395 359 351 c 0,10,11
 359 280 359 280 290 243 c 1,12,-1
 347 178 l 1,13,14
 360 191 360 191 387 227 c 0,15,16
 399 242 399 242 416 242 c 128,-1,17
 433 242 433 242 445 230 c 128,-1,18
 457 218 457 218 457 201 c 0,19,20
 457 186 457 186 447 173 c 0,21,22
 426 144 426 144 403 116 c 1,23,-1
 435 75 l 2,24,25
 447 60 447 60 447 43 c 0,26,27
 447 27 447 27 436 16 c 1,28,29
 426 4 426 4 410 4 c 0,30,31
 391 4 391 4 373 23 c 1,32,33
 357 37 357 37 336 61 c 1,34,35
 280 5 280 5 210 5 c 0,36,37
 148 5 148 5 102 45 c 0,38,39
 56 86 56 86 56 140 c 0,40,41
 56 216 56 216 150 270 c 1,0,1
239 392 m 128,-1,43
 207 392 207 392 207 365 c 0,44,45
 207 348 207 348 217 329 c 0,46,47
 228 310 228 310 239 298 c 1,48,49
 253 308 253 308 262 325 c 0,50,51
 271 343 271 343 271 359 c 0,52,42
 271 392 271 392 239 392 c 128,-1,43
299 146 m 1,53,-1
 220 230 l 1,54,55
 195 215 195 215 172 187 c 128,-1,56
 149 159 149 159 149 142 c 0,57,58
 149 123 149 123 172 105 c 1,59,60
 193 90 193 90 219 90 c 0,61,62
 236 90 236 90 260.5 108.5 c 128,-1,63
 285 127 285 127 299 146 c 1,53,-1
EndSplineSet
Validated: 1
EndChar

StartChar: quotesingle
Encoding: 39 39 11
Width: 212
GlyphClass: 2
Flags: W
LayerCount: 2
Fore
SplineSet
200 536 m 2,0,-1
 139 433 l 2,1,2
 124 406 124 406 98 406 c 0,3,4
 81 406 81 406 69 418 c 0,5,6
 56 430 56 430 56 448 c 0,7,8
 56 461 56 461 66 481 c 1,9,-1
 117 568 l 2,10,11
 140 607 140 607 172 607 c 0,12,13
 196 607 196 607 205 586 c 1,14,15
 217 565 217 565 200 536 c 2,0,-1
EndSplineSet
Validated: 33
EndChar

StartChar: parenleft
Encoding: 40 40 12
Width: 185
GlyphClass: 2
Flags: W
LayerCount: 2
Fore
SplineSet
174 469 m 0,0,1
 135 374 135 374 135 282 c 0,2,3
 135 189 135 189 178 60 c 0,4,5
 182 51 182 51 182 41 c 0,6,7
 182 25 182 25 171 12 c 0,8,9
 161 1 161 1 145 1 c 0,10,11
 123 1 123 1 105 26 c 0,12,13
 82 59 82 59 68 130 c 0,14,15
 56 193 56 193 56 271 c 0,16,17
 56 435 56 435 100 506 c 0,18,19
 118 536 118 536 144 536 c 0,20,21
 158 536 158 536 169 525 c 128,-1,22
 180 514 180 514 180 496 c 0,23,24
 180 484 180 484 174 469 c 0,0,1
EndSplineSet
Validated: 1
EndChar

StartChar: parenright
Encoding: 41 41 13
Width: 185
GlyphClass: 2
Flags: W
LayerCount: 2
Fore
SplineSet
64 473 m 1,0,1
 59 490 59 490 59 500 c 0,2,3
 59 519 59 519 69 529 c 0,4,5
 80 540 80 540 94 540 c 0,6,7
 120 540 120 540 138 510 c 0,8,9
 182 439 182 439 182 275 c 0,10,11
 182 197 182 197 170 134 c 0,12,13
 156 63 156 63 133 30 c 1,14,15
 117 5 117 5 92 5 c 0,16,17
 77 5 77 5 67 16 c 0,18,19
 56 29 56 29 56 45 c 0,20,21
 56 55 56 55 60 64 c 0,22,23
 102 190 102 190 102 286 c 0,24,25
 102 381 102 381 64 473 c 1,0,1
EndSplineSet
Validated: 1
EndChar

StartChar: asterisk
Encoding: 42 42 14
Width: 267
GlyphClass: 2
Flags: W
LayerCount: 2
Fore
SplineSet
100 456 m 1,0,-1
 71 468 l 1,1,2
 56 476 56 476 56 493 c 0,3,4
 56 507 56 507 65 516 c 0,5,6
 74 526 74 526 88 526 c 128,-1,7
 102 526 102 526 132 502 c 1,8,9
 131 515 131 515 129.5 525 c 128,-1,10
 128 535 128 535 127.5 539 c 128,-1,11
 127 543 127 543 127 542 c 0,12,13
 127 566 127 566 162 566 c 0,14,15
 176 566 176 566 184 559 c 1,16,17
 194 552 194 552 192 539 c 2,18,-1
 188 502 l 1,19,20
 221 526 221 526 232 526 c 0,21,22
 246 526 246 526 255 516 c 1,23,24
 264 504 264 504 264 492 c 0,25,26
 264 476 264 476 250 468 c 1,27,28
 240 464 240 464 222 456 c 1,29,-1
 247 438 l 2,30,31
 263 426 263 426 263 413 c 0,32,33
 263 401 263 401 255 393 c 1,34,35
 248 384 248 384 235 384 c 0,36,37
 224 384 224 384 210 393 c 2,38,-1
 188 409 l 1,39,-1
 192 372 l 2,40,41
 193 359 193 359 182 352 c 1,42,43
 172 347 172 347 160 347 c 128,-1,44
 148 347 148 347 138 353 c 1,45,46
 127 361 127 361 128 372 c 2,47,-1
 132 409 l 1,48,-1
 112 393 l 2,49,50
 100 384 100 384 88 384 c 128,-1,51
 76 384 76 384 68 393 c 0,52,53
 59 402 59 402 59 414 c 0,54,55
 59 427 59 427 75 439 c 2,56,-1
 100 456 l 1,0,-1
EndSplineSet
Validated: 1
EndChar

StartChar: plus
Encoding: 43 43 15
Width: 398
GlyphClass: 2
Flags: W
LayerCount: 2
Fore
SplineSet
182 254 m 1,0,-1
 182 343 l 1,1,-1
 186 355 l 2,2,3
 190 367 190 367 195 371 c 0,4,5
 208 381 208 381 225 381 c 128,-1,6
 242 381 242 381 255 371 c 0,7,8
 267 362 267 362 267 343 c 2,9,-1
 267 254 l 1,10,-1
 357 254 l 2,11,12
 375 254 375 254 385 241 c 1,13,14
 395 230 395 230 395 212 c 128,-1,15
 395 194 395 194 385 183 c 1,16,17
 375 170 375 170 357 170 c 2,18,-1
 267 170 l 1,19,-1
 267 82 l 2,20,21
 267 64 267 64 255 53 c 0,22,23
 244 43 244 43 225 43 c 0,24,25
 208 43 208 43 195 53 c 0,26,27
 182 64 182 64 182 82 c 2,28,-1
 182 170 l 1,29,-1
 95 170 l 2,30,31
 76 170 76 170 66 182 c 0,32,33
 56 195 56 195 56 211 c 0,34,35
 56 228 56 228 67 242 c 1,36,37
 78 254 78 254 95 254 c 2,38,-1
 182 254 l 1,0,-1
EndSplineSet
Validated: 1
EndChar

StartChar: comma
Encoding: 44 44 16
Width: 209
GlyphClass: 2
Flags: W
LayerCount: 2
Fore
SplineSet
199 33 m 2,0,-1
 139 -69 l 2,1,2
 124 -93 124 -93 99 -93 c 0,3,4
 82 -93 82 -93 69 -81 c 0,5,6
 56 -68 56 -68 56 -51 c 0,7,8
 56 -37 56 -37 64 -23 c 2,9,-1
 115 66 l 1,10,11
 133 95 133 95 162 95 c 0,12,13
 182 95 182 95 193 84 c 1,14,15
 207 73 207 73 207 57 c 0,16,17
 207 46 207 46 199 33 c 2,0,-1
EndSplineSet
Validated: 1
EndChar

StartChar: hyphen
Encoding: 45 45 17
Width: 281
GlyphClass: 2
Flags: W
LayerCount: 2
Fore
SplineSet
239 260 m 2,0,1
 257 260 257 260 267 247 c 0,2,3
 278 234 278 234 278 217 c 0,4,5
 278 201 278 201 268 188 c 0,6,7
 258 176 258 176 239 176 c 2,8,-1
 94 176 l 2,9,10
 76 176 76 176 66 188 c 0,11,12
 56 201 56 201 56 217 c 0,13,14
 56 234 56 234 66 247 c 128,-1,15
 76 260 76 260 94 260 c 2,16,-1
 239 260 l 2,0,1
EndSplineSet
Validated: 1
EndChar

StartChar: period
Encoding: 46 46 18
Width: 183
GlyphClass: 2
Flags: W
LayerCount: 2
Fore
SplineSet
120 129 m 0,0,1
 148 129 148 129 164 110 c 1,2,3
 180 89 180 89 180 64 c 128,-1,4
 180 39 180 39 165 21 c 0,5,6
 148 1 148 1 120 1 c 0,7,8
 90 1 90 1 72 21 c 1,9,10
 56 42 56 42 56 66 c 0,11,12
 56 91 56 91 73 110 c 0,13,14
 89 129 89 129 120 129 c 0,0,1
EndSplineSet
Validated: 1
EndChar

StartChar: slash
Encoding: 47 47 19
Width: 420
GlyphClass: 2
Flags: W
LayerCount: 2
Fore
SplineSet
300 544 m 1,0,-1
 68 89 l 2,1,2
 59 72 59 72 59 57 c 0,3,4
 59 37 59 37 70 27 c 0,5,6
 82 15 82 15 97 15 c 0,7,8
 126 15 126 15 143 48 c 2,9,-1
 388 521 l 2,10,11
 392 528 392 528 392 539 c 0,12,13
 392 557 392 557 379 570 c 1,14,15
 367 584 367 584 350 584 c 0,16,17
 322 584 322 584 300 544 c 1,0,-1
EndSplineSet
Validated: 9
EndChar

StartChar: zero
Encoding: 48 48 20
Width: 504
GlyphClass: 2
Flags: W
LayerCount: 2
Fore
SplineSet
285 556 m 0,0,1
 384 556 384 556 445 465 c 0,2,3
 501 382 501 382 501 267 c 0,4,5
 501 156 501 156 447 82 c 0,6,7
 387 -1 387 -1 279 -1 c 0,8,9
 174 -1 174 -1 112 86 c 0,10,11
 56 163 56 163 56 276 c 0,12,13
 56 390 56 390 114 469 c 0,14,15
 177 556 177 556 285 556 c 0,0,1
279 464 m 0,16,17
 232 464 232 464 205 413 c 1,18,19
 180 369 180 369 180 279 c 0,20,21
 180 181 180 181 205 137 c 0,22,23
 232 88 232 88 280 88 c 0,24,25
 324 88 324 88 349 140 c 1,26,27
 373 186 373 186 373 286 c 0,28,29
 373 374 373 374 350 416 c 0,30,31
 324 464 324 464 279 464 c 0,16,17
EndSplineSet
Validated: 1
EndChar

StartChar: one
Encoding: 49 49 21
Width: 278
GlyphClass: 2
Flags: W
LayerCount: 2
Fore
SplineSet
157 430 m 1,0,-1
 106 427 l 1,1,2
 83 428 83 428 69 445 c 1,3,4
 56 463 56 463 56 487 c 0,5,6
 56 507 56 507 69 525 c 1,7,8
 83 541 83 541 106 541 c 2,9,-1
 233 541 l 2,10,11
 245 541 245 541 260 526 c 0,12,13
 275 512 275 512 275 501 c 2,14,-1
 275 74 l 2,15,16
 275 38 275 38 257 20 c 1,17,18
 239 0 239 0 215 0 c 0,19,20
 192 0 192 0 175 18 c 0,21,22
 157 38 157 38 157 69 c 2,23,-1
 157 430 l 1,0,-1
EndSplineSet
Validated: 1
EndChar

StartChar: two
Encoding: 50 50 22
Width: 424
GlyphClass: 2
Flags: W
LayerCount: 2
Fore
SplineSet
293 392 m 0,0,1
 293 400 293 400 282 415 c 128,-1,2
 271 430 271 430 262 438 c 0,3,4
 258 442 258 442 251 442.5 c 128,-1,5
 244 443 244 443 234.5 441.5 c 128,-1,6
 225 440 225 440 221 440 c 0,7,8
 198 440 198 440 181 421 c 0,9,10
 175 415 175 415 172.5 404 c 128,-1,11
 170 393 170 393 169.5 375 c 128,-1,12
 169 357 169 357 168 348 c 0,13,14
 162 311 162 311 125 311 c 0,15,16
 99 311 99 311 79 328 c 0,17,18
 60 344 60 344 60 370 c 0,19,20
 60 378 60 378 61 383 c 0,21,22
 76 463 76 463 128 508 c 0,23,24
 174 547 174 547 237 547 c 0,25,26
 306 547 306 547 355 502 c 0,27,28
 408 454 408 454 408 379 c 0,29,30
 408 330 408 330 380 277 c 0,31,32
 359 239 359 239 314 188 c 1,33,-1
 239 110 l 1,34,-1
 378 113 l 2,35,36
 397 113 397 113 409 95 c 128,-1,37
 421 77 421 77 421 51 c 0,38,39
 421 29 421 29 410 15 c 1,40,41
 399 -2 399 -2 378 -2 c 2,42,-1
 104 -2 l 2,43,44
 82 -2 82 -2 70 12 c 0,45,46
 56 28 56 28 56 49 c 0,47,48
 56 60 56 60 65.5 71 c 128,-1,49
 75 82 75 82 96 98 c 128,-1,50
 117 114 117 114 125 122 c 0,51,52
 180 174 180 174 233 242 c 1,53,54
 293 321 293 321 293 392 c 0,0,1
EndSplineSet
Validated: 1
EndChar

StartChar: three
Encoding: 51 51 23
Width: 433
GlyphClass: 2
Flags: W
LayerCount: 2
Fore
SplineSet
308 395 m 0,0,1
 293 446 293 446 253 446 c 0,2,3
 228 446 228 446 201 428 c 1,4,5
 175 412 175 412 158 386 c 0,6,7
 147 369 147 369 109 369 c 0,8,9
 90 369 90 369 76 386 c 128,-1,10
 62 403 62 403 62 426 c 0,11,12
 62 453 62 453 81 480 c 0,13,14
 114 525 114 525 151 542 c 128,-1,15
 188 559 188 559 251 559 c 0,16,17
 321 559 321 559 363 513 c 1,18,19
 402 472 402 472 402 412 c 0,20,21
 402 339 402 339 347 295 c 1,22,23
 430 248 430 248 430 166 c 0,24,25
 430 102 430 102 379 52 c 0,26,27
 326 1 326 1 248 1 c 0,28,29
 195 1 195 1 147 24 c 1,30,31
 94 51 94 51 67 99 c 0,32,33
 56 119 56 119 56 139 c 0,34,35
 56 165 56 165 73 185 c 0,36,37
 89 204 89 204 110 204 c 0,38,39
 122 204 122 204 139 195.5 c 128,-1,40
 156 187 156 187 163 176 c 0,41,42
 181 146 181 146 198 133 c 0,43,44
 221 116 221 116 256 116 c 0,45,46
 284 116 284 116 300 134 c 0,47,48
 315 150 315 150 315 172 c 0,49,50
 315 193 315 193 301 206 c 1,51,52
 288 221 288 221 262 221 c 0,53,54
 228 221 228 221 210 240 c 0,55,56
 193 257 193 257 193 283 c 0,57,58
 193 310 193 310 210 328 c 0,59,60
 228 348 228 348 259 348 c 0,61,62
 279 348 279 348 294 359 c 0,63,64
 309 371 309 371 309 387 c 0,65,66
 309 392 309 392 308 395 c 0,0,1
EndSplineSet
Validated: 1
EndChar

StartChar: four
Encoding: 52 52 24
Width: 528
GlyphClass: 2
Flags: W
LayerCount: 2
Fore
SplineSet
430 441 m 2,0,-1
 430 231 l 1,1,-1
 461 231 l 2,2,3
 491 231 491 231 509 213 c 0,4,5
 525 197 525 197 525 174 c 0,6,7
 525 153 525 153 511 137 c 1,8,9
 493 119 493 119 466 119 c 2,10,-1
 430 119 l 1,11,-1
 430 63 l 2,12,13
 430 34 430 34 413 18 c 0,14,15
 396 1 396 1 372 1 c 0,16,17
 349 1 349 1 332 18 c 1,18,19
 314 34 314 34 314 64 c 2,20,-1
 315 119 l 1,21,-1
 105 119 l 2,22,23
 80 119 80 119 68 137 c 0,24,25
 56 154 56 154 56 176 c 0,26,27
 56 194 56 194 64 208 c 1,28,-1
 236 465 l 2,29,30
 282 534 282 534 345 534 c 0,31,32
 382 534 382 534 406 509 c 128,-1,33
 430 484 430 484 430 441 c 2,0,-1
326 421 m 1,34,-1
 200 231 l 1,35,-1
 326 231 l 1,36,-1
 326 421 l 1,34,-1
EndSplineSet
Validated: 1
EndChar

StartChar: five
Encoding: 53 53 25
Width: 421
GlyphClass: 2
Flags: W
LayerCount: 2
Fore
SplineSet
174 543 m 2,0,-1
 361 543 l 2,1,2
 385 543 385 543 400 525 c 0,3,4
 413 509 413 509 413 487 c 0,5,6
 413 463 413 463 400 449 c 1,7,8
 387 432 387 432 361 432 c 2,9,-1
 214 432 l 1,10,-1
 208 374 l 1,11,12
 240 383 240 383 264 383 c 0,13,14
 334 383 334 383 378 326 c 0,15,16
 418 274 418 274 418 199 c 0,17,18
 418 117 418 117 371 64 c 0,19,20
 317 2 317 2 220 2 c 0,21,22
 130 2 130 2 81 46 c 0,23,24
 56 69 56 69 56 103 c 0,25,26
 56 126 56 126 70 145 c 1,27,28
 85 162 85 162 107 162 c 0,29,30
 113 162 113 162 144 144 c 0,31,32
 157 137 157 137 169 128 c 2,33,-1
 181 119 l 1,34,35
 205 108 205 108 241 108 c 0,36,37
 280 108 280 108 298 130 c 0,38,39
 307 140 307 140 315.5 163 c 128,-1,40
 324 186 324 186 324 200 c 0,41,42
 324 229 324 229 297 266 c 0,43,44
 278 293 278 293 244 293 c 0,45,46
 229 293 229 293 209 279 c 0,47,48
 199 271 199 271 178.5 262.5 c 128,-1,49
 158 254 158 254 147 254 c 0,50,51
 124 254 124 254 109 263 c 0,52,53
 90 274 90 274 93 294 c 2,54,-1
 115 496 l 2,55,56
 121 543 121 543 174 543 c 2,0,-1
EndSplineSet
Validated: 33
EndChar

StartChar: six
Encoding: 54 54 26
Width: 437
GlyphClass: 2
Flags: W
LayerCount: 2
Fore
SplineSet
56 205 m 0,0,1
 56 271 56 271 117 366 c 0,2,3
 167 445 167 445 229 509 c 0,4,5
 261 541 261 541 294 541 c 0,6,7
 316 541 316 541 333 526 c 1,8,9
 349 510 349 510 349 489 c 0,10,11
 349 467 349 467 333 448 c 2,12,-1
 244 344 l 1,13,14
 254 345 254 345 271 345 c 0,15,16
 346 345 346 345 392 293 c 0,17,18
 434 245 434 245 434 176 c 0,19,20
 434 104 434 104 385 56 c 0,21,22
 328 1 328 1 228 1 c 0,23,24
 145 1 145 1 99 65 c 1,25,26
 56 120 56 120 56 205 c 0,0,1
267 247 m 0,27,28
 223 247 223 247 205 228 c 1,29,30
 189 209 189 209 189 177 c 0,31,32
 189 150 189 150 204 131 c 0,33,34
 222 109 222 109 249 109 c 0,35,36
 299 109 299 109 318 128 c 1,37,38
 336 148 336 148 336 183 c 0,39,40
 336 208 336 208 319 227 c 0,41,42
 300 247 300 247 267 247 c 0,27,28
EndSplineSet
Validated: 1
EndChar

StartChar: seven
Encoding: 55 55 27
Width: 420
GlyphClass: 2
Flags: W
LayerCount: 2
Fore
SplineSet
285 431 m 1,0,-1
 115 431 l 2,1,2
 91 431 91 431 79 446 c 0,3,4
 77 448 77 448 66.5 457.5 c 128,-1,5
 56 467 56 467 56 475 c 0,6,7
 56 498 56 498 68 516 c 128,-1,8
 80 534 80 534 99 534 c 2,9,-1
 362 534 l 2,10,11
 382 534 382 534 400 513 c 1,12,13
 417 491 417 491 417 471 c 0,14,15
 417 464 417 464 414 458 c 2,16,-1
 226 45 l 2,17,18
 207 2 207 2 166 2 c 0,19,20
 144 2 144 2 127 17 c 1,21,22
 111 33 111 33 111 60 c 0,23,24
 111 66 111 66 114.5 75 c 128,-1,25
 118 84 118 84 124 96 c 128,-1,26
 130 108 130 108 132 112 c 2,27,-1
 285 431 l 1,0,-1
EndSplineSet
Validated: 1
EndChar

StartChar: eight
Encoding: 56 56 28
Width: 455
GlyphClass: 2
Flags: W
LayerCount: 2
Fore
SplineSet
127 301 m 1,0,1
 78 343 78 343 78 402 c 0,2,3
 78 462 78 462 129 510 c 1,4,5
 181 557 181 557 255 557 c 0,6,7
 330 557 330 557 380 506 c 0,8,9
 426 460 426 460 426 398 c 0,10,11
 426 342 426 342 383 306 c 1,12,13
 452 246 452 246 452 168 c 0,14,15
 452 99 452 99 400 50 c 1,16,17
 344 0 344 0 257 0 c 0,18,19
 164 0 164 0 107 60 c 0,20,21
 53 116 53 116 57 187 c 1,22,23
 60 260 60 260 127 301 c 1,0,1
252 271 m 0,24,25
 221 271 221 271 203 251 c 0,26,27
 186 233 186 233 186 204 c 0,28,29
 186 160 186 160 203 142 c 0,30,31
 222 121 222 121 255 121 c 0,32,33
 290 121 290 121 307 141 c 1,34,35
 325 159 325 159 325 200 c 0,36,37
 325 227 325 227 306 249 c 1,38,39
 284 271 284 271 252 271 c 0,24,25
255 334 m 0,40,41
 277 334 277 334 290 350 c 0,42,43
 302 366 302 366 302 388 c 0,44,45
 302 423 302 423 290 438 c 0,46,47
 276 454 276 454 252 454 c 0,48,49
 229 454 229 454 216 438 c 1,50,51
 203 424 203 424 203 387 c 0,52,53
 203 364 203 364 217 350 c 1,54,55
 230 334 230 334 255 334 c 0,40,41
EndSplineSet
Validated: 33
EndChar

StartChar: nine
Encoding: 57 57 29
Width: 437
GlyphClass: 2
Flags: W
LayerCount: 2
Fore
SplineSet
434 340 m 0,0,1
 434 276 434 276 374 178 c 0,2,3
 328 104 328 104 261 36 c 1,4,5
 230 3 230 3 196 3 c 0,6,7
 175 3 175 3 157 19 c 1,8,9
 142 34 142 34 142 56 c 128,-1,10
 142 78 142 78 157 97 c 2,11,-1
 246 201 l 1,12,13
 228 199 228 199 219 199 c 0,14,15
 146 199 146 199 99 251 c 0,16,17
 56 300 56 300 56 368 c 0,18,19
 56 438 56 438 105 489 c 1,20,21
 160 543 160 543 262 543 c 0,22,23
 346 543 346 543 392 480 c 0,24,25
 434 424 434 424 434 340 c 0,0,1
223 297 m 0,26,27
 267 297 267 297 285 317 c 0,28,29
 301 336 301 336 301 367 c 0,30,31
 301 394 301 394 286 414 c 0,32,33
 270 435 270 435 242 435 c 0,34,35
 190 435 190 435 172 417 c 0,36,37
 154 398 154 398 154 362 c 0,38,39
 154 336 154 336 171 317 c 1,40,41
 191 297 191 297 223 297 c 0,26,27
EndSplineSet
Validated: 1
EndChar

StartChar: colon
Encoding: 58 58 30
Width: 166
GlyphClass: 2
Flags: W
LayerCount: 2
Fore
SplineSet
113 402 m 0,0,1
 136 402 136 402 151 385 c 0,2,3
 164 369 164 369 164 348 c 128,-1,4
 164 327 164 327 151 311 c 128,-1,5
 138 295 138 295 113 295 c 0,6,7
 87 295 87 295 72 311 c 0,8,9
 56 327 56 327 56 349 c 128,-1,10
 56 371 56 371 71 386 c 0,11,12
 86 402 86 402 113 402 c 0,0,1
113 220 m 0,13,14
 136 220 136 220 151 203 c 0,15,16
 164 187 164 187 164 166 c 0,17,18
 164 146 164 146 151 130 c 0,19,20
 137 113 137 113 113 113 c 0,21,22
 86 113 86 113 71 129 c 0,23,24
 56 146 56 146 56 166 c 0,25,26
 56 188 56 188 71 204 c 0,27,28
 87 220 87 220 113 220 c 0,13,14
EndSplineSet
Validated: 1
EndChar

StartChar: semicolon
Encoding: 59 59 31
Width: 210
GlyphClass: 2
Flags: W
LayerCount: 2
Fore
SplineSet
156 267 m 0,0,1
 181 267 181 267 194 251 c 1,2,3
 207 237 207 237 207 214 c 0,4,5
 207 192 207 192 195 177 c 1,6,7
 180 161 180 161 156 161 c 0,8,9
 129 161 129 161 114 177 c 0,10,11
 99 194 99 194 99 215 c 0,12,13
 99 237 99 237 114 252 c 128,-1,14
 129 267 129 267 156 267 c 0,0,1
65 -40 m 2,15,-1
 121 62 l 1,16,17
 137 94 137 94 166 94 c 0,18,19
 182 94 182 94 195 83 c 1,20,21
 207 71 207 71 207 56 c 0,22,23
 207 46 207 46 203 39 c 2,24,-1
 139 -86 l 2,25,26
 125 -112 125 -112 99 -112 c 0,27,28
 81 -112 81 -112 69 -100 c 1,29,30
 56 -89 56 -89 56 -70 c 0,31,32
 56 -55 56 -55 65 -40 c 2,15,-1
EndSplineSet
Validated: 1
EndChar

StartChar: less
Encoding: 60 60 32
Width: 386
GlyphClass: 2
Flags: W
LayerCount: 2
Fore
SplineSet
101 310 m 1,0,-1
 312 409 l 2,1,2
 325 416 325 416 340 416 c 0,3,4
 357 416 357 416 370 405 c 1,5,6
 381 394 381 394 381 378 c 0,7,8
 381 351 381 351 349 338 c 2,9,-1
 170 265 l 1,10,-1
 349 184 l 2,11,12
 383 169 383 169 383 142 c 0,13,14
 383 130 383 130 373 120 c 1,15,16
 362 111 362 111 347 111 c 0,17,18
 334 111 334 111 316 119 c 2,19,-1
 97 217 l 2,20,21
 56 235 56 235 56 261 c 0,22,23
 56 290 56 290 101 310 c 1,0,-1
EndSplineSet
Validated: 1
EndChar

StartChar: equal
Encoding: 61 61 33
Width: 396
GlyphClass: 2
Flags: W
LayerCount: 2
Fore
SplineSet
347 358 m 2,0,1
 368 358 368 358 381 345 c 0,2,3
 393 332 393 332 393 314 c 0,4,5
 393 298 393 298 382 287 c 1,6,7
 372 275 372 275 352 275 c 2,8,-1
 99 275 l 2,9,10
 78 275 78 275 68 287 c 1,11,12
 56 299 56 299 56 317 c 0,13,14
 56 332 56 332 68 346 c 0,15,16
 70 349 70 349 65 352.5 c 128,-1,17
 60 356 60 356 65.5 357 c 128,-1,18
 71 358 71 358 99 358 c 2,19,-1
 347 358 l 2,0,1
347 218 m 2,20,21
 369 218 369 218 381 204 c 1,22,23
 393 192 393 192 393 174 c 0,24,25
 393 160 393 160 383 147 c 1,26,27
 371 135 371 135 352 135 c 2,28,-1
 104 135 l 2,29,30
 81 135 81 135 68 148 c 1,31,32
 57 161 57 161 57 177 c 0,33,34
 57 192 57 192 69 206 c 1,35,36
 81 218 81 218 102 218 c 2,37,-1
 347 218 l 2,20,21
EndSplineSet
Validated: 1
EndChar

StartChar: greater
Encoding: 62 62 34
Width: 386
GlyphClass: 2
Flags: W
LayerCount: 2
Fore
SplineSet
338 310 m 1,0,-1
 127 409 l 2,1,2
 113 416 113 416 99 416 c 0,3,4
 82 416 82 416 69 405 c 1,5,6
 57 393 57 393 57 378 c 0,7,8
 57 352 57 352 90 338 c 2,9,-1
 268 265 l 1,10,-1
 90 184 l 2,11,12
 56 169 56 169 56 142 c 0,13,14
 56 130 56 130 66 120 c 0,15,16
 76 111 76 111 92 111 c 0,17,18
 105 111 105 111 123 119 c 2,19,-1
 342 217 l 2,20,21
 383 235 383 235 383 261 c 0,22,23
 383 290 383 290 338 310 c 1,0,-1
EndSplineSet
Validated: 9
EndChar

StartChar: question
Encoding: 63 63 35
Width: 384
GlyphClass: 2
Flags: W
LayerCount: 2
Fore
SplineSet
210 144 m 0,0,1
 238 144 238 144 254 125 c 1,2,3
 270 104 270 104 270 79 c 128,-1,4
 270 54 270 54 255 36 c 0,5,6
 239 17 239 17 210 17 c 0,7,8
 180 17 180 17 162 36 c 1,9,10
 146 57 146 57 146 81 c 0,11,12
 146 106 146 106 163 126 c 1,13,14
 180 144 180 144 210 144 c 0,0,1
106 360 m 0,15,16
 83 360 83 360 69 377 c 1,17,18
 56 395 56 395 56 419 c 0,19,20
 56 471 56 471 110 510 c 0,21,22
 157 544 157 544 210 544 c 0,23,24
 294 544 294 544 341 494 c 1,25,26
 380 450 380 450 380 384 c 0,27,28
 380 324 380 324 349 283 c 1,29,30
 316 237 316 237 264 237 c 1,31,-1
 264 206 l 2,32,33
 264 164 264 164 218 164 c 0,34,35
 194 164 194 164 177 177 c 0,36,37
 157 192 157 192 157 215 c 2,38,-1
 157 287 l 2,39,40
 157 310 157 310 183 321 c 1,41,-1
 231 335 l 2,42,43
 245 340 245 340 258.5 351.5 c 128,-1,44
 272 363 272 363 273 370 c 0,45,46
 281 451 281 451 240 451 c 0,47,48
 206 451 206 451 184 420 c 0,49,50
 171 402 171 402 145.5 381 c 128,-1,51
 120 360 120 360 106 360 c 0,15,16
EndSplineSet
Validated: 33
EndChar

StartChar: at
Encoding: 64 64 36
Width: 580
GlyphClass: 2
Flags: W
LayerCount: 2
Fore
SplineSet
56 283 m 0,0,1
 56 390 56 390 137 471 c 1,2,3
 219 551 219 551 325 551 c 0,4,5
 449 551 449 551 517 480 c 0,6,7
 577 418 577 418 577 327 c 0,8,9
 577 245 577 245 530 186 c 1,10,11
 479 124 479 124 400 124 c 0,12,13
 360 124 360 124 358 159 c 1,14,15
 317 131 317 131 276 131 c 0,16,17
 232 131 232 131 205 162 c 1,18,19
 176 197 176 197 176 255 c 0,20,21
 176 322 176 322 221 372 c 0,22,23
 263 419 263 419 317 419 c 0,24,25
 365 419 365 419 398 377 c 1,26,27
 401 391 401 391 412 404 c 0,28,29
 422 416 422 416 438 416 c 0,30,31
 466 416 466 416 466 370 c 0,32,33
 466 345 466 345 455 290 c 0,34,35
 444 234 444 234 443 211 c 1,36,37
 449 209 449 209 453 209 c 0,38,39
 479 209 479 209 497 239 c 0,40,41
 515 270 515 270 515 312 c 0,42,43
 515 378 515 378 474 424 c 0,44,45
 426 479 426 479 334 479 c 0,46,47
 237 479 237 479 184 411 c 1,48,49
 138 354 138 354 136 264 c 1,50,51
 136 184 136 184 199 133 c 0,52,53
 258 85 258 85 339 85 c 0,54,55
 383 85 383 85 448 113 c 0,56,57
 460 118 460 118 469 118 c 0,58,59
 482 118 482 118 490 109 c 0,60,61
 498 99 498 99 498 89 c 0,62,63
 498 68 498 68 475 57 c 0,64,65
 446 44 446 44 396 31 c 1,66,67
 349 20 349 20 330 20 c 0,68,69
 206 20 206 20 132 89 c 1,70,71
 56 162 56 162 56 283 c 0,0,1
380 281 m 0,72,73
 380 306 380 306 362 321 c 128,-1,74
 344 336 344 336 320 336 c 128,-1,75
 296 336 296 336 277 319 c 1,76,77
 258 300 258 300 258 266 c 0,78,79
 258 202 258 202 303 202 c 0,80,81
 330 202 330 202 355 227 c 0,82,83
 380 251 380 251 380 281 c 0,72,73
EndSplineSet
Validated: 1
EndChar

StartChar: A
Encoding: 65 65 37
Width: 539
GlyphClass: 2
Flags: W
LayerCount: 2
Fore
SplineSet
381 465 m 1,0,-1
 535 69 l 1,1,2
 539 53 539 53 539 46 c 0,3,4
 539 25 539 25 524 13 c 128,-1,5
 509 1 509 1 474 1 c 0,6,7
 434 1 434 1 417 36 c 0,8,9
 413 43 413 43 397.5 101.5 c 128,-1,10
 382 160 382 160 375 176 c 1,11,-1
 226 177 l 1,12,13
 225 173 225 173 219 143.5 c 128,-1,14
 213 114 213 114 206 83.5 c 128,-1,15
 199 53 199 53 193 39 c 1,16,17
 180 0 180 0 139 0 c 0,18,19
 99 0 99 0 83 13 c 128,-1,20
 67 26 67 26 67 47 c 0,21,22
 67 56 67 56 70 65 c 2,23,-1
 212 465 l 1,24,25
 238 534 238 534 296 534 c 0,26,27
 356 534 356 534 381 465 c 1,0,-1
235 220 m 1,28,-1
 364 220 l 1,29,-1
 300 396 l 1,30,-1
 235 220 l 1,28,-1
EndSplineSet
Validated: 1
EndChar

StartChar: B
Encoding: 66 66 38
Width: 461
GlyphClass: 2
Flags: W
LayerCount: 2
Fore
SplineSet
67 475 m 2,0,1
 67 495 67 495 81 513 c 1,2,3
 95 533 95 533 113 533 c 2,4,-1
 295 533 l 2,5,6
 344 533 344 533 380 491 c 128,-1,7
 416 449 416 449 416 397 c 0,8,9
 416 332 416 332 358 296 c 1,10,11
 409 288 409 288 436 250 c 0,12,13
 460 216 460 216 460 166 c 0,14,15
 460 102 460 102 424 54 c 0,16,17
 384 1 384 1 324 1 c 2,18,-1
 113 1 l 2,19,20
 95 1 95 1 81 12 c 128,-1,21
 67 23 67 23 67 41 c 2,22,-1
 67 475 l 2,0,1
277 236 m 2,23,-1
 189 236 l 1,24,-1
 189 106 l 1,25,-1
 277 106 l 2,26,27
 318 106 318 106 337 123 c 1,28,29
 353 139 353 139 353 160 c 0,30,31
 353 173 353 173 348 193 c 128,-1,32
 343 213 343 213 336 220 c 0,33,34
 320 236 320 236 277 236 c 2,23,-1
259 417 m 2,35,-1
 189 417 l 1,36,-1
 189 306 l 1,37,-1
 277 306 l 2,38,39
 307 306 307 306 307 350 c 0,40,41
 307 386 307 386 297 402 c 0,42,43
 288 417 288 417 259 417 c 2,35,-1
EndSplineSet
Validated: 1
EndChar

StartChar: C
Encoding: 67 67 39
Width: 516
GlyphClass: 2
Flags: W
LayerCount: 2
Fore
SplineSet
292 101 m 0,0,1
 330 101 330 101 353 107 c 1,2,-1
 384 120 l 2,3,4
 386 120 386 120 406 126 c 128,-1,5
 426 132 426 132 428 132 c 0,6,7
 479 132 479 132 489 121 c 1,8,9
 508 103 508 103 508 71 c 0,10,11
 508 43 508 43 475 28 c 1,12,13
 433 11 433 11 397 2 c 1,14,15
 360 -6 360 -6 312 -6 c 0,16,17
 195 -6 195 -6 127 77 c 0,18,19
 67 150 67 150 67 259 c 0,20,21
 67 370 67 370 129 448 c 1,22,23
 192 525 192 525 316 525 c 0,24,25
 370 525 370 525 396 519 c 0,26,27
 434 511 434 511 468 494 c 0,28,29
 484 486 484 486 492.5 468.5 c 128,-1,30
 501 451 501 451 501 434 c 0,31,32
 501 404 501 404 490 393 c 0,33,34
 477 381 477 381 446 381 c 0,35,36
 443 381 443 381 432 386.5 c 128,-1,37
 421 392 421 392 419 392 c 1,38,39
 418 393 418 393 360 411 c 0,40,41
 315 425 315 425 286 424 c 0,42,43
 228 422 228 422 194 373 c 0,44,45
 163 328 163 328 163 258 c 0,46,47
 163 194 163 194 195 150 c 0,48,49
 231 101 231 101 292 101 c 0,0,1
EndSplineSet
Validated: 33
EndChar

StartChar: D
Encoding: 68 68 40
Width: 509
GlyphClass: 2
Flags: W
LayerCount: 2
Fore
SplineSet
67 476 m 2,0,1
 67 497 67 497 81 515 c 1,2,3
 95 535 95 535 113 535 c 2,4,-1
 277 535 l 2,5,6
 386 535 386 535 451 449 c 0,7,8
 509 371 509 371 509 263 c 0,9,10
 509 157 509 157 454 84 c 0,11,12
 392 3 392 3 288 3 c 2,13,-1
 125 3 l 2,14,15
 102 3 102 3 86 15 c 1,16,17
 67 27 67 27 67 49 c 2,18,-1
 67 476 l 2,0,1
310 425 m 2,19,-1
 195 425 l 1,20,-1
 195 111 l 1,21,-1
 271 111 l 2,22,23
 302 111 302 111 337.5 124.5 c 128,-1,24
 373 138 373 138 388 162 c 0,25,26
 416 209 416 209 416 272 c 0,27,28
 416 332 416 332 392 372 c 0,29,30
 379 394 379 394 355 409.5 c 128,-1,31
 331 425 331 425 310 425 c 2,19,-1
EndSplineSet
Validated: 1
EndChar

StartChar: E
Encoding: 69 69 41
Width: 371
GlyphClass: 2
Flags: W
LayerCount: 2
Fore
SplineSet
67 483 m 2,0,1
 67 507 67 507 81 521 c 1,2,3
 97 535 97 535 118 535 c 2,4,-1
 312 535 l 2,5,6
 339 535 339 535 353 515 c 0,7,8
 367 496 367 496 367 472 c 0,9,10
 367 445 367 445 356 429 c 0,11,12
 344 413 344 413 322 413 c 2,13,-1
 162 419 l 1,14,-1
 162 317 l 1,15,-1
 312 323 l 2,16,17
 333 323 333 323 345 306 c 0,18,19
 358 289 358 289 358 259 c 0,20,21
 358 235 358 235 348 218 c 1,22,23
 336 202 336 202 317 202 c 2,24,-1
 162 207 l 1,25,-1
 162 113 l 1,26,-1
 312 120 l 1,27,28
 340 120 340 120 355 102 c 1,29,30
 370 86 370 86 370 55 c 0,31,32
 370 34 370 34 358 19 c 1,33,34
 347 3 347 3 329 3 c 2,35,-1
 107 3 l 2,36,37
 95 3 95 3 81 17 c 1,38,39
 67 28 67 28 67 44 c 2,40,-1
 67 483 l 2,0,1
EndSplineSet
Validated: 1
EndChar

StartChar: F
Encoding: 70 70 42
Width: 372
GlyphClass: 2
Flags: W
LayerCount: 2
Fore
SplineSet
67 59 m 2,0,-1
 67 480 l 2,1,2
 67 532 67 532 112 532 c 2,3,-1
 317 532 l 2,4,5
 342 532 342 532 357 514 c 1,6,7
 371 495 371 495 371 472 c 0,8,9
 371 442 371 442 361 430 c 0,10,11
 350 415 350 415 330 415 c 2,12,-1
 167 421 l 1,13,-1
 167 336 l 1,14,-1
 311 342 l 2,15,16
 334 342 334 342 346 326 c 0,17,18
 359 310 359 310 359 280 c 0,19,20
 359 259 359 259 347 244 c 0,21,22
 334 226 334 226 311 226 c 2,23,-1
 167 226 l 1,24,-1
 167 59 l 2,25,26
 167 31 167 31 149 16 c 0,27,28
 132 1 132 1 109 1 c 0,29,30
 99 1 99 1 94.5 4.5 c 128,-1,31
 90 8 90 8 84 16 c 1,32,33
 67 30 67 30 67 59 c 2,0,-1
EndSplineSet
Validated: 1
EndChar

StartChar: G
Encoding: 71 71 43
Width: 549
GlyphClass: 2
Flags: W
LayerCount: 2
Fore
SplineSet
327 523 m 0,0,1
 388 523 388 523 437.5 502 c 128,-1,2
 487 481 487 481 515 448 c 0,3,4
 518 444 518 444 529.5 433 c 128,-1,5
 541 422 541 422 546 414.5 c 128,-1,6
 551 407 551 407 551 400 c 0,7,8
 551 390 551 390 522 358 c 1,9,10
 506 343 506 343 478 343 c 0,11,12
 471 343 471 343 449.5 360.5 c 128,-1,13
 428 378 428 378 424 380 c 0,14,15
 418 383 418 383 402 394 c 128,-1,16
 386 405 386 405 370.5 409.5 c 128,-1,17
 355 414 355 414 331 414 c 0,18,19
 292 414 292 414 249.5 387.5 c 128,-1,20
 207 361 207 361 189 324 c 1,21,22
 157 253 157 253 183 190 c 0,23,24
 199 151 199 151 243 121 c 128,-1,25
 287 91 287 91 330 91 c 0,26,27
 387 91 387 91 429 125.5 c 128,-1,28
 471 160 471 160 471 207 c 1,29,-1
 349 190 l 1,30,31
 328 190 328 190 315 206 c 0,32,33
 304 220 304 220 304 234 c 0,34,35
 304 268 304 268 315 282 c 0,36,37
 327 296 327 296 349 296 c 2,38,-1
 518 292 l 1,39,40
 565 292 565 292 565 235 c 0,41,42
 565 115 565 115 508.5 58.5 c 128,-1,43
 452 2 452 2 334 2 c 0,44,45
 274 2 274 2 218.5 24 c 128,-1,46
 163 46 163 46 129 84 c 0,47,48
 67 153 67 153 67 256 c 0,49,50
 67 354 67 354 143 443 c 0,51,52
 212 523 212 523 327 523 c 0,0,1
EndSplineSet
Validated: 33
EndChar

StartChar: H
Encoding: 72 72 44
Width: 528
GlyphClass: 2
Flags: W
LayerCount: 2
Fore
SplineSet
67 476 m 2,0,1
 67 502 67 502 85 519 c 0,2,3
 100 533 100 533 126 533 c 0,4,5
 157 533 157 533 173 520 c 0,6,7
 191 505 191 505 191 481 c 1,8,-1
 183 329 l 1,9,-1
 411 329 l 1,10,-1
 403 476 l 1,11,12
 403 502 403 502 420 517 c 0,13,14
 436 532 436 532 467 532 c 0,15,16
 492 532 492 532 508 516 c 0,17,18
 527 497 527 497 527 464 c 2,19,-1
 527 63 l 2,20,21
 527 34 527 34 510 17 c 1,22,23
 492 1 492 1 469 1 c 0,24,25
 438 1 438 1 420 16 c 0,26,27
 403 31 403 31 403 57 c 1,28,-1
 411 241 l 1,29,-1
 183 241 l 1,30,-1
 191 57 l 1,31,32
 191 31 191 31 174 16 c 0,33,34
 156 1 156 1 124 1 c 0,35,36
 100 1 100 1 84 16 c 1,37,38
 67 30 67 30 67 57 c 2,39,-1
 67 476 l 2,0,1
EndSplineSet
Validated: 1
EndChar

StartChar: I
Encoding: 73 73 45
Width: 189
GlyphClass: 2
Flags: W
LayerCount: 2
Fore
SplineSet
71 63 m 2,0,-1
 67 470 l 2,1,2
 67 499 67 499 85 517 c 1,3,4
 102 532 102 532 131 532 c 128,-1,5
 160 532 160 532 176 517 c 128,-1,6
 192 502 192 502 192 476 c 2,7,-1
 187 63 l 2,8,9
 187 35 187 35 170 18 c 0,10,11
 153 2 153 2 130 2 c 0,12,13
 104 2 104 2 88 18 c 0,14,15
 71 34 71 34 71 63 c 2,0,-1
EndSplineSet
Validated: 1
EndChar

StartChar: J
Encoding: 74 74 46
Width: 355
GlyphClass: 2
Flags: W
LayerCount: 2
Fore
SplineSet
354 481 m 2,0,-1
 354 159 l 2,1,2
 354 82 354 82 312 40 c 0,3,4
 275 3 275 3 216 3 c 0,5,6
 158 3 158 3 108 38 c 0,7,8
 67 67 67 67 67 103 c 0,9,10
 67 120 67 120 87 140 c 0,11,12
 99 153 99 153 120 153 c 0,13,14
 126 153 126 153 154 139 c 1,15,-1
 184 120 l 2,16,17
 203 107 203 107 215 107 c 0,18,19
 242 107 242 107 242 172 c 1,20,-1
 237 472 l 2,21,22
 237 502 237 502 255 518 c 0,23,24
 262 524 262 524 267 528.5 c 128,-1,25
 272 533 272 533 278.5 536 c 128,-1,26
 285 539 285 539 293 539 c 0,27,28
 322 539 322 539 334 528 c 0,29,30
 354 510 354 510 354 481 c 2,0,-1
EndSplineSet
Validated: 1
EndChar

StartChar: K
Encoding: 75 75 47
Width: 505
GlyphClass: 2
Flags: W
LayerCount: 2
Fore
SplineSet
67 479 m 2,0,1
 67 506 67 506 84 522 c 0,2,3
 100 537 100 537 125 537 c 0,4,5
 152 537 152 537 170 522 c 1,6,7
 187 505 187 505 187 466 c 1,8,-1
 182 319 l 1,9,-1
 364 500 l 2,10,11
 385 522 385 522 413 522 c 1,12,13
 424 523 424 523 434.5 522.5 c 128,-1,14
 445 522 445 522 453 515 c 0,15,16
 476 494 476 494 476 468 c 0,17,18
 476 440 476 440 450 418 c 1,19,-1
 318 294 l 1,20,-1
 470 123 l 1,21,22
 504 87 504 87 504 69 c 0,23,24
 504 38 504 38 484 21 c 1,25,26
 462 5 462 5 438 5 c 0,27,28
 407 5 407 5 386 28 c 2,29,-1
 188 247 l 1,30,-1
 193 61 l 2,31,32
 193 35 193 35 175 20 c 128,-1,33
 157 5 157 5 127 5 c 0,34,35
 102 5 102 5 84 20 c 0,36,37
 67 35 67 35 67 61 c 2,38,-1
 67 479 l 2,0,1
EndSplineSet
Validated: 1
EndChar

StartChar: L
Encoding: 76 76 48
Width: 380
GlyphClass: 2
Flags: W
LayerCount: 2
Fore
SplineSet
67 475 m 2,0,1
 67 503 67 503 86 519 c 1,2,3
 102 535 102 535 128 535 c 0,4,5
 148 535 148 535 168 518 c 0,6,7
 186 502 186 502 186 475 c 2,8,-1
 179 117 l 1,9,-1
 329 124 l 1,10,11
 352 124 352 124 365 106 c 0,12,13
 378 89 378 89 378 59 c 0,14,15
 378 35 378 35 365 19 c 0,16,17
 353 3 353 3 329 3 c 2,18,-1
 118 3 l 2,19,20
 100 3 100 3 83 17 c 0,21,22
 67 30 67 30 67 49 c 2,23,-1
 67 475 l 2,0,1
EndSplineSet
Validated: 1
EndChar

StartChar: M
Encoding: 77 77 49
Width: 690
GlyphClass: 2
Flags: W
LayerCount: 2
Fore
SplineSet
294 467 m 2,0,-1
 375 227 l 1,1,-1
 462 467 l 1,2,3
 474 497 474 497 496 513 c 128,-1,4
 518 529 518 529 544 529 c 0,5,6
 571 529 571 529 592 511 c 0,7,8
 615 491 615 491 621 455 c 2,9,-1
 687 63 l 1,10,-1
 687 50 l 2,11,12
 687 26 687 26 672 11 c 1,13,14
 655 -3 655 -3 621 -3 c 0,15,16
 599 -3 599 -3 582 11 c 0,17,18
 571 20 571 20 559 94 c 1,19,-1
 529 339 l 1,20,-1
 528 339 l 2,21,22
 525 339 525 339 521 337 c 1,23,-1
 445 94 l 2,24,25
 414 -2 414 -2 381 -2 c 0,26,27
 350 -2 350 -2 316 94 c 2,28,-1
 237 322 l 1,29,-1
 234 327 l 1,30,-1
 233 327 l 2,31,32
 230 327 230 327 224 323 c 1,33,-1
 209 112 l 1,34,35
 203 68 203 68 186 32.5 c 128,-1,36
 169 -3 169 -3 144 -3 c 0,37,38
 102 -3 102 -3 85 14 c 1,39,40
 67 30 67 30 67 55 c 2,41,-1
 67 64 l 1,42,-1
 135 455 l 2,43,44
 141 490 141 490 164 510 c 1,45,46
 189 530 189 530 216 530 c 0,47,48
 272 530 272 530 294 467 c 2,0,-1
EndSplineSet
Validated: 1
EndChar

StartChar: N
Encoding: 78 78 50
Width: 528
GlyphClass: 2
Flags: W
LayerCount: 2
Fore
SplineSet
67 472 m 2,0,1
 67 530 67 530 112 530 c 0,2,3
 138 530 138 530 186 471 c 1,4,-1
 414 203 l 1,5,-1
 403 460 l 1,6,7
 403 505 403 505 419 516 c 1,8,9
 435 529 435 529 458 529 c 0,10,11
 493 529 493 529 510 515 c 128,-1,12
 527 501 527 501 527 477 c 2,13,-1
 527 48 l 2,14,15
 527 -2 527 -2 484 -2 c 0,16,17
 456 -2 456 -2 411 54 c 2,18,-1
 183 336 l 1,19,-1
 196 71 l 1,20,21
 196 27 196 27 179 13 c 0,22,23
 161 -2 161 -2 138 -2 c 0,24,25
 100 -2 100 -2 84 13 c 1,26,27
 67 27 67 27 67 54 c 2,28,-1
 67 472 l 2,0,1
EndSplineSet
Validated: 1
EndChar

StartChar: O
Encoding: 79 79 51
Width: 540
GlyphClass: 2
Flags: W
LayerCount: 2
Fore
SplineSet
310 551 m 0,0,1
 414 551 414 551 479 461 c 1,2,3
 539 380 539 380 539 266 c 0,4,5
 539 158 539 158 482 84 c 1,6,7
 417 2 417 2 303 2 c 0,8,9
 192 2 192 2 126 88 c 1,10,11
 67 163 67 163 67 275 c 128,-1,12
 67 387 67 387 127 465 c 1,13,14
 195 551 195 551 310 551 c 0,0,1
304 452 m 0,15,16
 259 452 259 452 238 408 c 0,17,18
 216 364 216 364 216 282 c 0,19,20
 216 251 216 251 222.5 209 c 128,-1,21
 229 167 229 167 238 149 c 0,22,23
 260 106 260 106 305 106 c 0,24,25
 344 106 344 106 365 151 c 0,26,27
 375 172 375 172 382.5 215 c 128,-1,28
 390 258 390 258 390 288 c 0,29,30
 390 316 390 316 382.5 353.5 c 128,-1,31
 375 391 375 391 366 410 c 0,32,33
 345 452 345 452 304 452 c 0,15,16
EndSplineSet
Validated: 1
EndChar

StartChar: P
Encoding: 80 80 52
Width: 456
GlyphClass: 2
Flags: W
LayerCount: 2
Fore
SplineSet
67 484 m 2,0,1
 67 501 67 501 82 516 c 0,2,3
 96 530 96 530 113 530 c 2,4,-1
 277 530 l 2,5,6
 364 530 364 530 412 475 c 0,7,8
 454 426 454 426 454 351 c 0,9,10
 454 277 454 277 414 225 c 0,11,12
 370 168 370 168 300 168 c 2,13,-1
 189 168 l 1,14,-1
 189 59 l 2,15,16
 189 29 189 29 170 13 c 1,17,18
 154 -2 154 -2 129 -2 c 128,-1,19
 104 -2 104 -2 85 14 c 0,20,21
 67 30 67 30 67 60 c 2,22,-1
 67 484 l 2,0,1
267 419 m 2,23,-1
 191 419 l 1,24,-1
 191 270 l 1,25,-1
 267 270 l 2,26,27
 329 270 329 270 349 292 c 0,28,29
 365 309 365 309 365 348 c 0,30,31
 365 376 365 376 348 398 c 0,32,33
 340 407 340 407 313 413 c 128,-1,34
 286 419 286 419 267 419 c 2,23,-1
EndSplineSet
Validated: 1
EndChar

StartChar: Q
Encoding: 81 81 53
Width: 540
GlyphClass: 2
Flags: W
LayerCount: 2
Fore
SplineSet
523 85 m 2,0,1
 533 66 533 66 533 49 c 0,2,3
 533 27 533 27 518 12 c 1,4,5
 502 -2 502 -2 482 -2 c 0,6,7
 451 -2 451 -2 434 30 c 1,8,-1
 430 39 l 1,9,10
 377 4 377 4 303 4 c 0,11,12
 192 4 192 4 126 90 c 0,13,14
 67 167 67 167 67 277 c 0,15,16
 67 389 67 389 127 467 c 1,17,18
 195 553 195 553 310 553 c 0,19,20
 414 553 414 553 479 463 c 1,21,22
 539 382 539 382 539 268 c 0,23,24
 539 184 539 184 504 120 c 1,25,-1
 523 85 l 2,0,1
302 456 m 0,26,27
 279 456 279 456 257 444.5 c 128,-1,28
 235 433 235 433 223 411 c 0,29,30
 212 392 212 392 204 353 c 128,-1,31
 196 314 196 314 196 283 c 128,-1,32
 196 252 196 252 204 209 c 128,-1,33
 212 166 212 166 223 148 c 0,34,35
 249 104 249 104 304 104 c 0,36,37
 349 104 349 104 375 148 c 1,38,-1
 358 182 l 2,39,40
 352 192 352 192 352 203 c 0,41,42
 352 222 352 222 367 235 c 0,43,44
 383 249 383 249 402 249 c 2,45,-1
 403 249 l 1,46,47
 406 272 406 272 406 289 c 0,48,49
 406 318 406 318 397 356 c 128,-1,50
 388 394 388 394 377 413 c 0,51,52
 352 456 352 456 302 456 c 0,26,27
EndSplineSet
Validated: 1
EndChar

StartChar: R
Encoding: 82 82 54
Width: 473
GlyphClass: 2
Flags: W
LayerCount: 2
Fore
SplineSet
67 494 m 2,0,1
 67 508 67 508 79 525 c 1,2,3
 93 541 93 541 107 541 c 2,4,-1
 305 541 l 2,5,6
 364 541 364 541 408 492 c 1,7,8
 451 441 451 441 451 382 c 0,9,10
 451 336 451 336 423 299 c 1,11,12
 392 260 392 260 329 238 c 1,13,-1
 448 118 l 1,14,15
 467 96 467 96 467 71 c 0,16,17
 467 47 467 47 451 31 c 1,18,19
 445 23 445 23 431.5 11 c 128,-1,20
 418 -1 418 -1 408 -1 c 0,21,22
 374 -1 374 -1 346 33 c 2,23,-1
 188 227 l 1,24,-1
 188 68 l 2,25,26
 188 39 188 39 169 18 c 1,27,28
 151 0 151 0 125 0 c 0,29,30
 100 0 100 0 84 18 c 1,31,32
 67 34 67 34 67 68 c 2,33,-1
 67 494 l 2,0,1
188 437 m 1,34,-1
 188 314 l 1,35,-1
 277 314 l 2,36,37
 314 314 314 314 328 332 c 0,38,39
 343 350 343 350 344 380 c 0,40,41
 344 397 344 397 328 419 c 0,42,43
 314 437 314 437 277 437 c 2,44,-1
 188 437 l 1,34,-1
EndSplineSet
Validated: 1
EndChar

StartChar: S
Encoding: 83 83 55
Width: 445
GlyphClass: 2
Flags: W
LayerCount: 2
Fore
SplineSet
76 340 m 1,0,1
 59 382 59 382 73.5 419.5 c 128,-1,2
 88 457 88 457 123 483 c 0,3,4
 178 525 178 525 270 525 c 0,5,6
 338 525 338 525 401 503 c 0,7,8
 430 492 430 492 446 473 c 1,9,10
 462 451 462 451 462 425 c 0,11,12
 462 404 462 404 445 387 c 1,13,14
 427 372 427 372 398 372 c 0,15,16
 373 372 373 372 342 383 c 0,17,18
 282 405 282 405 258 405 c 0,19,20
 227 405 227 405 218 393 c 128,-1,21
 209 381 209 381 209 352 c 0,22,23
 209 328 209 328 302 292 c 0,24,25
 315 287 315 287 340 278.5 c 128,-1,26
 365 270 365 270 378.5 264.5 c 128,-1,27
 392 259 392 259 409.5 249.5 c 128,-1,28
 427 240 427 240 438.5 226 c 128,-1,29
 450 212 450 212 458 193 c 0,30,31
 474 153 474 153 457.5 111.5 c 128,-1,32
 441 70 441 70 406 44 c 0,33,34
 352 3 352 3 259 3 c 0,35,36
 193 3 193 3 127 24 c 1,37,38
 97 35 97 35 83 55 c 1,39,40
 67 74 67 74 67 105 c 0,41,42
 67 128 67 128 84 143 c 1,43,44
 100 159 100 159 131 159 c 0,45,46
 156 159 156 159 187 147 c 0,47,48
 253 122 253 122 270 122 c 0,49,50
 336 122 336 122 336 176 c 0,51,52
 336 190 336 190 310 200 c 128,-1,53
 284 210 284 210 251 220 c 1,54,55
 216 235 216 235 184.5 246.5 c 128,-1,56
 153 258 153 258 123 282 c 128,-1,57
 93 306 93 306 76 340 c 1,0,1
EndSplineSet
Validated: 33
EndChar

StartChar: T
Encoding: 84 84 56
Width: 458
GlyphClass: 2
Flags: W
LayerCount: 2
Fore
SplineSet
200 419 m 1,0,-1
 121 406 l 1,1,2
 96 406 96 406 80 424 c 0,3,4
 67 438 67 438 67 461 c 0,5,6
 67 483 67 483 80 499 c 0,7,8
 94 516 94 516 118 516 c 2,9,-1
 397 516 l 2,10,11
 426 516 426 516 441 499 c 1,12,13
 457 483 457 483 457 459 c 0,14,15
 457 437 457 437 443 423 c 0,16,17
 426 406 426 406 398 406 c 1,18,-1
 317 419 l 1,19,-1
 317 67 l 2,20,21
 317 34 317 34 299 16 c 0,22,23
 282 -2 282 -2 258 -2 c 0,24,25
 236 -2 236 -2 217 15 c 1,26,27
 200 34 200 34 200 63 c 2,28,-1
 200 419 l 1,0,-1
EndSplineSet
Validated: 1
EndChar

StartChar: U
Encoding: 85 85 57
Width: 523
GlyphClass: 2
Flags: W
LayerCount: 2
Fore
SplineSet
67 466 m 2,0,1
 67 477 67 477 69.5 484 c 128,-1,2
 72 491 72 491 74.5 493.5 c 128,-1,3
 77 496 77 496 85 504 c 0,4,5
 99 517 99 517 129 517 c 0,6,7
 152 517 152 517 180 489 c 0,8,9
 197 473 197 473 197 440 c 1,10,-1
 188 177 l 1,11,12
 188 134 188 134 224 105 c 0,13,14
 256 79 256 79 300 79 c 0,15,16
 339 79 339 79 368 102 c 1,17,18
 398 128 398 128 398 172 c 1,19,-1
 387 435 l 1,20,21
 387 471 387 471 407 490 c 0,22,23
 434 517 434 517 460 517 c 0,24,25
 492 517 492 517 503 507 c 0,26,27
 510 501 510 501 511.5 499.5 c 128,-1,28
 513 498 513 498 516.5 493.5 c 128,-1,29
 520 489 520 489 520.5 484 c 128,-1,30
 521 479 521 479 521 472 c 2,31,-1
 521 192 l 2,32,33
 521 100 521 100 450 46 c 1,34,35
 386 -5 386 -5 294 -5 c 0,36,37
 201 -5 201 -5 138 49 c 1,38,39
 67 108 67 108 67 215 c 2,40,-1
 67 466 l 2,0,1
EndSplineSet
Validated: 1
EndChar

StartChar: V
Encoding: 86 86 58
Width: 529
GlyphClass: 2
Flags: W
LayerCount: 2
Fore
SplineSet
311 197 m 1,0,-1
 388 464 l 1,1,2
 413 532 413 532 456 532 c 0,3,4
 492 532 492 532 510 517 c 128,-1,5
 528 502 528 502 528 478 c 0,6,7
 528 463 528 463 523 452 c 2,8,-1
 359 57 l 2,9,10
 335 1 335 1 297 1 c 0,11,12
 258 1 258 1 236 57 c 1,13,-1
 74 446 l 2,14,15
 67 461 67 461 67 478 c 0,16,17
 67 502 67 502 83 517 c 0,18,19
 100 532 100 532 133 532 c 0,20,21
 173 532 173 532 200 464 c 1,22,-1
 289 184 l 1,23,-1
 290 184 l 2,24,25
 296 184 296 184 311 197 c 1,0,-1
EndSplineSet
Validated: 1
EndChar

StartChar: W
Encoding: 87 87 59
Width: 751
GlyphClass: 2
Flags: W
LayerCount: 2
Fore
SplineSet
68 466 m 2,0,1
 67 470 67 470 67 479 c 0,2,3
 67 502 67 502 86 518 c 0,4,5
 105 535 105 535 142 535 c 0,6,7
 191 535 191 535 205 476 c 1,8,-1
 248 196 l 1,9,10
 256 190 256 190 261 190 c 2,11,-1
 263 190 l 1,12,-1
 337 447 l 1,13,14
 366 534 366 534 412 534 c 0,15,16
 460 534 460 534 489 441 c 1,17,-1
 556 194 l 1,18,19
 558 193 558 193 563 193 c 0,20,21
 566 193 566 193 571 196 c 1,22,-1
 612 476 l 1,23,24
 625 534 625 534 679 534 c 0,25,26
 719 534 719 534 736 520 c 128,-1,27
 753 506 753 506 753 480 c 0,28,29
 753 470 753 470 751 465 c 2,30,-1
 654 63 l 1,31,32
 645 34 645 34 624 18 c 0,33,34
 602 2 602 2 575 2 c 0,35,36
 517 2 517 2 501 52 c 1,37,-1
 412 311 l 1,38,-1
 331 63 l 1,39,40
 320 33 320 33 299 17 c 0,41,42
 279 1 279 1 251 1 c 0,43,44
 224 1 224 1 204 17 c 1,45,46
 182 33 182 33 174 63 c 2,47,-1
 68 466 l 2,0,1
EndSplineSet
Validated: 1
EndChar

StartChar: X
Encoding: 88 88 60
Width: 534
GlyphClass: 2
Flags: W
LayerCount: 2
Fore
SplineSet
207 485 m 1,0,-1
 294 370 l 1,1,-1
 381 485 l 1,2,3
 388 497 388 497 402 514.5 c 128,-1,4
 416 532 416 532 429 532 c 0,5,6
 467 532 467 532 487 515 c 0,7,8
 507 497 507 497 507 473 c 0,9,10
 507 451 507 451 489 427 c 1,11,-1
 372 288 l 1,12,-1
 521 92 l 2,13,14
 532 78 532 78 532 60 c 0,15,16
 532 35 532 35 512 18 c 0,17,18
 492 0 492 0 467 0 c 0,19,20
 451 0 451 0 423 38 c 2,21,-1
 298 203 l 1,22,-1
 178 48 l 1,23,24
 142 -1 142 -1 120 -1 c 0,25,26
 97 -1 97 -1 82 15 c 0,27,28
 67 30 67 30 67 54 c 0,29,30
 67 85 67 85 92 119 c 2,31,-1
 218 291 l 1,32,-1
 106 421 l 1,33,34
 86 448 86 448 86 474 c 256,35,36
 86 500 86 500 104 516 c 1,37,38
 125 532 125 532 160 532 c 0,39,40
 173 532 173 532 186.5 514.5 c 128,-1,41
 200 497 200 497 207 485 c 1,0,-1
EndSplineSet
Validated: 1
EndChar

StartChar: Y
Encoding: 89 89 61
Width: 487
GlyphClass: 2
Flags: W
LayerCount: 2
Fore
SplineSet
181 485 m 2,0,-1
 275 352 l 1,1,-1
 362 481 l 2,2,3
 374 499 374 499 380 507 c 128,-1,4
 386 515 386 515 398 525 c 128,-1,5
 410 535 410 535 421 535 c 0,6,7
 448 535 448 535 467 517 c 0,8,9
 484 500 484 500 484 474 c 0,10,11
 484 456 484 456 472 441 c 2,12,-1
 332 247 l 1,13,-1
 332 51 l 2,14,15
 332 27 332 27 316 14 c 1,16,17
 298 1 298 1 277 1 c 0,18,19
 252 1 252 1 235 16 c 1,20,21
 216 31 216 31 216 57 c 2,22,-1
 216 247 l 1,23,-1
 77 438 l 2,24,25
 67 452 67 452 67 470 c 0,26,27
 67 495 67 495 86 513 c 0,28,29
 105 532 105 532 130 532 c 0,30,31
 136 532 136 532 142 529 c 128,-1,32
 148 526 148 526 153 521 c 128,-1,33
 158 516 158 516 163 510 c 128,-1,34
 168 504 168 504 172.5 497.5 c 128,-1,35
 177 491 177 491 181 485 c 2,0,-1
EndSplineSet
Validated: 1
EndChar

StartChar: Z
Encoding: 90 90 62
Width: 474
GlyphClass: 2
Flags: W
LayerCount: 2
Fore
SplineSet
342 424 m 1,0,-1
 156 409 l 1,1,2
 140 409 140 409 119.5 413.5 c 128,-1,3
 99 418 99 418 92 426 c 0,4,5
 84 436 84 436 75.5 453.5 c 128,-1,6
 67 471 67 471 67 482 c 0,7,8
 67 505 67 505 80 519 c 1,9,10
 94 536 94 536 117 536 c 2,11,-1
 374 536 l 2,12,13
 407 536 407 536 431 517 c 1,14,15
 453 498 453 498 453 470 c 0,16,17
 453 450 453 450 439 431 c 2,18,-1
 214 113 l 1,19,-1
 408 126 l 1,20,21
 440 126 440 126 456 108 c 1,22,23
 472 93 472 93 472 57 c 0,24,25
 472 36 472 36 457 20 c 128,-1,26
 442 4 442 4 414 4 c 2,27,-1
 117 4 l 2,28,29
 107 4 107 4 103 5.5 c 128,-1,30
 99 7 99 7 95 13 c 128,-1,31
 91 19 91 19 87 23 c 0,32,33
 82 28 82 28 81.5 34 c 128,-1,34
 81 40 81 40 83 49 c 128,-1,35
 85 58 85 58 85 63 c 1,36,37
 82 77 82 77 115 119 c 1,38,-1
 342 424 l 1,0,-1
EndSplineSet
Validated: 33
EndChar

StartChar: bracketleft
Encoding: 91 91 63
Width: 272
GlyphClass: 2
Flags: W
LayerCount: 2
Fore
SplineSet
96 -29 m 2,0,1
 77 -29 77 -29 65 -11 c 0,2,3
 55 3 55 3 55 24 c 2,4,-1
 55 594 l 2,5,6
 55 641 55 641 96 641 c 2,7,-1
 208 641 l 2,8,9
 229 641 229 641 242 628 c 1,10,11
 254 614 254 614 254 597 c 0,12,13
 254 579 254 579 242 567 c 0,14,15
 231 556 231 556 207 554 c 1,16,-1
 154 554 l 1,17,-1
 154 58 l 1,18,-1
 209 58 l 2,19,20
 224 58 224 58 233 45 c 1,21,22
 242 30 242 30 242 12 c 0,23,24
 242 -29 242 -29 211 -29 c 2,25,-1
 96 -29 l 2,0,1
EndSplineSet
Validated: 1
EndChar

StartChar: backslash
Encoding: 92 92 64
Width: 402
GlyphClass: 2
Flags: W
LayerCount: 2
Fore
SplineSet
163 553 m 2,0,-1
 395 98 l 1,1,2
 405 82 405 82 405 66 c 0,3,4
 405 48 405 48 393 36 c 0,5,6
 383 25 383 25 366 25 c 0,7,8
 338 25 338 25 320 57 c 1,9,-1
 76 530 l 2,10,11
 71 540 71 540 71 549 c 0,12,13
 71 564 71 564 84 579 c 0,14,15
 96 593 96 593 114 593 c 0,16,17
 142 593 142 593 163 553 c 2,0,-1
EndSplineSet
Validated: 1
EndChar

StartChar: bracketright
Encoding: 93 93 65
Width: 260
GlyphClass: 2
Flags: W
LayerCount: 2
Fore
SplineSet
201 -29 m 2,0,-1
 86 -29 l 2,1,2
 67 -29 67 -29 54 -16 c 1,3,4
 43 -2 43 -2 43 14 c 0,5,6
 43 33 43 33 55 45 c 1,7,8
 65 58 65 58 88 58 c 2,9,-1
 143 58 l 1,10,-1
 143 554 l 1,11,-1
 79 554 l 1,12,13
 63 555 63 555 53 568 c 128,-1,14
 43 581 43 581 43 598 c 128,-1,15
 43 615 43 615 53 628 c 128,-1,16
 63 641 63 641 79 641 c 2,17,-1
 201 641 l 2,18,19
 242 641 242 641 242 594 c 2,20,-1
 242 24 l 2,21,22
 242 3 242 3 232 -11 c 0,23,24
 220 -29 220 -29 201 -29 c 2,0,-1
EndSplineSet
Validated: 1
EndChar

StartChar: asciicircum
Encoding: 94 94 66
Width: 375
GlyphClass: 2
Flags: W
LayerCount: 2
Fore
SplineSet
243 685 m 2,0,-1
 361 464 l 2,1,2
 366 454 366 454 366 444 c 0,3,4
 366 425 366 425 354 413 c 1,5,6
 342 399 342 399 326 399 c 0,7,8
 298 399 298 399 277 440 c 2,9,-1
 191 609 l 1,10,-1
 97 434 l 1,11,12
 73 392 73 392 47 392 c 0,13,14
 33 392 33 392 23 405 c 0,15,16
 12 419 12 419 12 434 c 0,17,18
 12 442 12 442 16 449 c 2,19,-1
 143 696 l 2,20,21
 160 728 160 728 186 728 c 0,22,23
 220 728 220 728 243 685 c 2,0,-1
EndSplineSet
Validated: 1
EndChar

StartChar: underscore
Encoding: 95 95 67
Width: 563
GlyphClass: 2
Flags: W
LayerCount: 2
Fore
SplineSet
61 -98 m 1,0,-1
 562 -98 l 1,1,-1
 562 -114 l 1,2,-1
 61 -114 l 1,3,-1
 61 -98 l 1,0,-1
EndSplineSet
Validated: 1
EndChar

StartChar: grave
Encoding: 96 96 68
Width: 211
GlyphClass: 2
Flags: W
LayerCount: 2
Fore
SplineSet
220 675 m 2,0,-1
 141 517 l 2,1,2
 127 491 127 491 99 491 c 0,3,4
 75 491 75 491 58 507 c 0,5,6
 40 524 40 524 40 546 c 0,7,8
 40 563 40 563 48 576 c 2,9,-1
 117 703 l 2,10,11
 134 733 134 733 168 733 c 0,12,13
 191 733 191 733 207 720 c 1,14,15
 225 708 225 708 225 691 c 0,16,17
 225 685 225 685 220 675 c 2,0,-1
EndSplineSet
Validated: 1
EndChar

StartChar: a
Encoding: 97 97 69
Width: 340
GlyphClass: 2
Flags: W
LayerCount: 2
Fore
SplineSet
225 279 m 2,0,-1
 317 41 l 1,1,2
 319 31 319 31 319 28 c 0,3,4
 319 16 319 16 310 8 c 0,5,6
 302 1 302 1 280 1 c 0,7,8
 256 1 256 1 246 22 c 0,9,10
 244 26 244 26 234.5 61 c 128,-1,11
 225 96 225 96 221 106 c 1,12,-1
 131 106 l 1,13,14
 113 27 113 27 112 23 c 0,15,16
 103 0 103 0 79 0 c 0,17,18
 56 0 56 0 46 8 c 0,19,20
 36 15 36 15 36 28 c 0,21,22
 36 31 36 31 38 39 c 2,23,-1
 123 279 l 2,24,25
 138 320 138 320 173 320 c 0,26,27
 209 320 209 320 225 279 c 2,0,-1
137 132 m 1,28,-1
 214 132 l 1,29,-1
 176 237 l 1,30,-1
 137 132 l 1,28,-1
EndSplineSet
Validated: 1
EndChar

StartChar: b
Encoding: 98 98 70
Width: 293
GlyphClass: 2
Flags: W
LayerCount: 2
Fore
SplineSet
36 285 m 2,0,1
 36 295 36 295 44 308 c 1,2,3
 53 320 53 320 64 320 c 2,4,-1
 173 320 l 2,5,6
 203 320 203 320 224 294 c 1,7,8
 246 269 246 269 246 238 c 0,9,10
 246 199 246 199 210 178 c 1,11,12
 241 174 241 174 257 150 c 0,13,14
 272 129 272 129 272 99 c 0,15,16
 272 61 272 61 250 32 c 0,17,18
 226 0 226 0 190 0 c 2,19,-1
 64 0 l 2,20,21
 54 0 54 0 44 7 c 1,22,23
 36 15 36 15 36 25 c 2,24,-1
 36 285 l 2,0,1
162 141 m 2,25,-1
 109 141 l 1,26,-1
 109 64 l 1,27,-1
 162 64 l 2,28,29
 188 64 188 64 198 74 c 128,-1,30
 208 84 208 84 208 96 c 0,31,32
 208 122 208 122 198 132 c 0,33,34
 188 141 188 141 162 141 c 2,25,-1
152 250 m 2,35,-1
 109 250 l 1,36,-1
 109 183 l 1,37,-1
 162 183 l 2,38,39
 180 183 180 183 180 210 c 0,40,41
 180 232 180 232 174 241 c 1,42,43
 170 250 170 250 152 250 c 2,35,-1
EndSplineSet
Validated: 1
EndChar

StartChar: c
Encoding: 99 99 71
Width: 322
GlyphClass: 2
Flags: W
LayerCount: 2
Fore
SplineSet
171 61 m 0,0,1
 193 61 193 61 208 64 c 1,2,-1
 226 72 l 1,3,4
 247 79 247 79 253 79 c 0,5,6
 283 79 283 79 289 73 c 0,7,8
 301 61 301 61 301 43 c 0,9,10
 301 26 301 26 281 17 c 0,11,12
 256 7 256 7 234 1 c 1,13,14
 215 -3 215 -3 183 -3 c 0,15,16
 112 -3 112 -3 72 46 c 0,17,18
 36 91 36 91 36 155 c 0,19,20
 36 222 36 222 74 269 c 0,21,22
 111 315 111 315 185 315 c 0,23,24
 218 315 218 315 234 312 c 1,25,26
 259 305 259 305 277 297 c 1,27,28
 297 286 297 286 297 260 c 0,29,30
 297 243 297 243 290 236 c 128,-1,31
 283 229 283 229 263 229 c 0,32,33
 260 229 260 229 248 235 c 0,34,35
 247 235 247 235 236 239 c 128,-1,36
 225 243 225 243 212 247 c 0,37,38
 185 255 185 255 168 254 c 1,39,40
 134 254 134 254 113 224 c 0,41,42
 94 198 94 198 94 155 c 0,43,44
 94 116 94 116 113 90 c 0,45,46
 133 61 133 61 171 61 c 0,0,1
EndSplineSet
Validated: 33
EndChar

StartChar: d
Encoding: 100 100 72
Width: 323
GlyphClass: 2
Flags: W
LayerCount: 2
Fore
SplineSet
36 286 m 2,0,1
 36 296 36 296 44 309 c 1,2,3
 53 321 53 321 64 321 c 2,4,-1
 162 321 l 2,5,6
 228 321 228 321 266 270 c 1,7,8
 301 225 301 225 301 158 c 0,9,10
 301 94 301 94 268 50 c 0,11,12
 232 2 232 2 169 2 c 2,13,-1
 71 2 l 2,14,15
 57 2 57 2 47 9 c 0,16,17
 36 17 36 17 36 29 c 2,18,-1
 36 286 l 2,0,1
182 255 m 2,19,-1
 113 255 l 1,20,-1
 113 67 l 1,21,-1
 159 67 l 2,22,23
 178 67 178 67 199 75 c 128,-1,24
 220 83 220 83 229 97 c 0,25,26
 245 123 245 123 245 163 c 0,27,28
 245 201 245 201 231 223 c 1,29,30
 224 236 224 236 209.5 245.5 c 128,-1,31
 195 255 195 255 182 255 c 2,19,-1
EndSplineSet
Validated: 1
EndChar

StartChar: e
Encoding: 101 101 73
Width: 239
GlyphClass: 2
Flags: W
LayerCount: 2
Fore
SplineSet
36 290 m 2,0,1
 36 303 36 303 45 312 c 128,-1,2
 54 321 54 321 67 321 c 2,3,-1
 183 321 l 2,4,5
 199 321 199 321 208 309 c 0,6,7
 216 298 216 298 216 283 c 0,8,9
 216 266 216 266 210 258 c 0,10,11
 203 248 203 248 189 248 c 2,12,-1
 93 251 l 1,13,-1
 93 190 l 1,14,-1
 183 194 l 2,15,16
 195 194 195 194 203 183 c 0,17,18
 210 173 210 173 210 156 c 0,19,20
 210 140 210 140 204 131 c 0,21,22
 198 121 198 121 186 121 c 2,23,-1
 93 124 l 1,24,-1
 93 68 l 1,25,-1
 183 72 l 2,26,27
 200 72 200 72 209 61 c 1,28,29
 218 52 218 52 218 33 c 0,30,31
 218 22 218 22 211 11 c 1,32,33
 204 2 204 2 193 2 c 2,34,-1
 60 2 l 2,35,36
 54 2 54 2 44 10 c 1,37,38
 36 18 36 18 36 26 c 2,39,-1
 36 290 l 2,0,1
EndSplineSet
Validated: 1
EndChar

StartChar: f
Encoding: 102 102 74
Width: 240
GlyphClass: 2
Flags: W
LayerCount: 2
Fore
SplineSet
36 35 m 2,0,-1
 36 288 l 2,1,2
 36 319 36 319 63 319 c 2,3,-1
 186 319 l 2,4,5
 201 319 201 319 210 309 c 1,6,7
 219 297 219 297 219 283 c 0,8,9
 219 267 219 267 213 258 c 0,10,11
 206 249 206 249 194 249 c 2,12,-1
 96 253 l 1,13,-1
 96 202 l 1,14,-1
 182 205 l 2,15,16
 195 205 195 205 204 195 c 0,17,18
 211 187 211 187 211 168 c 0,19,20
 211 154 211 154 204 146 c 1,21,22
 197 136 197 136 182 136 c 2,23,-1
 96 136 l 1,24,-1
 96 35 l 2,25,26
 96 20 96 20 86 10 c 0,27,28
 76 1 76 1 61 1 c 0,29,30
 56 1 56 1 46 10 c 128,-1,31
 36 19 36 19 36 35 c 2,0,-1
EndSplineSet
Validated: 1
EndChar

StartChar: g
Encoding: 103 103 75
Width: 357
GlyphClass: 2
Flags: W
LayerCount: 2
Fore
SplineSet
192 314 m 0,0,1
 266 314 266 314 305 269 c 0,2,3
 307 266 307 266 313.5 260 c 128,-1,4
 320 254 320 254 323 249 c 128,-1,5
 326 244 326 244 326 240 c 0,6,7
 326 232 326 232 309 215 c 0,8,9
 300 206 300 206 283 206 c 0,10,11
 278 206 278 206 265 216.5 c 128,-1,12
 252 227 252 227 250 228 c 0,13,14
 247 230 247 230 237 237 c 128,-1,15
 227 244 227 244 218 246.5 c 128,-1,16
 209 249 209 249 195 249 c 0,17,18
 171 249 171 249 145.5 233 c 128,-1,19
 120 217 120 217 109 194 c 0,20,21
 90 151 90 151 106 114 c 0,22,23
 115 91 115 91 141.5 73 c 128,-1,24
 168 55 168 55 194 55 c 0,25,26
 228 55 228 55 253.5 75.5 c 128,-1,27
 279 96 279 96 279 124 c 1,28,-1
 205 114 l 1,29,30
 192 114 192 114 185 124 c 1,31,32
 178 132 178 132 178 140 c 0,33,34
 178 161 178 161 185 169 c 1,35,36
 191 178 191 178 205 178 c 2,37,-1
 307 175 l 2,38,39
 335 175 335 175 335 141 c 0,40,41
 335 69 335 69 301 35 c 128,-1,42
 267 1 267 1 196 1 c 0,43,44
 117 1 117 1 73 50 c 0,45,46
 36 91 36 91 36 154 c 0,47,48
 36 213 36 213 82 266 c 1,49,50
 122 314 122 314 192 314 c 0,0,1
EndSplineSet
Validated: 33
EndChar

StartChar: h
Encoding: 104 104 76
Width: 333
GlyphClass: 2
Flags: W
LayerCount: 2
Fore
SplineSet
36 285 m 2,0,1
 36 301 36 301 47 312 c 1,2,3
 58 320 58 320 72 320 c 0,4,5
 89 320 89 320 100 312 c 1,6,7
 110 303 110 303 110 288 c 2,8,-1
 106 197 l 1,9,-1
 243 197 l 1,10,-1
 238 285 l 2,11,12
 238 301 238 301 248 310 c 0,13,14
 257 319 257 319 276 319 c 0,15,16
 290 319 290 319 301 310 c 1,17,18
 312 297 312 297 312 279 c 2,19,-1
 312 38 l 2,20,21
 312 20 312 20 302 10 c 0,22,23
 292 1 292 1 277 1 c 0,24,25
 258 1 258 1 248 10 c 128,-1,26
 238 19 238 19 238 34 c 2,27,-1
 243 144 l 1,28,-1
 106 144 l 1,29,-1
 110 34 l 2,30,31
 110 18 110 18 100 9 c 128,-1,32
 90 0 90 0 70 0 c 0,33,34
 56 0 56 0 46 9 c 256,35,36
 36 18 36 18 36 34 c 2,37,-1
 36 285 l 2,0,1
EndSplineSet
Validated: 1
EndChar

StartChar: i
Encoding: 105 105 77
Width: 133
GlyphClass: 2
Flags: W
LayerCount: 2
Fore
SplineSet
38 38 m 2,0,-1
 36 282 l 2,1,2
 36 299 36 299 47 310 c 1,3,4
 58 319 58 319 75 319 c 128,-1,5
 92 319 92 319 101 310 c 0,6,7
 111 301 111 301 111 285 c 2,8,-1
 108 38 l 2,9,10
 108 20 108 20 98 11 c 0,11,12
 88 1 88 1 74 1 c 0,13,14
 59 1 59 1 49 11 c 1,15,16
 38 20 38 20 38 38 c 2,0,-1
EndSplineSet
Validated: 1
EndChar

StartChar: j
Encoding: 106 106 78
Width: 230
GlyphClass: 2
Flags: W
LayerCount: 2
Fore
SplineSet
208 289 m 2,0,-1
 208 95 l 2,1,2
 208 49 208 49 183 24 c 0,3,4
 161 2 161 2 126 2 c 128,-1,5
 91 2 91 2 61 23 c 0,6,7
 36 40 36 40 36 62 c 0,8,9
 36 70 36 70 48 84 c 0,10,11
 56 92 56 92 68 92 c 0,12,13
 69 92 69 92 88 84 c 1,14,15
 90 82 90 82 106 72 c 0,16,17
 119 64 119 64 125 64 c 0,18,19
 141 64 141 64 141 103 c 2,20,-1
 138 283 l 2,21,22
 138 300 138 300 149 311 c 1,23,24
 166 324 166 324 172 324 c 0,25,26
 189 324 189 324 197 317 c 0,27,28
 208 306 208 306 208 289 c 2,0,-1
EndSplineSet
Validated: 1
EndChar

StartChar: k
Encoding: 107 107 79
Width: 320
GlyphClass: 2
Flags: W
LayerCount: 2
Fore
SplineSet
36 288 m 2,0,1
 36 304 36 304 46 313 c 128,-1,2
 56 322 56 322 71 322 c 0,3,4
 88 322 88 322 98 313 c 128,-1,5
 108 304 108 304 108 280 c 2,6,-1
 105 191 l 1,7,-1
 214 300 l 2,8,9
 227 313 227 313 244 313 c 0,10,11
 263 313 263 313 268 309 c 0,12,13
 282 295 282 295 282 281 c 0,14,15
 282 264 282 264 266 251 c 1,16,-1
 186 176 l 1,17,-1
 278 74 l 2,18,19
 298 52 298 52 298 41 c 0,20,21
 298 22 298 22 286 13 c 1,22,23
 275 3 275 3 259 3 c 0,24,25
 240 3 240 3 228 17 c 2,26,-1
 109 148 l 1,27,-1
 112 37 l 2,28,29
 112 21 112 21 101 12 c 128,-1,30
 90 3 90 3 72 3 c 0,31,32
 58 3 58 3 47 12 c 0,33,34
 36 20 36 20 36 37 c 2,35,-1
 36 288 l 2,0,1
EndSplineSet
Validated: 1
EndChar

StartChar: l
Encoding: 108 108 80
Width: 244
GlyphClass: 2
Flags: W
LayerCount: 2
Fore
SplineSet
36 285 m 2,0,1
 36 301 36 301 47 312 c 1,2,3
 58 321 58 321 73 321 c 0,4,5
 84 321 84 321 97 311 c 1,6,7
 108 300 108 300 108 285 c 2,8,-1
 103 70 l 1,9,-1
 193 75 l 2,10,11
 207 75 207 75 215 64 c 128,-1,12
 223 53 223 53 223 35 c 0,13,14
 223 22 223 22 215 11 c 0,15,16
 208 2 208 2 193 2 c 2,17,-1
 67 2 l 2,18,19
 55 2 55 2 46 10 c 0,20,21
 36 19 36 19 36 29 c 2,22,-1
 36 285 l 2,0,1
EndSplineSet
Validated: 1
EndChar

StartChar: m
Encoding: 109 109 81
Width: 430
GlyphClass: 2
Flags: W
LayerCount: 2
Fore
SplineSet
172 280 m 2,0,-1
 221 136 l 1,1,-1
 273 280 l 2,2,3
 280 297 280 297 293 308 c 1,4,5
 308 318 308 318 322 318 c 0,6,7
 338 318 338 318 351 307 c 0,8,9
 365 295 365 295 368 273 c 2,10,-1
 408 38 l 1,11,-1
 408 30 l 2,12,13
 408 16 408 16 399 7 c 128,-1,14
 390 -2 390 -2 368 -2 c 0,15,16
 356 -2 356 -2 345 7 c 0,17,18
 339 12 339 12 331 56 c 1,19,-1
 313 203 l 1,20,21
 310 203 310 203 308 202 c 1,22,-1
 263 56 l 2,23,24
 245 -1 245 -1 225 -1 c 0,25,26
 204 -1 204 -1 186 56 c 1,27,-1
 138 193 l 1,28,-1
 136 196 l 1,29,30
 134 196 134 196 130 194 c 1,31,-1
 121 67 l 1,32,33
 117 40 117 40 107 19 c 128,-1,34
 97 -2 97 -2 82 -2 c 0,35,36
 57 -2 57 -2 47 8 c 0,37,38
 36 18 36 18 36 33 c 2,39,-1
 36 38 l 1,40,-1
 77 273 l 2,41,42
 80 294 80 294 95 306 c 1,43,44
 108 318 108 318 125 318 c 0,45,46
 160 318 160 318 172 280 c 2,0,-1
EndSplineSet
Validated: 1
EndChar

StartChar: n
Encoding: 110 110 82
Width: 333
GlyphClass: 2
Flags: W
LayerCount: 2
Fore
SplineSet
36 283 m 2,0,1
 36 318 36 318 63 318 c 0,2,3
 79 318 79 318 107 283 c 1,4,-1
 245 122 l 1,5,-1
 238 276 l 1,6,7
 238 302 238 302 247 310 c 1,8,9
 257 317 257 317 271 317 c 0,10,11
 293 317 293 317 302 309 c 1,12,13
 312 302 312 302 312 286 c 2,14,-1
 312 29 l 2,15,16
 312 -1 312 -1 286 -1 c 0,17,18
 269 -1 269 -1 243 32 c 2,19,-1
 106 202 l 1,20,-1
 114 43 l 1,21,22
 114 16 114 16 103 8 c 0,23,24
 92 -1 92 -1 79 -1 c 0,25,26
 56 -1 56 -1 46 8 c 128,-1,27
 36 17 36 17 36 32 c 2,28,-1
 36 283 l 2,0,1
EndSplineSet
Validated: 1
EndChar

StartChar: o
Encoding: 111 111 83
Width: 340
GlyphClass: 2
Flags: W
LayerCount: 2
Fore
SplineSet
182 330 m 0,0,1
 245 330 245 330 284 277 c 1,2,3
 319 227 319 227 319 160 c 0,4,5
 319 94 319 94 285 51 c 0,6,7
 246 1 246 1 178 1 c 0,8,9
 112 1 112 1 71 53 c 0,10,11
 36 99 36 99 36 165 c 0,12,13
 36 232 36 232 72 279 c 0,14,15
 112 330 112 330 182 330 c 0,0,1
178 271 m 0,16,17
 151 271 151 271 139 245 c 0,18,19
 125 217 125 217 125 169 c 0,20,21
 125 117 125 117 139 89 c 0,22,23
 151 63 151 63 179 63 c 0,24,25
 203 63 203 63 215 91 c 0,26,27
 230 125 230 125 230 173 c 0,28,29
 230 218 230 218 215 246 c 1,30,31
 203 271 203 271 178 271 c 0,16,17
EndSplineSet
Validated: 1
EndChar

StartChar: p
Encoding: 112 112 84
Width: 290
GlyphClass: 2
Flags: W
LayerCount: 2
Fore
SplineSet
36 290 m 2,0,1
 36 302 36 302 45 309 c 1,2,3
 54 318 54 318 64 318 c 2,4,-1
 162 318 l 2,5,6
 214 318 214 318 243 285 c 0,7,8
 269 254 269 254 269 211 c 128,-1,9
 269 168 269 168 244 135 c 0,10,11
 219 101 219 101 176 101 c 2,12,-1
 109 101 l 1,13,-1
 109 35 l 2,14,15
 109 18 109 18 98 8 c 0,16,17
 88 -1 88 -1 73 -1 c 0,18,19
 57 -1 57 -1 47 9 c 1,20,21
 36 18 36 18 36 36 c 2,22,-1
 36 290 l 2,0,1
156 252 m 2,23,-1
 111 252 l 1,24,-1
 111 162 l 1,25,-1
 156 162 l 2,26,27
 193 162 193 162 205 175 c 0,28,29
 215 185 215 185 215 209 c 0,30,31
 215 225 215 225 204 239 c 0,32,33
 194 252 194 252 156 252 c 2,23,-1
EndSplineSet
Validated: 1
EndChar

StartChar: q
Encoding: 113 113 85
Width: 340
GlyphClass: 2
Flags: W
LayerCount: 2
Fore
SplineSet
310 51 m 2,0,1
 316 39 316 39 316 29 c 0,2,3
 316 16 316 16 307 7 c 1,4,5
 297 -1 297 -1 285 -1 c 0,6,7
 266 -1 266 -1 256 18 c 1,8,-1
 254 23 l 1,9,10
 222 3 222 3 178 3 c 0,11,12
 112 3 112 3 71 54 c 1,13,14
 36 100 36 100 36 166 c 0,15,16
 36 234 36 234 72 280 c 0,17,18
 113 332 113 332 182 332 c 0,19,20
 245 332 245 332 284 278 c 0,21,22
 319 228 319 228 319 161 c 0,23,24
 319 110 319 110 298 72 c 1,25,-1
 310 51 l 2,0,1
177 273 m 0,26,27
 146 273 146 273 129 247 c 1,28,29
 114 220 114 220 114 170 c 0,30,31
 114 116 114 116 129 89 c 1,32,33
 146 62 146 62 178 62 c 0,34,35
 206 62 206 62 221 89 c 1,36,-1
 211 109 l 1,37,38
 207 114 207 114 207 122 c 0,39,40
 207 134 207 134 216 141 c 1,41,42
 224 149 224 149 237 149 c 2,43,-1
 238 149 l 1,44,45
 240 167 240 167 240 173 c 0,46,47
 240 218 240 218 222 248 c 0,48,49
 207 273 207 273 177 273 c 0,26,27
EndSplineSet
Validated: 1
EndChar

StartChar: r
Encoding: 114 114 86
Width: 297
GlyphClass: 2
Flags: W
LayerCount: 2
Fore
SplineSet
36 296 m 2,0,1
 36 306 36 306 44 315 c 128,-1,2
 52 324 52 324 60 324 c 2,3,-1
 179 324 l 2,4,5
 215 324 215 324 241 295 c 0,6,7
 266 267 266 267 266 229 c 0,8,9
 266 201 266 201 250 179 c 1,10,11
 230 155 230 155 193 143 c 1,12,-1
 265 71 l 1,13,14
 276 57 276 57 276 42 c 0,15,16
 276 28 276 28 266 18 c 0,17,18
 247 -1 247 -1 241 -1 c 0,19,20
 220 -1 220 -1 204 20 c 2,21,-1
 109 136 l 1,22,-1
 109 41 l 2,23,24
 109 22 109 22 97 11 c 0,25,26
 86 0 86 0 71 0 c 0,27,28
 57 0 57 0 46 11 c 0,29,30
 36 21 36 21 36 41 c 2,31,-1
 36 296 l 2,0,1
109 262 m 1,32,-1
 109 189 l 1,33,-1
 162 189 l 2,34,35
 186 189 186 189 193 199 c 0,36,37
 202 212 202 212 202 228 c 0,38,39
 202 238 202 238 193 251 c 1,40,41
 184 262 184 262 162 262 c 2,42,-1
 109 262 l 1,32,-1
EndSplineSet
Validated: 1
EndChar

StartChar: s
Encoding: 115 115 87
Width: 296
GlyphClass: 2
Flags: W
LayerCount: 2
Fore
SplineSet
42 204 m 0,0,1
 32 229 32 229 40.5 252 c 128,-1,2
 49 275 49 275 70 290 c 1,3,4
 102 315 102 315 158 315 c 0,5,6
 199 315 199 315 237 302 c 0,7,8
 254 296 254 296 263 284 c 1,9,10
 273 273 273 273 273 255 c 0,11,12
 273 244 273 244 263 232 c 1,13,14
 252 223 252 223 234 223 c 0,15,16
 218 223 218 223 201 230 c 0,17,18
 168 243 168 243 151 243 c 0,19,20
 132 243 132 243 126.5 236 c 128,-1,21
 121 229 121 229 121 211 c 0,22,23
 121 199 121 199 177 175 c 1,24,25
 205 168 205 168 232.5 154.5 c 128,-1,26
 260 141 260 141 271 116 c 0,27,28
 281 92 281 92 270.5 67 c 128,-1,29
 260 42 260 42 239 26 c 0,30,31
 206 2 206 2 151 2 c 0,32,33
 110 2 110 2 72 15 c 0,34,35
 55 21 55 21 46 33 c 1,36,37
 36 44 36 44 36 63 c 0,38,39
 36 77 36 77 46 86 c 128,-1,40
 56 95 56 95 74 95 c 0,41,42
 91 95 91 95 108 88 c 0,43,44
 113 86 113 86 124 81.5 c 128,-1,45
 135 77 135 77 143 75 c 128,-1,46
 151 73 151 73 158 73 c 0,47,48
 198 73 198 73 198 105 c 0,49,50
 198 114 198 114 182 120 c 128,-1,51
 166 126 166 126 147 132 c 1,52,53
 135 137 135 137 123 141 c 128,-1,54
 111 145 111 145 99 151 c 128,-1,55
 87 157 87 157 76.5 164 c 128,-1,56
 66 171 66 171 57 181 c 128,-1,57
 48 191 48 191 42 204 c 0,0,1
EndSplineSet
Validated: 33
EndChar

StartChar: t
Encoding: 116 116 88
Width: 291
GlyphClass: 2
Flags: W
LayerCount: 2
Fore
SplineSet
116 252 m 1,0,-1
 69 244 l 1,1,2
 53 244 53 244 44 254 c 0,3,4
 36 264 36 264 36 276 c 0,5,6
 36 289 36 289 44 300 c 0,7,8
 52 310 52 310 67 310 c 2,9,-1
 234 310 l 2,10,11
 250 310 250 310 261 299 c 0,12,13
 270 290 270 290 270 276 c 128,-1,14
 270 262 270 262 262 254 c 0,15,16
 252 244 252 244 235 244 c 1,17,-1
 186 252 l 1,18,-1
 186 40 l 2,19,20
 186 20 186 20 176 9 c 0,21,22
 166 -1 166 -1 151 -1 c 128,-1,23
 136 -1 136 -1 126 9 c 128,-1,24
 116 19 116 19 116 38 c 2,25,-1
 116 252 l 1,0,-1
EndSplineSet
Validated: 1
EndChar

StartChar: u
Encoding: 117 117 89
Width: 330
GlyphClass: 2
Flags: W
LayerCount: 2
Fore
SplineSet
36 280 m 2,0,1
 36 290 36 290 47 303 c 0,2,3
 54 310 54 310 73 310 c 0,4,5
 85 310 85 310 104 294 c 1,6,7
 114 284 114 284 114 264 c 2,8,-1
 109 106 l 2,9,10
 109 80 109 80 130 63 c 0,11,12
 151 47 151 47 176 47 c 0,13,14
 200 47 200 47 216 61 c 1,15,16
 235 76 235 76 235 103 c 1,17,-1
 228 261 l 2,18,19
 228 282 228 282 240 294 c 0,20,21
 256 310 256 310 272 310 c 0,22,23
 292 310 292 310 298 304 c 0,24,25
 309 293 309 293 309 283 c 2,26,-1
 309 115 l 2,27,28
 309 61 309 61 266 27 c 0,29,30
 227 -3 227 -3 172 -3 c 0,31,32
 118 -3 118 -3 78 29 c 1,33,34
 36 65 36 65 36 129 c 2,35,-1
 36 280 l 2,0,1
EndSplineSet
Validated: 1
EndChar

StartChar: v
Encoding: 118 118 90
Width: 334
GlyphClass: 2
Flags: W
LayerCount: 2
Fore
SplineSet
182 118 m 1,0,-1
 228 279 l 1,1,2
 246 319 246 319 269 319 c 128,-1,3
 292 319 292 319 302 310 c 0,4,5
 313 301 313 301 313 287 c 0,6,7
 313 278 313 278 310 271 c 2,8,-1
 211 34 l 2,9,10
 197 0 197 0 174 0 c 0,11,12
 152 0 152 0 137 34 c 2,13,-1
 40 268 l 2,14,15
 36 276 36 276 36 287 c 0,16,17
 36 301 36 301 46 310 c 0,18,19
 55 319 55 319 76 319 c 0,20,21
 100 319 100 319 116 279 c 1,22,-1
 169 110 l 1,23,-1
 170 110 l 2,24,25
 174 110 174 110 182 118 c 1,0,-1
EndSplineSet
Validated: 1
EndChar

StartChar: w
Encoding: 119 119 91
Width: 470
GlyphClass: 2
Flags: W
LayerCount: 2
Fore
SplineSet
37 280 m 2,0,1
 36 282 36 282 36 287 c 0,2,3
 36 300 36 300 47 311 c 0,4,5
 58 321 58 321 81 321 c 0,6,7
 110 321 110 321 119 286 c 1,8,-1
 145 118 l 1,9,10
 148 114 148 114 152 114 c 2,11,-1
 154 114 l 1,12,-1
 198 268 l 1,13,14
 216 320 216 320 243 320 c 0,15,16
 272 320 272 320 290 265 c 1,17,-1
 330 117 l 2,18,19
 331 116 331 116 333 116 c 0,20,21
 337 116 337 116 339 117 c 1,22,-1
 363 286 l 1,23,24
 371 321 371 321 403 321 c 0,25,26
 428 321 428 321 438 312 c 0,27,28
 448 302 448 302 448 288 c 0,29,30
 448 286 448 286 447.5 283 c 128,-1,31
 447 280 447 280 447 279 c 2,32,-1
 388 38 l 2,33,34
 384 20 384 20 370 11 c 1,35,36
 357 1 357 1 341 1 c 0,37,38
 306 1 306 1 296 31 c 2,39,-1
 243 187 l 1,40,-1
 195 38 l 2,41,42
 189 21 189 21 175 10 c 0,43,44
 163 1 163 1 146 1 c 0,45,46
 130 1 130 1 118 10 c 0,47,48
 104 21 104 21 100 38 c 2,49,-1
 37 280 l 2,0,1
EndSplineSet
Validated: 1
EndChar

StartChar: x
Encoding: 120 120 92
Width: 337
GlyphClass: 2
Flags: W
LayerCount: 2
Fore
SplineSet
120 291 m 1,0,-1
 172 222 l 1,1,-1
 225 291 l 1,2,3
 229 298 229 298 237 308.5 c 128,-1,4
 245 319 245 319 253 319 c 0,5,6
 278 319 278 319 288 309 c 0,7,8
 300 298 300 298 300 284 c 0,9,10
 300 273 300 273 290 256 c 1,11,-1
 219 173 l 1,12,-1
 309 55 l 2,13,14
 315 46 315 46 315 36 c 0,15,16
 315 22 315 22 303 11 c 0,17,18
 290 0 290 0 276 0 c 0,19,20
 265 0 265 0 250 23 c 1,21,-1
 175 122 l 1,22,-1
 103 29 l 1,23,24
 82 0 82 0 68 0 c 128,-1,25
 54 0 54 0 45 9 c 128,-1,26
 36 18 36 18 36 33 c 0,27,28
 36 52 36 52 51 71 c 2,29,-1
 127 175 l 1,30,-1
 60 253 l 2,31,32
 47 269 47 269 47 285 c 0,33,34
 47 300 47 300 58 309 c 0,35,36
 69 319 69 319 92 319 c 0,37,38
 100 319 100 319 108 308.5 c 128,-1,39
 116 298 116 298 120 291 c 1,0,-1
EndSplineSet
Validated: 1
EndChar

StartChar: y
Encoding: 121 121 93
Width: 308
GlyphClass: 2
Flags: W
LayerCount: 2
Fore
SplineSet
104 291 m 2,0,-1
 161 211 l 1,1,-1
 213 288 l 1,2,3
 233 321 233 321 249 321 c 0,4,5
 263 321 263 321 276 310 c 0,6,7
 286 301 286 301 286 285 c 0,8,9
 286 274 286 274 279 264 c 2,10,-1
 195 148 l 1,11,-1
 195 31 l 2,12,13
 195 16 195 16 186 9 c 0,14,15
 177 1 177 1 162 1 c 0,16,17
 148 1 148 1 137 9 c 0,18,19
 125 18 125 18 125 34 c 2,20,-1
 125 148 l 1,21,-1
 42 263 l 2,22,23
 36 272 36 272 36 282 c 0,24,25
 36 295 36 295 47 308 c 1,26,27
 58 319 58 319 74 319 c 0,28,29
 85 319 85 319 104 291 c 2,0,-1
EndSplineSet
Validated: 1
EndChar

StartChar: z
Encoding: 122 122 94
Width: 301
GlyphClass: 2
Flags: W
LayerCount: 2
Fore
SplineSet
201 255 m 1,0,-1
 89 245 l 1,1,2
 60 245 60 245 51 256 c 0,3,4
 36 274 36 274 36 289 c 0,5,6
 36 301 36 301 44 312 c 1,7,8
 52 321 52 321 66 321 c 2,9,-1
 220 321 l 2,10,11
 243 321 243 321 255 310 c 0,12,13
 268 297 268 297 268 282 c 0,14,15
 268 270 268 270 259 259 c 1,16,-1
 125 68 l 1,17,-1
 241 75 l 1,18,19
 260 75 260 75 270 65 c 0,20,21
 279 56 279 56 279 34 c 0,22,23
 279 21 279 21 270 12 c 0,24,25
 261 2 261 2 244 2 c 2,26,-1
 66 2 l 2,27,28
 60 2 60 2 57.5 3 c 128,-1,29
 55 4 55 4 52.5 8 c 128,-1,30
 50 12 50 12 48 14 c 0,31,32
 45 17 45 17 44.5 20.5 c 128,-1,33
 44 24 44 24 45.5 29.5 c 128,-1,34
 47 35 47 35 47 38 c 0,35,36
 45 44 45 44 65 72 c 2,37,-1
 201 255 l 1,0,-1
EndSplineSet
Validated: 33
EndChar

StartChar: braceleft
Encoding: 123 123 95
Width: 273
GlyphClass: 2
Flags: W
LayerCount: 2
Fore
SplineSet
103 448 m 1,0,-1
 103 450 l 1,1,-1
 103 448 l 1,0,-1
114 341 m 0,2,3
 114 350 114 350 109 390 c 0,4,5
 105 422 105 422 105 445 c 0,6,7
 105 492 105 492 127 514 c 0,8,9
 155 542 155 542 222 538 c 0,10,11
 241 536 241 536 250 527 c 0,12,13
 257 521 257 521 257 498 c 0,14,15
 257 490 257 490 248 486 c 128,-1,16
 239 482 239 482 227 481 c 2,17,-1
 203 479 l 1,18,19
 166 479 166 479 166 435 c 0,20,21
 166 419 166 419 170 391 c 128,-1,22
 174 363 174 363 174 344 c 0,23,24
 174 314 174 314 155.5 294.5 c 128,-1,25
 137 275 137 275 107 270 c 1,26,27
 175 247 175 247 175 185 c 0,28,29
 175 179 175 179 171 139 c 1,30,31
 167 114 167 114 167 98 c 0,32,33
 167 58 167 58 202 55 c 0,34,35
 214 54 214 54 226.5 53 c 128,-1,36
 239 52 239 52 248 48.5 c 128,-1,37
 257 45 257 45 257 38 c 0,38,39
 257 19 257 19 251 13 c 1,40,41
 244 4 244 4 234 3 c 0,42,43
 212 1 212 1 204 1 c 0,44,45
 147 1 147 1 124 29 c 1,46,47
 107 52 107 52 107 95 c 0,48,49
 107 118 107 118 109 136 c 1,50,51
 111 174 111 174 111 177 c 0,52,53
 111 206 111 206 104 221 c 1,54,55
 97 240 97 240 72 242 c 0,56,57
 51 244 51 244 51 265 c 0,58,59
 51 288 51 288 64 292 c 2,60,-1
 97 304 l 2,61,62
 114 310 114 310 114 341 c 0,2,3
EndSplineSet
Validated: 41
EndChar

StartChar: bar
Encoding: 124 124 96
Width: 187
GlyphClass: 2
Flags: W
LayerCount: 2
Fore
SplineSet
116 515 m 0,0,1
 139 515 139 515 159 499.5 c 128,-1,2
 179 484 179 484 179 466 c 0,3,4
 178 368 178 368 179 249 c 128,-1,5
 180 130 180 130 179.5 28 c 128,-1,6
 179 -74 179 -74 176 -77 c 1,7,8
 176 -104 176 -104 159 -121 c 1,9,10
 140 -138 140 -138 118 -138 c 0,11,12
 94 -138 94 -138 78 -122 c 1,13,14
 60 -102 60 -102 60 -71 c 2,15,-1
 59 466 l 2,16,17
 59 484 59 484 76.5 499.5 c 128,-1,18
 94 515 94 515 116 515 c 0,0,1
EndSplineSet
Validated: 33
EndChar

StartChar: braceright
Encoding: 125 125 97
Width: 279
GlyphClass: 2
Flags: W
LayerCount: 2
Fore
SplineSet
211 448 m 1,0,-1
 211 450 l 1,1,-1
 211 448 l 1,0,-1
201 341 m 0,2,3
 201 358 201 358 205 390 c 0,4,5
 210 430 210 430 210 445 c 0,6,7
 210 490 210 490 188 514 c 1,8,9
 160 542 160 542 92 538 c 0,10,11
 75 536 75 536 64 527 c 0,12,13
 57 521 57 521 57 498 c 0,14,15
 57 490 57 490 66 486 c 128,-1,16
 75 482 75 482 87.5 481 c 128,-1,17
 100 480 100 480 112 479 c 1,18,19
 149 479 149 479 149 435 c 0,20,21
 149 419 149 419 145 391 c 0,22,23
 140 356 140 356 140 344 c 0,24,25
 140 314 140 314 158.5 295 c 128,-1,26
 177 276 177 276 207 270 c 1,27,28
 140 248 140 248 140 185 c 0,29,30
 140 166 140 166 144 139 c 1,31,32
 148 101 148 101 148 98 c 0,33,34
 148 58 148 58 113 55 c 0,35,36
 101 54 101 54 88.5 53 c 128,-1,37
 76 52 76 52 67 48.5 c 128,-1,38
 58 45 58 45 58 38 c 0,39,40
 58 18 58 18 63 13 c 0,41,42
 70 5 70 5 80 3 c 1,43,44
 104 1 104 1 111 1 c 0,45,46
 167 1 167 1 190 29 c 0,47,48
 208 52 208 52 208 95 c 0,49,50
 208 100 208 100 206 136 c 0,51,52
 204 155 204 155 204 177 c 0,53,54
 204 206 204 206 211 221 c 0,55,56
 219 241 219 241 243 242 c 1,57,58
 264 244 264 244 264 265 c 0,59,60
 264 287 264 287 250 292 c 2,61,-1
 217 304 l 2,62,63
 201 310 201 310 201 341 c 0,2,3
EndSplineSet
Validated: 41
EndChar

StartChar: asciitilde
Encoding: 126 126 98
Width: 414
GlyphClass: 2
Flags: W
LayerCount: 2
Fore
SplineSet
145 442 m 0,0,1
 168 442 168 442 227 421 c 128,-1,2
 286 400 286 400 302 400 c 0,3,4
 315 400 315 400 340 416 c 1,5,6
 363 433 363 433 375 433 c 0,7,8
 403 433 403 433 403 399 c 0,9,10
 403 369 403 369 377 344 c 0,11,12
 352 319 352 319 316 319 c 0,13,14
 282 319 282 319 226 340 c 0,15,16
 172 360 172 360 153 360 c 0,17,18
 136 360 136 360 111 342 c 0,19,20
 85 323 85 323 76 323 c 0,21,22
 61 323 61 323 54 336 c 0,23,24
 48 346 48 346 48 360 c 0,25,26
 48 393 48 393 78 417 c 1,27,28
 106 442 106 442 145 442 c 0,0,1
EndSplineSet
Validated: 1
EndChar

StartChar: uni0D02
Encoding: 3330 3330 99
Width: 344
GlyphClass: 2
Flags: W
LayerCount: 2
Fore
SplineSet
343 143 m 0,0,1
 343 75 343 75 298 36 c 1,2,3
 258 0 258 0 199 0 c 0,4,5
 138 0 138 0 99 41 c 1,6,7
 61 84 61 84 61 151 c 0,8,9
 61 211 61 211 99 252 c 1,10,11
 138 292 138 292 202 292 c 0,12,13
 272 292 272 292 310 245 c 0,14,15
 343 203 343 203 343 143 c 0,0,1
244 144 m 0,16,17
 244 280 244 280 202 280 c 0,18,19
 157 280 157 280 157 142 c 0,20,21
 157 13 157 13 200 13 c 0,22,23
 244 13 244 13 244 144 c 0,16,17
EndSplineSet
Validated: 1
EndChar

StartChar: uni0D03
Encoding: 3331 3331 100
Width: 193
GlyphClass: 2
Flags: W
LayerCount: 2
Fore
SplineSet
193 298 m 128,-1,1
 193 270 193 270 172 249 c 1,2,3
 150 229 150 229 124 229 c 0,4,5
 95 229 95 229 75 249 c 0,6,7
 54 270 54 270 54 298 c 128,-1,8
 54 326 54 326 75 347 c 1,9,10
 94 368 94 368 124 368 c 0,11,12
 151 368 151 368 172 347 c 128,-1,0
 193 326 193 326 193 298 c 128,-1,1
150 298 m 128,-1,14
 150 325 150 325 124 325 c 0,15,16
 97 325 97 325 97 298 c 128,-1,17
 97 271 97 271 124 271 c 0,18,13
 150 271 150 271 150 298 c 128,-1,14
193 85 m 0,19,20
 193 58 193 58 172 37 c 128,-1,21
 151 16 151 16 124 16 c 0,22,23
 94 16 94 16 75 37 c 1,24,25
 54 58 54 58 54 85 c 0,26,27
 54 113 54 113 75 134 c 1,28,29
 94 155 94 155 124 155 c 0,30,31
 151 155 151 155 172 134 c 128,-1,32
 193 113 193 113 193 85 c 0,19,20
150 85 m 0,33,34
 150 112 150 112 124 112 c 0,35,36
 97 112 97 112 97 85 c 0,37,38
 97 59 97 59 124 59 c 0,39,40
 150 59 150 59 150 85 c 0,33,34
EndSplineSet
Validated: 1
EndChar

StartChar: uni0D05
Encoding: 3333 3333 101
Width: 939
GlyphClass: 2
Flags: W
LayerCount: 2
Fore
SplineSet
938 180 m 0,0,1
 938 97 938 97 913 54 c 1,2,3
 883 -1 883 -1 805 -1 c 0,4,5
 737 -1 737 -1 701 60 c 1,6,7
 672 112 672 112 672 183 c 0,8,9
 672 329 672 329 753 362 c 1,10,11
 751 363 751 363 746.5 365 c 128,-1,12
 742 367 742 367 740 368 c 0,13,14
 728 373 728 373 722 373 c 0,15,16
 682 373 682 373 653 355 c 0,17,18
 622 336 622 336 622 297 c 2,19,-1
 623 59 l 2,20,21
 623 38 623 38 609 18 c 0,22,23
 596 0 596 0 573 0 c 0,24,25
 549 0 549 0 536 19 c 1,26,27
 522 36 522 36 522 59 c 2,28,-1
 522 273 l 2,29,30
 522 371 522 371 449 371 c 0,31,32
 422 371 422 371 407 365 c 1,33,34
 476 326 476 326 476 272 c 0,35,36
 476 245 476 245 464 221 c 0,37,38
 450 195 450 195 424 189 c 1,39,40
 476 177 476 177 476 113 c 0,41,42
 476 -1 476 -1 352 -1 c 0,43,44
 217 -1 217 -1 217 189 c 0,45,46
 217 304 217 304 314 365 c 1,47,48
 292 374 292 374 267 374 c 0,49,50
 213 374 213 374 175 322 c 1,51,52
 143 273 143 273 143 217 c 0,53,54
 143 198 143 198 162 138 c 0,55,56
 168 121 168 121 191 88 c 1,57,58
 213 59 213 59 213 36 c 0,59,60
 213 0 213 0 160 0 c 0,61,62
 104 0 104 0 80 73 c 0,63,64
 63 122 63 122 63 194 c 0,65,66
 63 293 63 293 119 347 c 0,67,68
 175 400 175 400 273 400 c 0,69,70
 320 400 320 400 360 383 c 1,71,72
 390 400 390 400 438 400 c 0,73,74
 488 400 488 400 512 394 c 1,75,76
 547 387 547 387 575 359 c 1,77,78
 612 399 612 399 709 399 c 0,79,80
 817 399 817 399 878 344 c 1,81,82
 938 288 938 288 938 180 c 0,0,1
851 181 m 128,-1,84
 851 331 851 331 807 331 c 0,85,86
 761 331 761 331 761 181 c 128,-1,87
 761 31 761 31 807 31 c 0,88,83
 851 31 851 31 851 181 c 128,-1,84
385 266 m 0,89,90
 385 320 385 320 355 338 c 1,91,92
 302 308 302 308 302 194 c 0,93,94
 302 27 302 27 356 27 c 0,95,96
 376 27 376 27 381 59 c 0,97,98
 382 63 382 63 382 105 c 0,99,100
 382 178 382 178 339 178 c 0,101,102
 324 178 324 178 324 187 c 0,103,104
 324 201 324 201 344 201 c 0,105,106
 385 201 385 201 385 266 c 0,89,90
EndSplineSet
Validated: 1
EndChar

StartChar: uni0D06
Encoding: 3334 3334 102
Width: 1069
GlyphClass: 2
Flags: W
LayerCount: 2
Fore
SplineSet
1068 82 m 0,0,1
 1068 -40 1068 -40 1002 -107 c 1,2,3
 938 -174 938 -174 823 -174 c 0,4,5
 764 -174 764 -174 713 -145 c 0,6,7
 651 -110 651 -110 651 -55 c 0,8,9
 651 -39 651 -39 666 -27 c 1,10,11
 680 -14 680 -14 696 -14 c 0,12,13
 726 -14 726 -14 777 -48 c 1,14,15
 826 -82 826 -82 861 -82 c 0,16,17
 934 -82 934 -82 979 -31 c 0,18,19
 1023 18 1023 18 1023 88 c 0,20,21
 1023 139 1023 139 1004 199 c 1,22,23
 980 266 980 266 944 282 c 1,24,25
 953 268 953 268 962 230 c 0,26,27
 970 196 970 196 970 181 c 0,28,29
 970 107 970 107 941 58 c 1,30,31
 903 -1 903 -1 831 -1 c 0,32,33
 674 -1 674 -1 674 172 c 0,34,35
 674 247 674 247 716 292 c 1,36,37
 758 335 758 335 829 337 c 1,38,39
 796 373 796 373 725 373 c 0,40,41
 613 373 613 373 613 297 c 2,42,-1
 614 59 l 2,43,44
 614 37 614 37 601 18 c 1,45,46
 586 0 586 0 565 0 c 0,47,48
 542 0 542 0 527 19 c 0,49,50
 514 35 514 35 514 59 c 2,51,-1
 514 273 l 2,52,53
 514 371 514 371 440 371 c 0,54,55
 414 371 414 371 398 365 c 1,56,57
 468 326 468 326 468 272 c 0,58,59
 468 245 468 245 456 221 c 0,60,61
 442 195 442 195 416 189 c 1,62,63
 468 177 468 177 468 113 c 0,64,65
 468 -1 468 -1 344 -1 c 0,66,67
 209 -1 209 -1 209 189 c 0,68,69
 209 305 209 305 306 365 c 1,70,71
 282 374 282 374 259 374 c 0,72,73
 204 374 204 374 167 322 c 1,74,75
 135 273 135 273 135 217 c 0,76,77
 135 194 135 194 154 138 c 1,78,79
 157 125 157 125 183 88 c 1,80,81
 205 59 205 59 205 36 c 0,82,83
 205 0 205 0 152 0 c 0,84,85
 94 0 94 0 72 73 c 1,86,87
 55 122 55 122 55 194 c 0,88,89
 55 293 55 293 111 347 c 0,90,91
 166 400 166 400 265 400 c 0,92,93
 312 400 312 400 352 383 c 1,94,95
 382 400 382 400 430 400 c 128,-1,96
 478 400 478 400 504 394 c 0,97,98
 539 387 539 387 567 359 c 1,99,100
 605 400 605 400 713 400 c 0,101,102
 875 400 875 400 918 335 c 1,103,104
 1068 302 1068 302 1068 82 c 0,0,1
873 167 m 0,105,106
 873 303 873 303 823 303 c 0,107,108
 771 303 771 303 771 167 c 0,109,110
 771 20 771 20 823 20 c 0,111,112
 873 20 873 20 873 167 c 0,105,106
377 266 m 0,113,114
 377 320 377 320 347 338 c 1,115,116
 294 308 294 308 294 194 c 0,117,118
 294 27 294 27 348 27 c 0,119,120
 368 27 368 27 373 59 c 0,121,122
 373 60 373 60 373.5 66.5 c 128,-1,123
 374 73 374 73 374 83.5 c 128,-1,124
 374 94 374 94 374 105 c 0,125,126
 374 178 374 178 331 178 c 0,127,128
 315 178 315 178 315 187 c 0,129,130
 315 201 315 201 336 201 c 0,131,132
 377 201 377 201 377 266 c 0,113,114
EndSplineSet
Validated: 1
EndChar

StartChar: uni0D07
Encoding: 3335 3335 103
Width: 645
GlyphClass: 2
Flags: W
LayerCount: 2
Fore
SplineSet
644 -98 m 0,0,1
 644 -145 644 -145 580 -145 c 0,2,3
 467 -145 467 -145 387 -144 c 0,4,5
 341 -144 341 -144 281 -143.5 c 128,-1,6
 221 -143 221 -143 207 -143 c 0,7,8
 125 -143 125 -143 104 -136 c 0,9,10
 66 -122 66 -122 66 -67 c 0,11,12
 66 2 66 2 160 2 c 0,13,14
 167 2 167 2 259 0 c 0,15,16
 349 -2 349 -2 364 -2 c 0,17,18
 539 -2 539 -2 539 196 c 0,19,20
 539 246 539 246 526 295 c 1,21,22
 509 369 509 369 476 369 c 0,23,24
 425 369 425 369 425 288 c 0,25,26
 425 227 425 227 426 178 c 128,-1,27
 427 129 427 129 427 68 c 0,28,29
 427 52 427 52 410 41 c 0,30,31
 398 33 398 33 378 33 c 0,32,33
 361 33 361 33 346 42 c 0,34,35
 332 51 332 51 332 68 c 2,36,-1
 332 269 l 2,37,38
 332 369 332 369 253 369 c 0,39,40
 205 369 205 369 173 337 c 0,41,42
 143 307 143 307 140 257 c 1,43,44
 158 274 158 274 181 274 c 0,45,46
 238 274 238 274 267 242 c 0,47,48
 297 210 297 210 297 155 c 0,49,50
 297 104 297 104 264 69 c 0,51,52
 231 33 231 33 181 33 c 0,53,54
 120 33 120 33 89 82 c 0,55,56
 62 124 62 124 62 188 c 0,57,58
 62 278 62 278 112 334 c 1,59,60
 159 390 159 390 251 390 c 0,61,62
 303 390 303 390 318 387 c 0,63,64
 361 380 361 380 381 344 c 1,65,66
 391 374 391 374 420 385 c 1,67,68
 440 390 440 390 478 390 c 0,69,70
 565 390 565 390 608 329 c 0,71,72
 647 275 647 275 644 191 c 1,73,-1
 644 190 l 1,74,75
 640 72 640 72 596 30 c 0,76,77
 548 -17 548 -17 408 -20 c 2,78,-1
 258 -23 l 2,79,80
 168 -24 168 -24 168 -65 c 0,81,82
 168 -84 168 -84 188 -96 c 0,83,84
 211 -109 211 -109 238 -109 c 0,85,86
 284 -109 284 -109 331 -94 c 1,87,88
 406 -68 406 -68 415 -67 c 1,89,90
 486 -50 486 -50 580 -50 c 0,91,92
 644 -50 644 -50 644 -98 c 0,0,1
210 159 m 0,93,94
 210 260 210 260 177 260 c 0,95,96
 143 260 143 260 143 148 c 0,97,98
 143 53 143 53 177 53 c 0,99,100
 210 53 210 53 210 159 c 0,93,94
EndSplineSet
Validated: 33
EndChar

StartChar: uni0D08
Encoding: 3336 3336 104
Width: 1107
GlyphClass: 2
Flags: W
LayerCount: 2
Fore
SplineSet
1107 224 m 0,0,1
 1107 115 1107 115 1066 59 c 0,2,3
 1015 -11 1015 -11 889 -11 c 0,4,5
 768 -11 768 -11 768 43 c 0,6,7
 768 65 768 65 785 65 c 128,-1,8
 802 65 802 65 833 37 c 0,9,10
 863 10 863 10 898 10 c 0,11,12
 965 10 965 10 992 99 c 0,13,14
 1010 156 1010 156 1010 238 c 0,15,16
 1010 274 1010 274 1002 312 c 1,17,18
 992 369 992 369 967 369 c 0,19,20
 943 369 943 369 943 337 c 2,21,-1
 943 173 l 2,22,23
 943 156 943 156 928 144 c 1,24,25
 914 131 914 131 895 131 c 0,26,27
 874 131 874 131 857 143 c 1,28,29
 841 156 841 156 841 174 c 2,30,-1
 841 336 l 2,31,32
 841 369 841 369 818 369 c 0,33,34
 780 369 780 369 780 259 c 0,35,36
 780 245 780 245 786 218 c 128,-1,37
 792 191 792 191 792 176 c 0,38,39
 792 159 792 159 779 144 c 1,40,41
 766 131 766 131 749 131 c 0,42,43
 694 131 694 131 694 256 c 0,44,45
 694 311 694 311 726 352 c 1,46,47
 758 391 758 391 813 391 c 0,48,49
 882 391 882 391 894 344 c 1,50,51
 909 391 909 391 971 391 c 0,52,53
 1107 391 1107 391 1107 224 c 0,0,1
644 -98 m 0,54,55
 644 -145 644 -145 580 -145 c 0,56,57
 547 -145 547 -145 387 -149 c 0,58,59
 225 -153 225 -153 207 -153 c 0,60,61
 135 -153 135 -153 104 -140 c 0,62,63
 66 -123 66 -123 66 -67 c 0,64,65
 66 2 66 2 160 2 c 0,66,67
 167 2 167 2 259 0 c 0,68,69
 349 -2 349 -2 364 -2 c 0,70,71
 539 -2 539 -2 539 196 c 0,72,73
 539 246 539 246 526 295 c 1,74,75
 509 369 509 369 476 369 c 0,76,77
 425 369 425 369 425 288 c 0,78,79
 425 227 425 227 426 178 c 128,-1,80
 427 129 427 129 427 68 c 0,81,82
 427 52 427 52 410 41 c 0,83,84
 398 33 398 33 378 33 c 0,85,86
 361 33 361 33 346 42 c 0,87,88
 332 51 332 51 332 68 c 2,89,-1
 332 269 l 2,90,91
 332 369 332 369 253 369 c 0,92,93
 205 369 205 369 173 337 c 0,94,95
 143 307 143 307 140 257 c 1,96,97
 158 274 158 274 181 274 c 0,98,99
 238 274 238 274 267 242 c 0,100,101
 297 210 297 210 297 155 c 0,102,103
 297 104 297 104 264 69 c 0,104,105
 231 33 231 33 181 33 c 0,106,107
 120 33 120 33 89 82 c 0,108,109
 62 124 62 124 62 188 c 0,110,111
 62 278 62 278 112 334 c 1,112,113
 159 390 159 390 251 390 c 0,114,115
 303 390 303 390 318 387 c 0,116,117
 361 380 361 380 381 344 c 1,118,119
 391 374 391 374 420 385 c 1,120,121
 440 390 440 390 478 390 c 0,122,123
 565 390 565 390 608 329 c 0,124,125
 647 275 647 275 644 191 c 1,126,-1
 644 190 l 1,127,128
 640 72 640 72 596 30 c 0,129,130
 548 -17 548 -17 408 -20 c 2,131,-1
 258 -23 l 2,132,133
 168 -24 168 -24 168 -65 c 0,134,135
 168 -84 168 -84 188 -96 c 0,136,137
 211 -109 211 -109 238 -109 c 0,138,139
 284 -109 284 -109 331 -94 c 1,140,141
 406 -68 406 -68 415 -67 c 1,142,143
 486 -50 486 -50 580 -50 c 0,144,145
 644 -50 644 -50 644 -98 c 0,54,55
210 159 m 0,146,147
 210 260 210 260 177 260 c 0,148,149
 143 260 143 260 143 148 c 0,150,151
 143 53 143 53 177 53 c 0,152,153
 210 53 210 53 210 159 c 0,146,147
EndSplineSet
Validated: 33
EndChar

StartChar: uni0D09
Encoding: 3337 3337 105
Width: 519
GlyphClass: 2
Flags: W
LayerCount: 2
Fore
SplineSet
518 -103 m 0,0,1
 514 -146 514 -146 463 -146 c 0,2,3
 306 -146 306 -146 194 -153 c 1,4,5
 137 -153 137 -153 116 -143 c 0,6,7
 79 -127 79 -127 79 -67 c 0,8,9
 79 1 79 1 155 1 c 2,10,-1
 173 1 l 1,11,12
 181 0 181 0 188 0 c 2,13,-1
 296 -2 l 2,14,15
 409 -5 409 -5 409 199 c 0,16,17
 409 251 409 251 377 304 c 0,18,19
 339 369 339 369 281 369 c 0,20,21
 227 369 227 369 193 335 c 0,22,23
 159 300 159 300 158 253 c 1,24,25
 175 270 175 270 203 270 c 0,26,27
 265 270 265 270 297 238 c 1,28,29
 329 204 329 204 329 150 c 0,30,31
 329 102 329 102 295 66 c 1,32,33
 258 29 258 29 203 29 c 0,34,35
 132 29 132 29 95 78 c 1,36,37
 61 121 61 121 61 184 c 0,38,39
 61 390 61 390 279 390 c 0,40,41
 515 390 515 390 515 190 c 0,42,43
 515 -14 515 -14 325 -20 c 1,44,-1
 234 -24 l 2,45,46
 175 -26 175 -26 175 -65 c 0,47,48
 175 -83 175 -83 188 -96 c 1,49,50
 203 -109 203 -109 220 -109 c 0,51,52
 235 -109 235 -109 310 -79 c 0,53,54
 384 -49 384 -49 463 -49 c 0,55,56
 486 -49 486 -49 503 -66 c 1,57,58
 521 -81 521 -81 518 -103 c 0,0,1
233 154 m 0,59,60
 233 257 233 257 198 257 c 0,61,62
 161 257 161 257 161 143 c 0,63,64
 161 48 161 48 198 48 c 0,65,66
 233 48 233 48 233 154 c 0,59,60
EndSplineSet
Validated: 33
EndChar

StartChar: uni0D0A
Encoding: 3338 3338 106
Width: 980
GlyphClass: 2
Flags: W
LayerCount: 2
Fore
SplineSet
980 224 m 0,0,1
 980 114 980 114 940 59 c 0,2,3
 888 -11 888 -11 763 -11 c 0,4,5
 642 -11 642 -11 642 43 c 0,6,7
 642 65 642 65 658 65 c 0,8,9
 675 65 675 65 706 37 c 0,10,11
 736 10 736 10 771 10 c 0,12,13
 838 10 838 10 865 99 c 1,14,15
 884 155 884 155 884 238 c 0,16,17
 884 270 884 270 877 312 c 1,18,19
 865 369 865 369 841 369 c 128,-1,20
 817 369 817 369 817 337 c 2,21,-1
 817 173 l 2,22,23
 817 156 817 156 801 144 c 1,24,25
 787 131 787 131 768 131 c 0,26,27
 748 131 748 131 731 143 c 0,28,29
 714 156 714 156 714 174 c 2,30,-1
 714 336 l 2,31,32
 714 369 714 369 691 369 c 0,33,34
 653 369 653 369 653 259 c 0,35,36
 653 245 653 245 659 218 c 1,37,38
 666 193 666 193 666 176 c 0,39,40
 666 157 666 157 653 144 c 128,-1,41
 640 131 640 131 623 131 c 0,42,43
 568 131 568 131 568 256 c 0,44,45
 568 312 568 312 598 350 c 1,46,47
 632 391 632 391 687 391 c 0,48,49
 712 391 712 391 738 377 c 0,50,51
 764 362 764 362 768 344 c 1,52,53
 782 391 782 391 845 391 c 0,54,55
 980 391 980 391 980 224 c 0,0,1
518 -103 m 0,56,57
 514 -146 514 -146 463 -146 c 0,58,59
 306 -146 306 -146 194 -153 c 1,60,61
 137 -153 137 -153 116 -143 c 0,62,63
 79 -127 79 -127 79 -67 c 0,64,65
 79 1 79 1 155 1 c 2,66,-1
 173 1 l 1,67,68
 181 0 181 0 188 0 c 2,69,-1
 296 -2 l 2,70,71
 409 -5 409 -5 409 199 c 0,72,73
 409 251 409 251 377 304 c 0,74,75
 339 369 339 369 281 369 c 0,76,77
 227 369 227 369 193 335 c 0,78,79
 159 300 159 300 158 253 c 1,80,81
 175 270 175 270 203 270 c 0,82,83
 265 270 265 270 297 238 c 1,84,85
 329 204 329 204 329 150 c 0,86,87
 329 102 329 102 295 66 c 1,88,89
 258 29 258 29 203 29 c 0,90,91
 132 29 132 29 95 78 c 1,92,93
 61 121 61 121 61 184 c 0,94,95
 61 390 61 390 279 390 c 0,96,97
 515 390 515 390 515 190 c 0,98,99
 515 -14 515 -14 325 -20 c 1,100,-1
 234 -24 l 2,101,102
 175 -26 175 -26 175 -65 c 0,103,104
 175 -83 175 -83 188 -96 c 1,105,106
 203 -109 203 -109 220 -109 c 128,-1,107
 237 -109 237 -109 309 -79 c 128,-1,108
 381 -49 381 -49 463 -49 c 0,109,110
 486 -49 486 -49 503 -66 c 1,111,112
 521 -81 521 -81 518 -103 c 0,56,57
233 154 m 0,113,114
 233 257 233 257 198 257 c 0,115,116
 161 257 161 257 161 143 c 0,117,118
 161 48 161 48 198 48 c 0,119,120
 233 48 233 48 233 154 c 0,113,114
EndSplineSet
Validated: 33
EndChar

StartChar: uni0D0B
Encoding: 3339 3339 107
Width: 640
GlyphClass: 2
Flags: W
LayerCount: 2
Fore
SplineSet
639 255 m 0,0,1
 639 200 639 200 603 144 c 1,2,3
 563 84 563 84 502 75 c 1,4,5
 620 61 620 61 620 -32 c 0,6,7
 620 -102 620 -102 540 -128 c 0,8,9
 482 -147 482 -147 343 -147 c 0,10,11
 203 -147 203 -147 152 -127 c 1,12,13
 84 -102 84 -102 84 -29 c 0,14,15
 84 60 84 60 190 76 c 1,16,17
 133 87 133 87 95 147 c 1,18,19
 63 200 63 200 63 255 c 0,20,21
 63 390 63 390 186 390 c 0,22,23
 237 390 237 390 267 360 c 128,-1,24
 297 330 297 330 297 276 c 0,25,26
 297 209 297 209 257 172 c 0,27,28
 226 142 226 142 183 142 c 0,29,30
 160 142 160 142 152 145 c 1,31,32
 191 109 191 109 240 99 c 1,33,34
 262 96 262 96 343 93 c 1,35,36
 418 92 418 92 453 98 c 1,37,38
 505 109 505 109 550 146 c 1,39,40
 541 143 541 143 509 143 c 0,41,42
 470 143 470 143 438 177 c 0,43,44
 402 214 402 214 402 276 c 0,45,46
 402 325 402 325 433 358 c 256,47,48
 464 391 464 391 514 391 c 0,49,50
 639 391 639 391 639 255 c 0,0,1
565 266 m 0,51,52
 565 307 565 307 555 338 c 0,53,54
 542 378 542 378 520 378 c 0,55,56
 479 378 479 378 479 267 c 0,57,58
 479 236 479 236 489 203 c 1,59,60
 502 167 502 167 521 167 c 0,61,62
 565 167 565 167 565 266 c 0,51,52
225 266 m 0,63,64
 225 308 225 308 214 338 c 1,65,66
 202 378 202 378 180 378 c 0,67,68
 139 378 139 378 139 267 c 0,69,70
 139 234 139 234 150 203 c 1,71,72
 160 167 160 167 180 167 c 0,73,74
 225 167 225 167 225 266 c 0,63,64
519 -34 m 0,75,76
 519 -1 519 -1 486 28 c 1,77,78
 448 59 448 59 349 59 c 0,79,80
 281 59 281 59 237 33 c 128,-1,81
 193 7 193 7 193 -38 c 0,82,83
 193 -65 193 -65 227 -94 c 1,84,85
 261 -120 261 -120 351 -120 c 0,86,87
 449 -120 449 -120 488 -91 c 0,88,89
 519 -69 519 -69 519 -34 c 0,75,76
EndSplineSet
Validated: 33
EndChar

StartChar: uni0D0E
Encoding: 3342 3342 108
Width: 852
GlyphClass: 2
Flags: W
LayerCount: 2
Fore
SplineSet
852 97 m 0,0,1
 852 -47 852 -47 782 -111 c 1,2,3
 741 -146 741 -146 700 -146 c 0,4,5
 687 -146 687 -146 681.5 -141.5 c 128,-1,6
 676 -137 676 -137 678 -128 c 0,7,8
 680 -120 680 -120 700 -120 c 0,9,10
 754 -120 754 -120 754 101 c 0,11,12
 754 221 754 221 735 278 c 1,13,14
 708 369 708 369 631 369 c 0,15,16
 535 369 535 369 508 223 c 1,17,18
 497 171 497 171 497 23 c 1,19,-1
 572 23 l 1,20,-1
 572 234 l 2,21,22
 572 288 572 288 625 288 c 0,23,24
 671 288 671 288 671 240 c 2,25,-1
 671 -11 l 2,26,27
 671 -67 671 -67 629 -106 c 1,28,29
 588 -146 588 -146 535 -146 c 0,30,31
 474 -146 474 -146 435 -94 c 0,32,33
 400 -48 400 -48 400 0 c 1,34,-1
 268 0 l 2,35,36
 240 0 240 0 240 27 c 0,37,38
 240 35 240 35 250 71 c 1,39,40
 261 104 261 104 261 163 c 0,41,42
 261 205 261 205 245 238 c 0,43,44
 229 272 229 272 204 272 c 128,-1,45
 179 272 179 272 166 229 c 0,46,47
 156 199 156 199 156 161 c 0,48,49
 156 136 156 136 160 109 c 0,50,51
 165 74 165 74 165 68 c 0,52,53
 165 -9 165 -9 134 -9 c 0,54,55
 58 -9 58 -9 58 144 c 0,56,57
 58 208 58 208 90 249 c 0,58,59
 128 297 128 297 199 297 c 0,60,61
 283 297 283 297 325 246 c 0,62,63
 358 206 358 206 358 145 c 0,64,65
 358 79 358 79 309 23 c 1,66,-1
 398 23 l 1,67,68
 398 39 398 39 397 54 c 0,69,70
 397 63 397 63 396.5 76 c 128,-1,71
 396 89 396 89 396 93 c 0,72,73
 396 391 396 391 627 391 c 0,74,75
 755 391 755 391 809 304 c 0,76,77
 852 236 852 236 852 97 c 0,0,1
572 -34 m 2,78,-1
 572 0 l 1,79,-1
 495 0 l 1,80,81
 492 -126 492 -126 531 -126 c 0,82,83
 551 -126 551 -126 563 -90 c 0,84,85
 572 -63 572 -63 572 -34 c 2,78,-1
EndSplineSet
Validated: 33
EndChar

StartChar: uni0D0F
Encoding: 3343 3343 109
Width: 854
GlyphClass: 2
Flags: W
LayerCount: 2
Fore
SplineSet
853 -8 m 0,0,1
 853 -67 853 -67 820 -109 c 1,2,3
 783 -152 783 -152 726 -152 c 0,4,5
 692 -152 692 -152 651 -133 c 1,6,7
 642 -132 642 -132 642 -116 c 0,8,9
 642 -97 642 -97 654 -97 c 1,10,11
 670 -109 670 -109 702 -109 c 0,12,13
 730 -109 730 -109 742 -62 c 1,14,15
 753 -29 753 -29 753 6 c 0,16,17
 753 51 753 51 749 69 c 0,18,19
 740 103 740 103 707 103 c 0,20,21
 689 103 689 103 689 121 c 0,22,23
 689 137 689 137 708 137 c 0,24,25
 735 137 735 137 744 153 c 1,26,27
 751 163 751 163 754 194 c 0,28,29
 756 214 756 214 756 240 c 0,30,31
 756 289 756 289 725 329 c 0,32,33
 695 367 695 367 643 367 c 0,34,35
 547 367 547 367 514 255 c 0,36,37
 497 198 497 198 497 76 c 2,38,-1
 497 49 l 1,39,-1
 497 23 l 1,40,-1
 572 23 l 1,41,-1
 572 234 l 2,42,43
 572 288 572 288 625 288 c 0,44,45
 671 288 671 288 671 240 c 2,46,-1
 671 -11 l 2,47,48
 671 -64 671 -64 631 -106 c 1,49,50
 591 -146 591 -146 535 -146 c 0,51,52
 401 -146 401 -146 400 0 c 1,53,-1
 268 0 l 2,54,55
 240 0 240 0 240 27 c 1,56,-1
 253 82 l 2,57,58
 261 116 261 116 261 163 c 0,59,60
 261 198 261 198 248 230 c 1,61,62
 232 273 232 273 204 273 c 0,63,64
 178 273 178 273 165 227 c 0,65,66
 156 194 156 194 156 161 c 0,67,68
 156 137 156 137 161 108 c 1,69,70
 166 68 166 68 166 54 c 0,71,72
 166 -9 166 -9 134 -9 c 0,73,74
 58 -9 58 -9 58 144 c 0,75,76
 58 213 58 213 95 254 c 1,77,78
 131 297 131 297 199 297 c 0,79,80
 271 297 271 297 314 257 c 0,81,82
 358 217 358 217 358 145 c 128,-1,83
 358 73 358 73 309 23 c 1,84,-1
 398 23 l 1,85,86
 398 41 398 41 397 57 c 0,87,88
 397 66 397 66 396.5 78 c 128,-1,89
 396 90 396 90 396 93 c 0,90,91
 396 392 396 392 651 392 c 0,92,93
 734 392 734 392 790 352 c 0,94,95
 853 308 853 308 853 231 c 0,96,97
 853 200 853 200 838 167 c 1,98,99
 819 130 819 130 792 121 c 1,100,101
 824 109 824 109 840 66 c 0,102,103
 853 31 853 31 853 -8 c 0,0,1
572 -34 m 2,104,-1
 572 0 l 1,105,-1
 495 0 l 1,106,107
 494 -4 494 -4 494 -14 c 0,108,109
 494 -126 494 -126 531 -126 c 0,110,111
 552 -126 552 -126 563 -88 c 1,112,113
 572 -61 572 -61 572 -34 c 2,104,-1
EndSplineSet
Validated: 1
EndChar

StartChar: uni0D10
Encoding: 3344 3344 110
Width: 1339
GlyphClass: 2
Flags: W
LayerCount: 2
Fore
SplineSet
1338 97 m 0,0,1
 1338 -47 1338 -47 1269 -111 c 1,2,3
 1226 -146 1226 -146 1187 -146 c 0,4,5
 1161 -146 1161 -146 1164 -128 c 1,6,7
 1167 -120 1167 -120 1187 -120 c 0,8,9
 1240 -120 1240 -120 1240 101 c 0,10,11
 1240 220 1240 220 1222 278 c 0,12,13
 1193 369 1193 369 1117 369 c 0,14,15
 1023 369 1023 369 994 223 c 0,16,17
 983 163 983 163 983 23 c 1,18,-1
 1059 23 l 1,19,-1
 1059 234 l 2,20,21
 1059 288 1059 288 1111 288 c 0,22,23
 1157 288 1157 288 1157 240 c 2,24,-1
 1157 -11 l 2,25,26
 1157 -67 1157 -67 1115 -106 c 1,27,28
 1074 -146 1074 -146 1021 -146 c 0,29,30
 961 -146 961 -146 922 -94 c 1,31,32
 887 -50 887 -50 887 0 c 1,33,-1
 755 0 l 2,34,35
 726 0 726 0 726 27 c 0,36,37
 726 32 726 32 737 71 c 0,38,39
 748 109 748 109 748 163 c 0,40,41
 748 202 748 202 731 238 c 0,42,43
 715 272 715 272 690 272 c 128,-1,44
 665 272 665 272 652 229 c 0,45,46
 642 199 642 199 642 161 c 0,47,48
 642 142 642 142 647 109 c 0,49,50
 651 81 651 81 651 68 c 0,51,52
 651 -9 651 -9 621 -9 c 0,53,54
 545 -9 545 -9 545 144 c 0,55,56
 545 210 545 210 577 249 c 1,57,58
 613 297 613 297 685 297 c 0,59,60
 769 297 769 297 811 246 c 0,61,62
 845 206 845 206 845 145 c 0,63,64
 845 81 845 81 796 23 c 1,65,-1
 885 23 l 1,66,67
 885 24 885 24 884.5 34.5 c 128,-1,68
 884 45 884 45 884 54 c 0,69,70
 883 70 883 70 883 93 c 0,71,72
 883 391 883 391 1113 391 c 0,73,74
 1242 391 1242 391 1295 304 c 1,75,76
 1338 236 1338 236 1338 97 c 0,0,1
490 172 m 0,77,78
 490 -9 490 -9 388 -9 c 0,79,80
 353 -9 353 -9 353 25 c 0,81,82
 353 35 353 35 374 92 c 0,83,84
 395 148 395 148 395 198 c 0,85,86
 395 249 395 249 370 299 c 0,87,88
 334 368 334 368 274 368 c 0,89,90
 170 368 170 368 166 251 c 1,91,92
 186 261 186 261 209 261 c 0,93,94
 276 261 276 261 307 215 c 0,95,96
 331 180 331 180 331 126 c 0,97,98
 331 57 331 57 284 19 c 0,99,100
 249 -9 249 -9 209 -9 c 0,101,102
 142 -9 142 -9 103 36 c 0,103,104
 65 81 65 81 65 165 c 0,105,106
 65 390 65 390 274 390 c 0,107,108
 490 390 490 390 490 172 c 0,77,78
1059 -34 m 2,109,-1
 1059 0 l 1,110,-1
 981 0 l 1,111,112
 978 -126 978 -126 1018 -126 c 0,113,114
 1036 -126 1036 -126 1050 -90 c 1,115,116
 1059 -63 1059 -63 1059 -34 c 2,109,-1
245 119 m 0,117,118
 245 157 245 157 234 193 c 0,119,120
 222 233 222 233 201 233 c 0,121,122
 162 233 162 233 162 120 c 0,123,124
 162 86 162 86 171 54 c 1,125,126
 183 17 183 17 202 17 c 0,127,128
 245 17 245 17 245 119 c 0,117,118
EndSplineSet
Validated: 33
EndChar

StartChar: uni0D12
Encoding: 3346 3346 111
Width: 547
GlyphClass: 2
Flags: W
LayerCount: 2
Fore
SplineSet
547 96 m 0,0,1
 547 44 547 44 508 16 c 0,2,3
 474 -9 474 -9 420 -9 c 0,4,5
 378 -9 378 -9 339 4 c 0,6,7
 329 8 329 8 329 19 c 0,8,9
 329 31 329 31 342 31 c 1,10,11
 361 23 361 23 394 23 c 0,12,13
 420 23 420 23 435 50 c 1,14,15
 450 74 450 74 450 100 c 0,16,17
 450 144 450 144 424 161 c 0,18,19
 406 173 406 173 360 173 c 0,20,21
 351 173 351 173 351 189 c 0,22,23
 351 210 351 210 362 210 c 0,24,25
 408 210 408 210 427 221 c 0,26,27
 452 237 452 237 452 282 c 0,28,29
 452 328 452 328 406 349 c 0,30,31
 369 366 369 366 317 366 c 0,32,33
 186 366 186 366 166 256 c 1,34,-1
 166 251 l 1,35,36
 183 261 183 261 209 261 c 0,37,38
 270 261 270 261 301 222 c 1,39,40
 331 188 331 188 331 126 c 0,41,42
 331 72 331 72 298 33 c 1,43,44
 264 -9 264 -9 209 -9 c 0,45,46
 135 -9 135 -9 96 45 c 1,47,48
 65 91 65 91 65 165 c 0,49,50
 65 391 65 391 327 391 c 0,51,52
 402 391 402 391 463 368 c 0,53,54
 545 336 545 336 545 272 c 0,55,56
 545 245 545 245 531 222 c 0,57,58
 516 197 516 197 492 191 c 1,59,60
 547 179 547 179 547 96 c 0,0,1
245 119 m 0,61,62
 245 151 245 151 237 186 c 1,63,64
 224 233 224 233 201 233 c 0,65,66
 162 233 162 233 162 120 c 0,67,68
 162 92 162 92 170 60 c 0,69,70
 181 17 181 17 202 17 c 0,71,72
 245 17 245 17 245 119 c 0,61,62
EndSplineSet
Validated: 1
EndChar

StartChar: uni0D13
Encoding: 3347 3347 112
Width: 899
GlyphClass: 2
Flags: W
LayerCount: 2
Fore
SplineSet
898 187 m 0,0,1
 898 106 898 106 860 51 c 1,2,3
 816 -8 816 -8 738 -8 c 0,4,5
 596 -8 596 -8 596 112 c 0,6,7
 596 167 596 167 646 167 c 0,8,9
 686 167 686 167 694 112 c 0,10,11
 709 14 709 14 745 14 c 0,12,13
 803 14 803 14 803 194 c 0,14,15
 803 256 803 256 788 307 c 1,16,17
 773 368 773 368 745 368 c 0,18,19
 711 368 711 368 694 265 c 1,20,21
 688 219 688 219 646 219 c 0,22,23
 596 219 596 219 596 276 c 0,24,25
 596 335 596 335 639 365 c 0,26,27
 676 390 676 390 738 390 c 0,28,29
 898 390 898 390 898 187 c 0,0,1
547 96 m 0,30,31
 547 44 547 44 508 16 c 0,32,33
 474 -9 474 -9 420 -9 c 0,34,35
 378 -9 378 -9 339 4 c 0,36,37
 329 8 329 8 329 19 c 0,38,39
 329 31 329 31 342 31 c 1,40,41
 361 23 361 23 394 23 c 0,42,43
 420 23 420 23 435 50 c 1,44,45
 450 74 450 74 450 100 c 0,46,47
 450 144 450 144 424 161 c 0,48,49
 406 173 406 173 360 173 c 0,50,51
 351 173 351 173 351 189 c 0,52,53
 351 210 351 210 362 210 c 0,54,55
 408 210 408 210 427 221 c 0,56,57
 452 237 452 237 452 282 c 0,58,59
 452 328 452 328 406 349 c 0,60,61
 369 366 369 366 317 366 c 0,62,63
 186 366 186 366 166 256 c 1,64,-1
 166 251 l 1,65,66
 183 261 183 261 209 261 c 0,67,68
 270 261 270 261 301 222 c 1,69,70
 331 188 331 188 331 126 c 0,71,72
 331 72 331 72 298 33 c 1,73,74
 264 -9 264 -9 209 -9 c 0,75,76
 135 -9 135 -9 96 45 c 1,77,78
 65 91 65 91 65 165 c 0,79,80
 65 391 65 391 327 391 c 0,81,82
 402 391 402 391 463 368 c 0,83,84
 545 336 545 336 545 272 c 0,85,86
 545 245 545 245 531 222 c 0,87,88
 516 197 516 197 492 191 c 1,89,90
 547 179 547 179 547 96 c 0,30,31
245 119 m 0,91,92
 245 151 245 151 237 186 c 1,93,94
 224 233 224 233 201 233 c 0,95,96
 162 233 162 233 162 120 c 0,97,98
 162 92 162 92 170 60 c 0,99,100
 181 17 181 17 202 17 c 0,101,102
 245 17 245 17 245 119 c 0,91,92
EndSplineSet
Validated: 1
EndChar

StartChar: uni0D14
Encoding: 3348 3348 113
Width: 1005
GlyphClass: 2
Flags: W
LayerCount: 2
Fore
SplineSet
1005 224 m 0,0,1
 1005 115 1005 115 964 59 c 0,2,3
 912 -11 912 -11 787 -11 c 0,4,5
 667 -11 667 -11 667 43 c 0,6,7
 667 65 667 65 683 65 c 0,8,9
 698 65 698 65 731 37 c 1,10,11
 761 10 761 10 796 10 c 0,12,13
 861 10 861 10 890 99 c 0,14,15
 908 156 908 156 908 238 c 0,16,17
 908 278 908 278 901 312 c 0,18,19
 890 369 890 369 865 369 c 0,20,21
 842 369 842 369 842 337 c 2,22,-1
 842 173 l 2,23,24
 842 157 842 157 826 144 c 128,-1,25
 810 131 810 131 793 131 c 0,26,27
 772 131 772 131 755 143 c 1,28,29
 738 157 738 157 738 174 c 2,30,-1
 738 336 l 2,31,32
 738 369 738 369 716 369 c 0,33,34
 678 369 678 369 678 259 c 0,35,36
 678 245 678 245 684 218 c 128,-1,37
 690 191 690 191 690 176 c 0,38,39
 690 157 690 157 677 144 c 128,-1,40
 664 131 664 131 647 131 c 0,41,42
 593 131 593 131 593 256 c 0,43,44
 593 312 593 312 624 352 c 1,45,46
 656 391 656 391 711 391 c 0,47,48
 780 391 780 391 792 344 c 1,49,50
 806 391 806 391 868 391 c 0,51,52
 1005 391 1005 391 1005 224 c 0,0,1
547 96 m 0,53,54
 547 44 547 44 508 16 c 0,55,56
 474 -9 474 -9 420 -9 c 0,57,58
 378 -9 378 -9 339 4 c 0,59,60
 329 8 329 8 329 19 c 0,61,62
 329 31 329 31 342 31 c 1,63,64
 361 23 361 23 394 23 c 0,65,66
 420 23 420 23 435 50 c 1,67,68
 450 74 450 74 450 100 c 0,69,70
 450 144 450 144 424 161 c 0,71,72
 406 173 406 173 360 173 c 0,73,74
 351 173 351 173 351 189 c 0,75,76
 351 210 351 210 362 210 c 0,77,78
 408 210 408 210 427 221 c 0,79,80
 452 237 452 237 452 282 c 0,81,82
 452 328 452 328 406 349 c 0,83,84
 369 366 369 366 317 366 c 0,85,86
 186 366 186 366 166 256 c 1,87,-1
 166 251 l 1,88,89
 183 261 183 261 209 261 c 0,90,91
 270 261 270 261 301 222 c 1,92,93
 331 188 331 188 331 126 c 0,94,95
 331 72 331 72 298 33 c 1,96,97
 264 -9 264 -9 209 -9 c 0,98,99
 135 -9 135 -9 96 45 c 1,100,101
 65 91 65 91 65 165 c 0,102,103
 65 391 65 391 327 391 c 0,104,105
 402 391 402 391 463 368 c 0,106,107
 545 336 545 336 545 272 c 0,108,109
 545 245 545 245 531 222 c 0,110,111
 516 197 516 197 492 191 c 1,112,113
 547 179 547 179 547 96 c 0,53,54
245 119 m 0,114,115
 245 151 245 151 237 186 c 1,116,117
 224 233 224 233 201 233 c 0,118,119
 162 233 162 233 162 120 c 0,120,121
 162 92 162 92 170 60 c 0,122,123
 181 17 181 17 202 17 c 0,124,125
 245 17 245 17 245 119 c 0,114,115
EndSplineSet
Validated: 1
EndChar

StartChar: k1
Encoding: 3349 3349 114
Width: 771
GlyphClass: 2
Flags: W
LayerCount: 2
Fore
SplineSet
770 96 m 0,0,1
 770 -10 770 -10 603 -10 c 0,2,3
 577 -10 577 -10 560 -2 c 1,4,5
 540 5 540 5 540 15 c 0,6,7
 540 29 540 29 558 29 c 0,8,9
 565 29 565 29 581 22 c 1,10,11
 594 14 594 14 601 14 c 0,12,13
 629 14 629 14 644 41 c 0,14,15
 657 64 657 64 657 97 c 0,16,17
 657 136 657 136 642 163 c 1,18,19
 623 194 623 194 593 194 c 2,20,-1
 586 194 l 1,21,22
 588 186 588 186 588 178 c 0,23,24
 588 119 588 119 553 66 c 0,25,26
 504 -10 504 -10 406 -10 c 0,27,28
 371 -10 371 -10 355 -8 c 1,29,30
 342 -5 342 -5 312 11 c 1,31,32
 285 -5 285 -5 270 -8 c 1,33,34
 252 -10 252 -10 200 -10 c 0,35,36
 62 -10 62 -10 62 100 c 0,37,38
 62 185 62 185 142 209 c 0,39,40
 174 219 174 219 221 216 c 1,41,42
 226 267 226 267 245 303 c 0,43,44
 292 390 292 390 407 390 c 0,45,46
 515 390 515 390 562 304 c 0,47,48
 581 269 581 269 587 217 c 1,49,-1
 596 217 l 2,50,51
 677 217 677 217 714 200 c 0,52,53
 770 173 770 173 770 96 c 0,0,1
467 218 m 1,54,55
 467 268 467 268 455 307 c 0,56,57
 438 361 438 361 407 361 c 0,58,59
 373 361 373 361 355 310 c 1,60,61
 343 271 343 271 343 218 c 1,62,-1
 467 218 l 1,54,55
466 194 m 1,63,-1
 342 194 l 1,64,65
 342 15 342 15 408 15 c 0,66,67
 466 15 466 15 466 194 c 1,63,-1
293 20 m 1,68,-1
 271 45 l 1,69,70
 247 74 247 74 239 94 c 0,71,72
 225 130 225 130 222 194 c 1,73,74
 163 174 163 174 163 114 c 0,75,76
 163 18 163 18 264 18 c 0,77,78
 275 18 275 18 293 20 c 1,68,-1
EndSplineSet
Validated: 33
EndChar

StartChar: k2
Encoding: 3350 3350 115
Width: 662
GlyphClass: 2
Flags: W
LayerCount: 2
Fore
SplineSet
662 0 m 1,0,-1
 377 0 l 2,1,2
 354 0 354 0 354 13 c 0,3,4
 354 23 354 23 364 23 c 0,5,6
 380 23 380 23 393 68 c 1,7,8
 408 113 408 113 408 168 c 0,9,10
 408 368 408 368 279 368 c 0,11,12
 180 368 180 368 163 293 c 1,13,14
 185 318 185 318 224 318 c 0,15,16
 350 318 350 318 350 148 c 0,17,18
 350 62 350 62 294 20 c 0,19,20
 257 -8 257 -8 208 -8 c 0,21,22
 156 -8 156 -8 116 35 c 1,23,24
 63 88 63 88 63 185 c 0,25,26
 63 390 63 390 299 390 c 0,27,28
 516 390 516 390 516 171 c 0,29,30
 516 53 516 53 452 23 c 1,31,-1
 563 23 l 1,32,-1
 563 347 l 2,33,34
 563 364 563 364 575 377 c 0,35,36
 588 390 588 390 609 390 c 0,37,38
 662 390 662 390 662 347 c 2,39,-1
 662 0 l 1,0,-1
251 166 m 0,40,41
 251 297 251 297 214 297 c 0,42,43
 174 297 174 297 174 166 c 0,44,45
 174 14 174 14 211 14 c 0,46,47
 251 14 251 14 251 166 c 0,40,41
EndSplineSet
Validated: 1
EndChar

StartChar: k3
Encoding: 3351 3351 116
Width: 630
GlyphClass: 2
Flags: W
LayerCount: 2
Fore
SplineSet
630 189 m 0,0,1
 630 98 630 98 574 39 c 1,2,3
 532 -8 532 -8 490 -8 c 0,4,5
 431 -8 431 -8 431 23 c 0,6,7
 431 52 431 52 455 81 c 1,8,-1
 499 130 l 1,9,10
 523 166 523 166 523 218 c 0,11,12
 523 369 523 369 453 369 c 0,13,14
 396 369 396 369 396 254 c 0,15,16
 396 250 396 250 396.5 241 c 128,-1,17
 397 232 397 232 397 225 c 0,18,19
 398 213 398 213 398 202 c 0,20,21
 398 112 398 112 374 67 c 0,22,23
 334 -8 334 -8 223 -8 c 0,24,25
 141 -8 141 -8 96 56 c 1,26,27
 58 112 58 112 58 200 c 0,28,29
 58 278 58 278 93 336 c 0,30,31
 126 390 126 390 166 390 c 0,32,33
 215 390 215 390 215 332 c 0,34,35
 215 305 215 305 189 259 c 1,36,37
 164 212 164 212 164 170 c 0,38,39
 164 14 164 14 230 14 c 0,40,41
 285 14 285 14 285 118 c 0,42,43
 285 129 285 129 283 165 c 0,44,45
 281 184 281 184 281 200 c 0,46,47
 281 293 281 293 313 337 c 1,48,49
 354 390 354 390 449 390 c 0,50,51
 630 390 630 390 630 189 c 0,0,1
EndSplineSet
Validated: 1
EndChar

StartChar: k4
Encoding: 3352 3352 117
Width: 807
GlyphClass: 2
Flags: W
LayerCount: 2
Fore
SplineSet
807 -1 m 1,0,-1
 343 -1 l 1,1,-1
 343 126 l 1,2,-1
 234 126 l 2,3,4
 214 126 214 126 214 144 c 0,5,6
 214 150 214 150 229 188 c 0,7,8
 244 227 244 227 244 262 c 0,9,10
 244 306 244 306 228 337 c 1,11,12
 213 369 213 369 194 369 c 0,13,14
 148 369 148 369 148 259 c 0,15,16
 148 243 148 243 158 200 c 0,17,18
 167 161 167 161 167 143 c 0,19,20
 167 136 167 136 159 126 c 1,21,22
 152 119 152 119 143 119 c 0,23,24
 107 119 107 119 83 164 c 1,25,26
 63 204 63 204 63 259 c 0,27,28
 63 318 63 318 98 355 c 0,29,30
 132 391 132 391 189 391 c 0,31,32
 264 391 264 391 300 337 c 0,33,34
 324 300 324 300 324 253 c 0,35,36
 324 203 324 203 285 146 c 1,37,-1
 343 146 l 1,38,-1
 343 253 l 2,39,40
 343 391 343 391 502 391 c 0,41,42
 653 391 653 391 653 248 c 2,43,-1
 653 126 l 1,44,-1
 445 126 l 1,45,-1
 445 23 l 1,46,-1
 703 23 l 1,47,-1
 703 350 l 2,48,49
 703 391 703 391 759 391 c 0,50,51
 807 391 807 391 807 347 c 2,52,-1
 807 -1 l 1,0,-1
554 146 m 1,53,-1
 554 316 l 2,54,55
 554 369 554 369 500 369 c 0,56,57
 445 369 445 369 445 315 c 2,58,-1
 445 146 l 1,59,-1
 554 146 l 1,53,-1
EndSplineSet
Validated: 1
EndChar

StartChar: ng
Encoding: 3353 3353 118
Width: 768
GlyphClass: 2
Flags: W
LayerCount: 2
Fore
SplineSet
767 96 m 0,0,1
 767 41 767 41 717 12 c 1,2,3
 678 -9 678 -9 626 -9 c 0,4,5
 586 -9 586 -9 535 5 c 1,6,7
 522 5 522 5 522 20 c 1,8,9
 525 31 525 31 539 31 c 1,10,11
 552 24 552 24 597 24 c 0,12,13
 620 24 620 24 639 45 c 0,14,15
 658 65 658 65 658 101 c 0,16,17
 658 138 658 138 636 157 c 0,18,19
 617 173 617 173 589 173 c 2,20,-1
 545 173 l 2,21,22
 534 173 534 173 534 189 c 0,23,24
 534 210 534 210 547 210 c 2,25,-1
 590 210 l 2,26,27
 660 210 660 210 660 282 c 0,28,29
 660 369 660 369 561 369 c 0,30,31
 520 369 520 369 493 348 c 0,32,33
 465 327 465 327 465 292 c 2,34,-1
 465 30 l 2,35,36
 465 -6 465 -6 417 -9 c 0,37,38
 396 -10 396 -10 379 1 c 128,-1,39
 362 12 362 12 362 30 c 2,40,-1
 362 291 l 2,41,42
 362 326 362 326 332 347 c 128,-1,43
 302 368 302 368 263 368 c 0,44,45
 163 368 163 368 160 251 c 1,46,47
 179 261 179 261 201 261 c 0,48,49
 264 261 264 261 295 215 c 0,50,51
 317 181 317 181 317 126 c 0,52,53
 317 56 317 56 272 19 c 1,54,55
 240 -9 240 -9 201 -9 c 0,56,57
 136 -9 136 -9 98 36 c 1,58,59
 61 84 61 84 61 165 c 0,60,61
 61 390 61 390 263 390 c 0,62,63
 322 390 322 390 348 384 c 0,64,65
 390 375 390 375 416 344 c 1,66,67
 437 376 437 376 476 386 c 1,68,69
 501 391 501 391 556 391 c 0,70,71
 642 391 642 391 686 376 c 0,72,73
 765 349 765 349 765 272 c 0,74,75
 765 244 765 244 749 220 c 0,76,77
 734 197 734 197 706 191 c 1,78,79
 767 179 767 179 767 96 c 0,0,1
234 119 m 0,80,81
 234 158 234 158 225 193 c 1,82,83
 213 233 213 233 193 233 c 0,84,85
 155 233 155 233 155 120 c 0,86,87
 155 86 155 86 164 54 c 0,88,89
 175 17 175 17 194 17 c 0,90,91
 234 17 234 17 234 119 c 0,80,81
EndSplineSet
Validated: 33
EndChar

StartChar: ch1
Encoding: 3354 3354 119
Width: 521
GlyphClass: 2
Flags: W
LayerCount: 2
Fore
SplineSet
520 0 m 1,0,-1
 43 0 l 2,1,2
 29 0 29 0 29 9 c 0,3,4
 29 24 29 24 43 24 c 2,5,-1
 195 24 l 2,6,7
 237 24 237 24 262 59 c 1,8,9
 285 93 285 93 285 138 c 0,10,11
 285 180 285 180 275 211 c 1,12,13
 263 259 263 259 234 259 c 0,14,15
 207 259 207 259 201 210 c 0,16,17
 198 192 198 192 198 133 c 1,18,19
 192 57 192 57 145 57 c 0,20,21
 90 57 90 57 90 142 c 0,22,23
 90 279 90 279 243 279 c 0,24,25
 312 279 312 279 350 228 c 0,26,27
 379 190 379 190 379 141 c 0,28,29
 379 50 379 50 313 24 c 1,30,-1
 416 24 l 1,31,-1
 416 342 l 2,32,33
 416 362 416 362 431 377 c 1,34,35
 447 391 447 391 468 391 c 0,36,37
 488 391 488 391 504 377 c 0,38,39
 520 362 520 362 520 342 c 2,40,-1
 520 0 l 1,0,-1
EndSplineSet
Validated: 1
EndChar

StartChar: ch2
Encoding: 3355 3355 120
Width: 846
GlyphClass: 2
Flags: W
LayerCount: 2
Fore
SplineSet
846 170 m 0,0,1
 846 75 846 75 797 29 c 0,2,3
 759 -8 759 -8 698 -8 c 0,4,5
 647 -8 647 -8 611 25 c 0,6,7
 562 71 562 71 562 174 c 0,8,9
 562 268 562 268 592 313 c 1,10,11
 615 351 615 351 669 357 c 1,12,13
 652 368 652 368 617 368 c 0,14,15
 560 368 560 368 524 312 c 0,16,17
 494 266 494 266 494 202 c 0,18,19
 494 166 494 166 525 117 c 0,20,21
 557 67 557 67 557 35 c 0,22,23
 557 19 557 19 549 6 c 1,24,25
 545 2 545 2 543 -1 c 1,26,-1
 38 -1 l 2,27,28
 24 -1 24 -1 24 9 c 0,29,30
 24 24 24 24 38 24 c 2,31,-1
 189 24 l 2,32,33
 232 24 232 24 257 59 c 0,34,35
 281 92 281 92 281 138 c 0,36,37
 281 176 281 176 270 211 c 0,38,39
 256 259 256 259 229 259 c 128,-1,40
 202 259 202 259 196 210 c 0,41,42
 193 192 193 192 193 133 c 1,43,44
 187 57 187 57 140 57 c 0,45,46
 86 57 86 57 86 142 c 0,47,48
 86 279 86 279 238 279 c 0,49,50
 309 279 309 279 345 228 c 1,51,52
 374 190 374 190 374 141 c 0,53,54
 374 50 374 50 308 24 c 1,55,-1
 442 24 l 1,56,57
 398 74 398 74 398 199 c 0,58,59
 398 278 398 278 454 332 c 0,60,61
 516 391 516 391 617 391 c 0,62,63
 719 391 719 391 782 331 c 0,64,65
 846 270 846 270 846 170 c 0,0,1
739 173 m 0,66,67
 739 227 739 227 730 275 c 0,68,69
 720 330 720 330 700 330 c 128,-1,70
 680 330 680 330 668 277 c 0,71,72
 658 232 658 232 656 178 c 1,73,74
 656 124 656 124 668 77 c 1,75,76
 680 24 680 24 700 24 c 0,77,78
 719 24 719 24 729 76 c 1,79,80
 739 116 739 116 739 173 c 0,66,67
EndSplineSet
Validated: 1
EndChar

StartChar: ch3
Encoding: 3356 3356 121
Width: 595
GlyphClass: 2
Flags: W
LayerCount: 2
Fore
SplineSet
595 275 m 0,0,1
 595 186 595 186 526 152 c 1,2,3
 594 128 594 128 594 70 c 0,4,5
 594 26 594 26 558 4 c 1,6,7
 526 -14 526 -14 477 -14 c 0,8,9
 436 -14 436 -14 408 4 c 1,10,11
 375 23 375 23 371 59 c 0,12,13
 368 78 368 78 372 91 c 1,14,15
 362 85 362 85 325 57 c 1,16,17
 312 45 312 45 261 8 c 1,18,19
 226 -10 226 -10 164 -10 c 0,20,21
 112 -10 112 -10 92 3 c 0,22,23
 62 21 62 21 62 75 c 0,24,25
 62 117 62 117 87 134 c 0,26,27
 105 146 105 146 144 146 c 2,28,-1
 395 146 l 2,29,30
 448 146 448 146 466 186 c 1,31,32
 477 214 477 214 477 272 c 0,33,34
 477 304 477 304 468 332 c 1,35,36
 453 369 453 369 428 369 c 0,37,38
 414 369 414 369 412 351 c 1,39,-1
 412 350 l 1,40,-1
 412 349 l 1,41,-1
 412 348 l 1,42,-1
 412 347 l 1,43,-1
 412 346 l 1,44,-1
 412 345 l 1,45,-1
 412 344 l 1,46,-1
 412 343 l 1,47,-1
 412 342 l 1,48,-1
 412 341 l 1,49,-1
 412 340 l 1,50,-1
 412 339 l 1,51,-1
 412 338 l 1,52,-1
 412 337 l 1,53,-1
 412 336 l 1,54,-1
 412 335 l 1,55,-1
 412 334 l 1,56,-1
 412 333 l 1,57,-1
 412 332 l 1,58,-1
 412 323 l 1,59,-1
 412 190 l 2,60,61
 412 165 412 165 364 165 c 0,62,63
 309 165 309 165 309 190 c 2,64,-1
 309 312 l 2,65,66
 309 369 309 369 239 369 c 0,67,68
 191 369 191 369 172 359 c 1,69,70
 144 346 144 346 144 303 c 1,71,72
 157 317 157 317 186 317 c 0,73,74
 228 317 228 317 256 300 c 0,75,76
 290 279 290 279 290 242 c 0,77,78
 290 204 290 204 253 182 c 1,79,80
 222 165 222 165 182 165 c 0,81,82
 61 165 61 165 61 271 c 0,83,84
 61 342 61 342 120 371 c 0,85,86
 159 390 159 390 242 390 c 0,87,88
 291 390 291 390 307 386 c 0,89,90
 349 377 349 377 364 344 c 1,91,92
 374 390 374 390 440 390 c 0,93,94
 512 390 512 390 549 370 c 1,95,96
 595 342 595 342 595 275 c 0,0,1
520 71 m 128,-1,98
 520 139 520 139 482 139 c 0,99,100
 443 139 443 139 443 71 c 128,-1,101
 443 3 443 3 482 3 c 0,102,97
 520 3 520 3 520 71 c 128,-1,98
216 239 m 0,103,104
 216 306 216 306 182 306 c 0,105,106
 150 306 150 306 150 243 c 0,107,108
 150 221 150 221 156 203 c 0,109,110
 165 177 165 177 183 177 c 0,111,112
 198 177 198 177 209 201 c 0,113,114
 216 218 216 218 216 239 c 0,103,104
395 132 m 1,115,-1
 231 133 l 2,116,117
 160 133 160 133 160 82 c 0,118,119
 160 37 160 37 222 37 c 0,120,121
 253 37 253 37 296 71 c 1,122,123
 354 115 354 115 367 121 c 0,124,125
 380 128 380 128 395 132 c 1,115,-1
EndSplineSet
Validated: 33
EndChar

StartChar: ch4
Encoding: 3357 3357 122
Width: 1058
GlyphClass: 2
Flags: W
LayerCount: 2
Fore
SplineSet
1058 195 m 0,0,1
 1058 -9 1058 -9 904 -9 c 0,2,3
 860 -9 860 -9 843 -2 c 1,4,5
 813 7 813 7 801 39 c 1,6,7
 789 -10 789 -10 682 -10 c 0,8,9
 566 -10 566 -10 539 88 c 1,10,-1
 520 270 l 2,11,12
 509 368 509 368 434 368 c 0,13,14
 407 368 407 368 386 360 c 1,15,16
 477 309 477 309 477 180 c 0,17,18
 477 103 477 103 451 53 c 1,19,20
 416 -9 416 -9 345 -9 c 0,21,22
 289 -9 289 -9 261 25 c 1,23,24
 213 80 213 80 213 180 c 0,25,26
 213 309 213 309 304 360 c 1,27,28
 285 368 285 368 262 368 c 0,29,30
 208 368 208 368 183 311 c 0,31,32
 165 269 165 269 165 208 c 0,33,34
 165 166 165 166 174 122 c 0,35,36
 192 42 192 42 193 41 c 0,37,38
 195 25 195 25 195 22 c 0,39,40
 195 -9 195 -9 156 -9 c 0,41,42
 100 -9 100 -9 76 63 c 0,43,44
 59 116 59 116 59 184 c 0,45,46
 59 390 59 390 261 390 c 0,47,48
 313 390 313 390 345 368 c 1,49,50
 377 390 377 390 434 390 c 0,51,52
 571 390 571 390 611 293 c 1,53,54
 626 260 626 260 637 111 c 0,55,56
 645 13 645 13 699 13 c 0,57,58
 745 13 745 13 745 58 c 2,59,-1
 745 338 l 2,60,61
 745 360 745 360 762 375 c 1,62,63
 778 391 778 391 799 391 c 128,-1,64
 820 391 820 391 836 375 c 0,65,66
 851 360 851 360 851 338 c 2,67,-1
 851 58 l 2,68,69
 851 13 851 13 892 13 c 128,-1,70
 933 13 933 13 953 86 c 0,71,72
 967 136 967 136 967 197 c 0,73,74
 967 233 967 233 946 284 c 1,75,76
 926 336 926 336 926 357 c 0,77,78
 926 369 926 369 936 380 c 1,79,80
 949 391 949 391 958 391 c 0,81,82
 1058 391 1058 391 1058 195 c 0,0,1
381 164 m 0,83,84
 381 206 381 206 374 256 c 0,85,86
 364 332 364 332 346 332 c 0,87,88
 326 332 326 332 314 260 c 1,89,90
 307 202 307 202 307 164 c 0,91,92
 307 130 307 130 315 80 c 0,93,94
 327 13 327 13 346 13 c 0,95,96
 364 13 364 13 375 78 c 1,97,98
 381 120 381 120 381 164 c 0,83,84
EndSplineSet
Validated: 1
EndChar

StartChar: nj
Encoding: 3358 3358 123
Width: 916
GlyphClass: 2
Flags: W
LayerCount: 2
Fore
SplineSet
915 184 m 0,0,1
 915 71 915 71 890 28 c 0,2,3
 869 -9 869 -9 819 -9 c 0,4,5
 782 -9 782 -9 782 41 c 0,6,7
 782 73 782 73 796 115 c 0,8,9
 810 159 810 159 810 208 c 0,10,11
 810 286 810 286 783 329 c 0,12,13
 758 368 758 368 713 368 c 0,14,15
 692 368 692 368 671 360 c 1,16,17
 762 308 762 308 762 180 c 0,18,19
 762 55 762 55 698 12 c 1,20,21
 680 -9 680 -9 630 -9 c 0,22,23
 567 -9 567 -9 546 25 c 1,24,25
 498 72 498 72 498 180 c 0,26,27
 498 309 498 309 589 360 c 1,28,29
 568 368 568 368 546 368 c 0,30,31
 514 368 514 368 487 349 c 1,32,33
 463 330 463 330 463 299 c 2,34,-1
 463 39 l 2,35,36
 463 21 463 21 449 5 c 1,37,38
 435 -9 435 -9 418 -9 c 0,39,40
 394 -9 394 -9 377 4 c 0,41,42
 359 18 359 18 359 39 c 2,43,-1
 359 315 l 2,44,45
 359 368 359 368 272 368 c 0,46,47
 167 368 167 368 155 242 c 1,48,49
 174 261 174 261 197 261 c 0,50,51
 264 261 264 261 295 215 c 0,52,53
 318 182 318 182 318 126 c 0,54,55
 318 56 318 56 271 19 c 0,56,57
 237 -9 237 -9 197 -9 c 0,58,59
 138 -9 138 -9 101 36 c 0,60,61
 61 85 61 85 61 165 c 0,62,63
 61 258 61 258 114 322 c 0,64,65
 171 390 171 390 270 390 c 0,66,67
 330 390 330 390 355 384 c 0,68,69
 400 375 400 375 415 343 c 1,70,71
 427 373 427 373 462 384 c 1,72,73
 486 390 486 390 546 390 c 0,74,75
 598 390 598 390 630 368 c 1,76,77
 662 390 662 390 714 390 c 0,78,79
 915 390 915 390 915 184 c 0,0,1
666 164 m 0,80,81
 666 221 666 221 656 275 c 1,82,83
 646 341 646 341 630 341 c 0,84,85
 610 341 610 341 599 263 c 0,86,87
 592 214 592 214 592 164 c 0,88,89
 592 113 592 113 602 70 c 0,90,91
 614 13 614 13 631 13 c 128,-1,92
 648 13 648 13 657 66 c 1,93,94
 666 110 666 110 666 164 c 0,80,81
227 131 m 0,95,96
 227 245 227 245 193 245 c 0,97,98
 170 245 170 245 162 206 c 0,99,100
 160 193 160 193 157 131 c 0,101,102
 156 101 156 101 162 63 c 0,103,104
 170 13 170 13 193 13 c 0,105,106
 227 13 227 13 227 131 c 0,95,96
EndSplineSet
Validated: 33
EndChar

StartChar: t1
Encoding: 3359 3359 124
Width: 410
GlyphClass: 2
Flags: W
LayerCount: 2
Fore
SplineSet
410 93 m 0,0,1
 410 -10 410 -10 240 -10 c 0,2,3
 130 -10 130 -10 92 15 c 1,4,5
 66 34 66 34 66 75 c 0,6,7
 66 96 66 96 83 110 c 1,8,9
 102 124 102 124 126 124 c 0,10,11
 185 124 185 124 185 73 c 0,12,13
 185 13 185 13 240 13 c 0,14,15
 308 13 308 13 308 94 c 0,16,17
 308 172 308 172 236 172 c 0,18,19
 62 172 62 172 62 271 c 0,20,21
 62 337 62 337 103 364 c 1,22,23
 146 390 146 390 241 390 c 0,24,25
 349 390 349 390 387 364 c 1,26,27
 410 347 410 347 410 316 c 0,28,29
 410 264 410 264 351 264 c 0,30,31
 288 264 288 264 288 316 c 0,32,33
 288 369 288 369 239 369 c 0,34,35
 206 369 206 369 186 338 c 1,36,37
 172 312 172 312 172 279 c 0,38,39
 172 244 172 244 192 226 c 1,40,41
 211 207 211 207 239 207 c 0,42,43
 329 207 329 207 369 182 c 1,44,45
 410 158 410 158 410 93 c 0,0,1
EndSplineSet
Validated: 1
EndChar

StartChar: t2
Encoding: 3360 3360 125
Width: 427
GlyphClass: 2
Flags: W
LayerCount: 2
Fore
SplineSet
426 189 m 0,0,1
 426 100 426 100 380 47 c 0,2,3
 331 -11 331 -11 244 -11 c 0,4,5
 155 -11 155 -11 106 47 c 0,6,7
 61 101 61 101 61 189 c 0,8,9
 61 276 61 276 106 332 c 1,10,11
 156 392 156 392 244 392 c 0,12,13
 330 392 330 392 380 332 c 0,14,15
 426 277 426 277 426 189 c 0,0,1
306 188 m 0,16,17
 306 364 306 364 245 364 c 0,18,19
 181 364 181 364 181 188 c 0,20,21
 181 13 181 13 245 13 c 0,22,23
 306 13 306 13 306 188 c 0,16,17
EndSplineSet
Validated: 1
EndChar

StartChar: t3
Encoding: 3361 3361 126
Width: 805
GlyphClass: 2
Flags: W
LayerCount: 2
Fore
SplineSet
805 194 m 0,0,1
 805 93 805 93 774 46 c 1,2,3
 740 -9 740 -9 659 -9 c 0,4,5
 583 -9 583 -9 555 38 c 1,6,7
 532 -9 532 -9 458 -9 c 0,8,9
 312 -9 312 -9 312 138 c 2,10,-1
 312 262 l 2,11,12
 312 303 312 303 292 335 c 1,13,14
 267 369 267 369 231 369 c 0,15,16
 144 369 144 369 144 202 c 0,17,18
 144 167 144 167 172 118 c 1,19,20
 199 68 199 68 199 36 c 0,21,22
 199 -9 199 -9 160 -9 c 0,23,24
 62 -9 62 -9 62 199 c 0,25,26
 62 280 62 280 100 332 c 1,27,28
 145 391 145 391 231 391 c 0,29,30
 310 391 310 391 353 349 c 1,31,32
 397 308 397 308 397 240 c 2,33,-1
 397 123 l 2,34,35
 397 78 397 78 414 49 c 0,36,37
 434 13 434 13 470 13 c 0,38,39
 486 13 486 13 498 27 c 0,40,41
 509 40 509 40 509 57 c 2,42,-1
 509 338 l 2,43,44
 509 360 509 360 524 375 c 0,45,46
 540 391 540 391 559 391 c 0,47,48
 579 391 579 391 594 375 c 0,49,50
 608 359 608 359 608 338 c 2,51,-1
 608 57 l 2,52,53
 608 13 608 13 647 13 c 0,54,55
 682 13 682 13 701 70 c 1,56,57
 719 120 719 120 719 196 c 0,58,59
 719 239 719 239 699 288 c 0,60,61
 680 333 680 333 680 357 c 0,62,63
 680 367 680 367 689 379 c 128,-1,64
 698 391 698 391 711 391 c 0,65,66
 805 391 805 391 805 194 c 0,0,1
EndSplineSet
Validated: 1
EndChar

StartChar: t4
Encoding: 3362 3362 127
Width: 880
GlyphClass: 2
Flags: W
LayerCount: 2
Fore
SplineSet
880 219 m 0,0,1
 880 110 880 110 836 55 c 0,2,3
 784 -9 784 -9 667 -9 c 0,4,5
 582 -9 582 -9 554 38 c 1,6,7
 530 -9 530 -9 457 -9 c 0,8,9
 368 -9 368 -9 335 43 c 0,10,11
 310 81 310 81 310 169 c 0,12,13
 310 173 310 173 310.5 188 c 128,-1,14
 311 203 311 203 311 215 c 0,15,16
 312 236 312 236 312 262 c 0,17,18
 312 302 312 302 292 334 c 1,19,20
 268 369 268 369 230 369 c 0,21,22
 143 369 143 369 143 202 c 0,23,24
 143 169 143 169 171 118 c 128,-1,25
 199 67 199 67 199 36 c 0,26,27
 199 -9 199 -9 160 -9 c 0,28,29
 62 -9 62 -9 62 199 c 0,30,31
 62 285 62 285 106 338 c 0,32,33
 149 391 149 391 230 391 c 0,34,35
 303 391 303 391 347 353 c 1,36,37
 396 313 396 313 396 240 c 2,38,-1
 396 123 l 2,39,40
 396 79 396 79 412 50 c 0,41,42
 432 13 432 13 469 13 c 0,43,44
 485 13 485 13 497 27 c 0,45,46
 508 40 508 40 508 57 c 2,47,-1
 508 338 l 2,48,49
 508 360 508 360 523 375 c 0,50,51
 538 391 538 391 558 391 c 128,-1,52
 578 391 578 391 593 375 c 0,53,54
 607 359 607 359 607 338 c 2,55,-1
 607 57 l 2,56,57
 607 13 607 13 666 13 c 0,58,59
 717 13 717 13 754 50 c 0,60,61
 789 86 789 86 792 142 c 1,62,63
 774 123 774 123 751 123 c 0,64,65
 693 123 693 123 664 161 c 1,66,67
 635 194 635 194 635 257 c 0,68,69
 635 311 635 311 667 351 c 0,70,71
 700 391 700 391 751 391 c 0,72,73
 880 391 880 391 880 219 c 0,0,1
797 255 m 128,-1,75
 797 368 797 368 757 368 c 0,76,77
 714 368 714 368 714 255 c 128,-1,78
 714 142 714 142 757 142 c 0,79,74
 797 142 797 142 797 255 c 128,-1,75
EndSplineSet
Validated: 1
EndChar

StartChar: nh
Encoding: 3363 3363 128
Width: 946
GlyphClass: 2
Flags: W
LayerCount: 2
Fore
SplineSet
945 183 m 0,0,1
 945 -9 945 -9 841 -9 c 0,2,3
 833 -9 833 -9 821 4 c 0,4,5
 810 17 810 17 810 31 c 0,6,7
 810 46 810 46 829 93 c 0,8,9
 848 138 848 138 848 204 c 0,10,11
 848 262 848 262 830 310 c 0,12,13
 809 368 809 368 773 368 c 0,14,15
 715 368 715 368 715 294 c 2,16,-1
 715 32 l 2,17,18
 715 13 715 13 696 3 c 1,19,20
 678 -9 678 -9 659 -9 c 128,-1,21
 640 -9 640 -9 627 3 c 0,22,23
 613 15 613 15 613 32 c 2,24,-1
 613 282 l 2,25,26
 613 326 613 326 606 340 c 0,27,28
 594 368 594 368 555 368 c 0,29,30
 503 368 503 368 503 287 c 2,31,-1
 503 32 l 2,32,33
 503 14 503 14 486 2 c 0,34,35
 469 -9 469 -9 449 -9 c 0,36,37
 431 -9 431 -9 416 3 c 128,-1,38
 401 15 401 15 401 32 c 2,39,-1
 401 287 l 2,40,41
 401 310 401 310 377 335 c 1,42,43
 342 368 342 368 283 368 c 0,44,45
 195 368 195 368 163 282 c 1,46,47
 191 316 191 316 238 316 c 0,48,49
 352 316 352 316 352 147 c 0,50,51
 352 64 352 64 301 23 c 1,52,53
 263 -9 263 -9 206 -9 c 0,54,55
 142 -9 142 -9 105 33 c 1,56,57
 62 84 62 84 62 178 c 0,58,59
 62 262 62 262 106 318 c 0,60,61
 164 391 164 391 283 391 c 0,62,63
 362 391 362 391 382 389 c 1,64,65
 435 381 435 381 455 345 c 1,66,67
 473 391 473 391 555 391 c 0,68,69
 638 391 638 391 667 344 c 1,70,71
 678 391 678 391 772 391 c 0,72,73
 945 391 945 391 945 183 c 0,0,1
252 146 m 0,74,75
 252 286 252 286 213 286 c 0,76,77
 193 286 193 286 182 236 c 0,78,79
 175 204 175 204 175 165 c 0,80,81
 175 124 175 124 181 80 c 0,82,83
 190 13 190 13 210 13 c 0,84,85
 252 13 252 13 252 146 c 0,74,75
EndSplineSet
Validated: 1
EndChar

StartChar: th1
Encoding: 3364 3364 129
Width: 631
GlyphClass: 2
Flags: W
LayerCount: 2
Fore
SplineSet
631 184 m 0,0,1
 631 75 631 75 597 28 c 1,2,3
 573 -9 573 -9 535 -9 c 0,4,5
 507 -9 507 -9 501 7 c 0,6,7
 498 13 498 13 498 41 c 0,8,9
 498 77 498 77 512 115 c 0,10,11
 526 154 526 154 526 208 c 0,12,13
 526 364 526 364 429 364 c 0,14,15
 407 364 407 364 386 356 c 1,16,17
 477 301 477 301 477 180 c 0,18,19
 477 56 477 56 415 12 c 1,20,21
 394 -9 394 -9 345 -9 c 0,22,23
 283 -9 283 -9 261 25 c 1,24,25
 213 72 213 72 213 180 c 0,26,27
 213 303 213 303 304 357 c 1,28,29
 283 365 283 365 262 365 c 0,30,31
 165 365 165 365 165 208 c 0,32,33
 165 150 165 150 174 116 c 0,34,35
 188 65 188 65 193 41 c 1,36,37
 195 25 195 25 195 22 c 0,38,39
 195 -9 195 -9 156 -9 c 0,40,41
 118 -9 118 -9 93 28 c 0,42,43
 59 77 59 77 59 184 c 0,44,45
 59 390 59 390 261 390 c 0,46,47
 313 390 313 390 345 368 c 1,48,49
 377 390 377 390 429 390 c 0,50,51
 631 390 631 390 631 184 c 0,0,1
381 164 m 0,52,53
 381 218 381 218 372 270 c 1,54,55
 360 332 360 332 346 332 c 0,56,57
 325 332 325 332 314 258 c 1,58,59
 307 200 307 200 307 164 c 0,60,61
 307 120 307 120 317 70 c 0,62,63
 329 13 329 13 346 13 c 0,64,65
 362 13 362 13 373 66 c 1,66,67
 381 112 381 112 381 164 c 0,52,53
EndSplineSet
Validated: 1
EndChar

StartChar: th2
Encoding: 3365 3365 130
Width: 613
GlyphClass: 2
Flags: W
LayerCount: 2
Fore
SplineSet
612 0 m 1,0,-1
 63 -1 l 1,1,-1
 63 349 l 2,2,3
 63 391 63 391 116 391 c 0,4,5
 167 391 167 391 167 345 c 2,6,-1
 167 24 l 1,7,-1
 263 24 l 1,8,-1
 263 223 l 2,9,10
 263 390 263 390 439 390 c 0,11,12
 612 390 612 390 612 223 c 2,13,-1
 612 0 l 1,0,-1
512 24 m 1,14,-1
 512 256 l 2,15,16
 512 364 512 364 440 364 c 0,17,18
 366 364 366 364 366 260 c 2,19,-1
 366 24 l 1,20,-1
 512 24 l 1,14,-1
EndSplineSet
Validated: 1
EndChar

StartChar: th3
Encoding: 3366 3366 131
Width: 485
GlyphClass: 2
Flags: W
LayerCount: 2
Fore
SplineSet
484 96 m 0,0,1
 484 40 484 40 434 12 c 0,2,3
 395 -9 395 -9 342 -9 c 0,4,5
 303 -9 303 -9 252 5 c 1,6,7
 237 5 237 5 240 20 c 0,8,9
 242 31 242 31 255 31 c 1,10,11
 269 24 269 24 313 24 c 0,12,13
 336 24 336 24 356 45 c 0,14,15
 376 67 376 67 376 101 c 0,16,17
 376 138 376 138 352 157 c 0,18,19
 333 173 333 173 306 173 c 2,20,-1
 262 173 l 2,21,22
 250 173 250 173 250 189 c 0,23,24
 250 210 250 210 264 210 c 2,25,-1
 307 210 l 2,26,27
 378 210 378 210 378 282 c 0,28,29
 378 369 378 369 278 369 c 0,30,31
 214 369 214 369 182 299 c 0,32,33
 159 247 159 247 160 188 c 0,34,35
 160 132 160 132 178 91 c 1,36,37
 195 48 195 48 195 46 c 0,38,39
 195 28 195 28 182 10 c 0,40,41
 169 -9 169 -9 145 -9 c 0,42,43
 111 -9 111 -9 90 28 c 0,44,45
 62 76 62 76 62 171 c 0,46,47
 62 274 62 274 115 333 c 0,48,49
 167 391 167 391 272 391 c 0,50,51
 360 391 360 391 403 376 c 0,52,53
 482 349 482 349 482 272 c 0,54,55
 482 241 482 241 465 220 c 1,56,57
 449 197 449 197 422 191 c 1,58,59
 484 179 484 179 484 96 c 0,0,1
EndSplineSet
Validated: 33
EndChar

StartChar: th4
Encoding: 3367 3367 132
Width: 582
GlyphClass: 2
Flags: W
LayerCount: 2
Fore
SplineSet
582 195 m 0,0,1
 582 -9 582 -9 428 -9 c 0,2,3
 374 -9 374 -9 351 4 c 0,4,5
 334 13 334 13 325 39 c 1,6,7
 312 -9 312 -9 216 -9 c 0,8,9
 61 -9 61 -9 61 195 c 0,10,11
 61 391 61 391 161 391 c 0,12,13
 174 391 174 391 184 379 c 0,14,15
 195 366 195 366 195 357 c 0,16,17
 195 336 195 336 174 288 c 0,18,19
 154 244 154 244 154 197 c 0,20,21
 154 116 154 116 171 71 c 0,22,23
 192 13 192 13 228 13 c 0,24,25
 269 13 269 13 269 58 c 2,26,-1
 269 338 l 2,27,28
 269 360 269 360 285 376 c 1,29,30
 302 391 302 391 323 391 c 128,-1,31
 344 391 344 391 359 376 c 128,-1,32
 374 361 374 361 374 338 c 2,33,-1
 374 58 l 2,34,35
 374 13 374 13 415 13 c 0,36,37
 451 13 451 13 472 71 c 0,38,39
 489 116 489 116 489 197 c 0,40,41
 489 244 489 244 469 288 c 0,42,43
 449 334 449 334 449 357 c 0,44,45
 449 368 449 368 459 379 c 0,46,47
 470 391 470 391 482 391 c 0,48,49
 582 391 582 391 582 195 c 0,0,1
EndSplineSet
Validated: 1
EndChar

StartChar: n1
Encoding: 3368 3368 133
Width: 582
GlyphClass: 2
Flags: W
LayerCount: 2
Fore
SplineSet
582 187 m 0,0,1
 582 -9 582 -9 482 -9 c 0,2,3
 470 -9 470 -9 459 3 c 0,4,5
 449 14 449 14 449 25 c 0,6,7
 449 48 449 48 469 94 c 0,8,9
 489 138 489 138 489 185 c 0,10,11
 489 265 489 265 472 312 c 0,12,13
 451 369 451 369 415 369 c 0,14,15
 374 369 374 369 374 324 c 2,16,-1
 374 44 l 2,17,18
 374 21 374 21 359 6 c 128,-1,19
 344 -9 344 -9 323 -9 c 0,20,21
 301 -9 301 -9 285 7 c 128,-1,22
 269 23 269 23 269 44 c 2,23,-1
 269 324 l 2,24,25
 269 369 269 369 228 369 c 0,26,27
 192 369 192 369 171 312 c 0,28,29
 154 265 154 265 154 185 c 0,30,31
 154 138 154 138 174 94 c 0,32,33
 195 46 195 46 195 25 c 0,34,35
 195 16 195 16 184 3 c 0,36,37
 174 -9 174 -9 161 -9 c 0,38,39
 61 -9 61 -9 61 187 c 0,40,41
 61 391 61 391 216 391 c 0,42,43
 312 391 312 391 325 343 c 1,44,45
 334 369 334 369 351 378 c 0,46,47
 374 391 374 391 428 391 c 0,48,49
 582 391 582 391 582 187 c 0,0,1
EndSplineSet
Validated: 1
EndChar

StartChar: p1
Encoding: 3370 3370 134
Width: 587
GlyphClass: 2
Flags: W
LayerCount: 2
Fore
SplineSet
587 0 m 1,0,-1
 272 0 l 2,1,2
 243 0 243 0 243 25 c 0,3,4
 243 38 243 38 256 80 c 128,-1,5
 269 122 269 122 269 151 c 0,6,7
 269 282 269 282 213 282 c 0,8,9
 179 282 179 282 168 238 c 0,10,11
 162 211 162 211 162 151 c 0,12,13
 162 125 162 125 172 92 c 0,14,15
 182 58 182 58 182 28 c 0,16,17
 182 -9 182 -9 136 -9 c 0,18,19
 105 -9 105 -9 81 37 c 1,20,21
 58 85 58 85 58 151 c 0,22,23
 58 222 58 222 100 259 c 1,24,25
 140 296 140 296 214 296 c 0,26,27
 291 296 291 296 331 250 c 0,28,29
 365 210 365 210 365 151 c 0,30,31
 365 81 365 81 311 24 c 1,32,-1
 477 24 l 1,33,-1
 477 341 l 2,34,35
 477 384 477 384 522 391 c 0,36,37
 546 394 546 394 566 377 c 0,38,39
 587 359 587 359 587 338 c 2,40,-1
 587 0 l 1,0,-1
EndSplineSet
Validated: 33
EndChar

StartChar: p2
Encoding: 3371 3371 135
Width: 769
GlyphClass: 2
Flags: W
LayerCount: 2
Fore
SplineSet
768 0 m 1,0,-1
 272 0 l 2,1,2
 243 0 243 0 243 25 c 0,3,4
 243 38 243 38 256 80 c 128,-1,5
 269 122 269 122 269 151 c 0,6,7
 269 282 269 282 213 282 c 0,8,9
 179 282 179 282 168 238 c 0,10,11
 162 211 162 211 162 151 c 0,12,13
 162 125 162 125 172 92 c 0,14,15
 182 58 182 58 182 28 c 0,16,17
 182 -9 182 -9 136 -9 c 0,18,19
 105 -9 105 -9 81 37 c 1,20,21
 58 85 58 85 58 151 c 0,22,23
 58 222 58 222 100 259 c 1,24,25
 140 296 140 296 214 296 c 0,26,27
 291 296 291 296 331 250 c 0,28,29
 365 210 365 210 365 151 c 0,30,31
 365 81 365 81 311 24 c 1,32,-1
 419 24 l 1,33,-1
 419 217 l 2,34,35
 419 299 419 299 450 337 c 1,36,37
 490 391 490 391 595 391 c 0,38,39
 768 391 768 391 768 255 c 2,40,-1
 768 0 l 1,0,-1
668 24 m 1,41,-1
 668 287 l 2,42,43
 668 369 668 369 595 369 c 0,44,45
 521 369 521 369 521 281 c 2,46,-1
 521 24 l 1,47,-1
 668 24 l 1,41,-1
EndSplineSet
Validated: 1
EndChar

StartChar: p3
Encoding: 3372 3372 136
Width: 785
GlyphClass: 2
Flags: W
LayerCount: 2
Fore
SplineSet
784 -1 m 1,0,-1
 505 -1 l 2,1,2
 474 -1 474 -1 474 24 c 0,3,4
 474 45 474 45 505 99 c 1,5,6
 537 151 537 151 537 185 c 0,7,8
 537 368 537 368 460 368 c 0,9,10
 426 368 426 368 426 331 c 2,11,-1
 426 43 l 2,12,13
 426 22 426 22 410 6 c 128,-1,14
 394 -10 394 -10 373 -10 c 0,15,16
 353 -10 353 -10 337 6 c 0,17,18
 322 22 322 22 322 43 c 2,19,-1
 322 336 l 2,20,21
 322 369 322 369 268 369 c 0,22,23
 209 369 209 369 179 336 c 1,24,25
 148 304 148 304 150 251 c 1,26,-1
 150 242 l 1,27,28
 165 262 165 262 185 262 c 0,29,30
 239 262 239 262 266 219 c 0,31,32
 288 184 288 184 288 126 c 0,33,34
 288 36 288 36 226 1 c 0,35,36
 205 -11 205 -11 185 -11 c 0,37,38
 126 -11 126 -11 90 49 c 1,39,40
 61 101 61 101 61 165 c 0,41,42
 61 390 61 390 263 390 c 0,43,44
 360 390 360 390 380 345 c 1,45,46
 391 392 391 392 465 392 c 0,47,48
 550 392 550 392 591 329 c 0,49,50
 626 277 626 277 626 193 c 0,51,52
 626 84 626 84 550 23 c 1,53,-1
 681 23 l 1,54,-1
 681 342 l 2,55,56
 681 392 681 392 733 392 c 0,57,58
 755 392 755 392 770 376 c 0,59,60
 784 362 784 362 784 338 c 2,61,-1
 784 -1 l 1,0,-1
211 131 m 0,62,63
 211 246 211 246 181 246 c 0,64,65
 152 246 152 246 152 135 c 0,66,67
 152 12 152 12 181 12 c 0,68,69
 211 12 211 12 211 131 c 0,62,63
EndSplineSet
Validated: 33
EndChar

StartChar: p4
Encoding: 3373 3373 137
Width: 480
GlyphClass: 2
Flags: W
LayerCount: 2
Fore
SplineSet
479 300 m 0,0,1
 479 241 479 241 406 241 c 0,2,3
 393 241 393 241 385 242 c 0,4,5
 380 242 380 242 374 242 c 1,6,-1
 369 243 l 1,7,8
 322 243 322 243 322 200 c 128,-1,9
 322 157 322 157 368 157 c 0,10,11
 478 157 478 157 478 86 c 0,12,13
 478 30 478 30 441 11 c 1,14,15
 417 0 417 0 364 0 c 2,16,-1
 246 0 l 2,17,18
 237 0 237 0 233 3 c 128,-1,19
 229 6 229 6 230 12 c 0,20,21
 233 24 233 24 246 24 c 2,22,-1
 318 24 l 2,23,24
 375 24 375 24 375 81 c 0,25,26
 375 137 375 137 316 137 c 0,27,28
 282 137 282 137 266 141 c 0,29,30
 227 153 227 153 227 196 c 0,31,32
 227 261 227 261 296 261 c 0,33,34
 306 261 306 261 314 260 c 1,35,-1
 333 260 l 2,36,37
 375 260 375 260 375 304 c 0,38,39
 375 334 375 334 366 344 c 0,40,41
 346 369 346 369 284 369 c 0,42,43
 161 369 161 369 161 180 c 0,44,45
 161 164 161 164 174 116 c 0,46,47
 186 68 186 68 186 33 c 0,48,49
 186 19 186 19 175 5 c 128,-1,50
 164 -9 164 -9 150 -9 c 0,51,52
 113 -9 113 -9 89 36 c 0,53,54
 62 87 62 87 62 179 c 0,55,56
 62 391 62 391 286 391 c 0,57,58
 386 391 386 391 423 379 c 0,59,60
 479 361 479 361 479 300 c 0,0,1
EndSplineSet
Validated: 1
EndChar

StartChar: m1
Encoding: 3374 3374 138
Width: 505
GlyphClass: 2
Flags: W
LayerCount: 2
Fore
SplineSet
505 0 m 1,0,-1
 62 0 l 1,1,-1
 62 206 l 2,2,3
 62 391 62 391 287 391 c 0,4,5
 505 391 505 391 505 201 c 2,6,-1
 505 0 l 1,0,-1
401 24 m 1,7,-1
 401 200 l 2,8,9
 401 276 401 276 387 307 c 1,10,11
 363 365 363 365 290 365 c 0,12,13
 235 365 235 365 204 334 c 1,14,-1
 206 334 l 2,15,16
 273 334 273 334 310 285 c 0,17,18
 345 239 345 239 345 168 c 0,19,20
 345 66 345 66 281 24 c 1,21,-1
 401 24 l 1,7,-1
169 66 m 1,22,-1
 169 24 l 1,23,-1
 216 24 l 1,24,25
 254 35 254 35 254 167 c 0,26,27
 254 311 254 311 208 311 c 0,28,29
 188 311 188 311 176 286 c 1,30,31
 169 264 169 264 169 229 c 2,32,-1
 169 66 l 1,22,-1
EndSplineSet
Validated: 1
EndChar

StartChar: y1
Encoding: 3375 3375 139
Width: 668
GlyphClass: 2
Flags: W
LayerCount: 2
Fore
SplineSet
668 191 m 0,0,1
 668 94 668 94 607 40 c 1,2,3
 554 -9 554 -9 463 -9 c 0,4,5
 404 -9 404 -9 372 3 c 1,6,7
 338 -9 338 -9 279 -9 c 0,8,9
 63 -9 63 -9 63 214 c 0,10,11
 63 294 63 294 102 342 c 0,12,13
 140 390 140 390 206 390 c 0,14,15
 262 390 262 390 276 351 c 1,16,17
 306 390 306 390 369 390 c 0,18,19
 435 390 435 390 472 338 c 0,20,21
 510 286 510 286 510 197 c 0,22,23
 510 116 510 116 477 66 c 0,24,25
 451 26 451 26 414 13 c 1,26,27
 464 13 464 13 508 49 c 0,28,29
 567 97 567 97 578 190 c 0,30,31
 581 221 581 221 561 284 c 0,32,33
 542 344 542 344 542 362 c 0,34,35
 542 390 542 390 571 390 c 0,36,37
 668 390 668 390 668 191 c 0,0,1
418 198 m 0,38,39
 418 361 418 361 370 361 c 0,40,41
 321 361 321 361 321 198 c 0,42,43
 321 33 321 33 370 33 c 0,44,45
 418 33 418 33 418 198 c 0,38,39
317 15 m 1,46,47
 277 32 277 32 252 83 c 0,48,49
 227 135 227 135 227 189 c 0,50,51
 227 206 227 206 230 247 c 0,52,53
 232 273 232 273 232 304 c 0,54,55
 232 366 232 366 207 366 c 0,56,57
 151 366 151 366 151 207 c 0,58,59
 151 128 151 128 200 72 c 0,60,61
 250 15 250 15 317 15 c 1,46,47
EndSplineSet
Validated: 33
EndChar

StartChar: r3
Encoding: 3376 3376 140
Width: 512
GlyphClass: 2
Flags: W
LayerCount: 2
Fore
SplineSet
511 170 m 0,0,1
 511 75 511 75 461 28 c 0,2,3
 423 -9 423 -9 362 -9 c 0,4,5
 310 -9 310 -9 275 25 c 0,6,7
 226 71 226 71 226 174 c 0,8,9
 226 268 226 268 256 313 c 0,10,11
 281 351 281 351 334 357 c 1,12,13
 316 369 316 369 282 369 c 0,14,15
 224 369 224 369 188 313 c 0,16,17
 158 265 158 265 158 202 c 0,18,19
 158 165 158 165 190 117 c 1,20,21
 222 67 222 67 222 35 c 0,22,23
 222 -9 222 -9 176 -9 c 0,24,25
 62 -9 62 -9 62 199 c 0,26,27
 62 278 62 278 118 332 c 0,28,29
 180 391 180 391 282 391 c 0,30,31
 382 391 382 391 447 331 c 1,32,33
 511 270 511 270 511 170 c 0,0,1
403 173 m 1,34,35
 404 227 404 227 394 275 c 1,36,37
 384 330 384 330 365 330 c 128,-1,38
 346 330 346 330 332 278 c 1,39,40
 321 229 321 229 321 178 c 0,41,42
 321 120 321 120 332 77 c 0,43,44
 345 24 345 24 365 24 c 0,45,46
 384 24 384 24 394 76 c 0,47,48
 403 118 403 118 403 173 c 1,34,35
EndSplineSet
Validated: 33
EndChar

StartChar: rh
Encoding: 3377 3377 141
Width: 417
GlyphClass: 2
Flags: W
LayerCount: 2
Fore
SplineSet
417 203 m 0,0,1
 417 102 417 102 396 53 c 0,2,3
 370 -10 370 -10 304 -8 c 0,4,5
 288 -8 288 -8 276 7 c 128,-1,6
 264 22 264 22 264 37 c 0,7,8
 264 70 264 70 297 119 c 0,9,10
 331 169 331 169 331 206 c 0,11,12
 331 369 331 369 241 369 c 0,13,14
 148 369 148 369 148 202 c 0,15,16
 148 168 148 168 177 118 c 128,-1,17
 206 68 206 68 206 36 c 0,18,19
 206 -8 206 -8 165 -8 c 0,20,21
 62 -8 62 -8 62 199 c 0,22,23
 62 280 62 280 102 332 c 1,24,25
 150 391 150 391 241 391 c 0,26,27
 329 391 329 391 377 332 c 1,28,29
 417 280 417 280 417 203 c 0,0,1
EndSplineSet
Validated: 33
EndChar

StartChar: l3
Encoding: 3378 3378 142
Width: 592
GlyphClass: 2
Flags: W
LayerCount: 2
Fore
SplineSet
592 0 m 1,0,-1
 62 0 l 1,1,-1
 62 225 l 2,2,3
 62 286 62 286 99 334 c 1,4,5
 147 391 147 391 237 391 c 0,6,7
 412 391 412 391 412 212 c 2,8,-1
 412 87 l 1,9,-1
 163 87 l 1,10,-1
 163 24 l 1,11,-1
 498 24 l 1,12,-1
 498 345 l 2,13,14
 498 364 498 364 511 377 c 0,15,16
 524 391 524 391 542 391 c 128,-1,17
 560 391 560 391 577 379 c 1,18,19
 592 367 592 367 592 348 c 2,20,-1
 592 0 l 1,0,-1
311 115 m 1,21,-1
 311 288 l 2,22,23
 311 366 311 366 239 366 c 0,24,25
 203 366 203 366 182 336 c 0,26,27
 165 310 165 310 165 271 c 2,28,-1
 165 115 l 1,29,-1
 311 115 l 1,21,-1
EndSplineSet
Validated: 1
EndChar

StartChar: lh
Encoding: 3379 3379 143
Width: 518
GlyphClass: 2
Flags: W
LayerCount: 2
Fore
SplineSet
517 260 m 0,0,1
 517 198 517 198 470 180 c 1,2,3
 516 164 516 164 516 92 c 0,4,5
 516 32 516 32 477 6 c 0,6,7
 444 -15 444 -15 370 -15 c 1,8,-1
 228 -18 l 2,9,10
 157 -20 157 -20 157 -59 c 0,11,12
 157 -81 157 -81 174 -92 c 1,13,14
 189 -103 189 -103 212 -103 c 0,15,16
 252 -103 252 -103 279 -88 c 0,17,18
 324 -62 324 -62 331 -60 c 0,19,20
 374 -45 374 -45 457 -45 c 0,21,22
 477 -45 477 -45 495 -61 c 1,23,24
 510 -77 510 -77 508 -98 c 0,25,26
 502 -141 502 -141 457 -141 c 0,27,28
 322 -141 322 -141 190 -138 c 1,29,30
 121 -138 121 -138 106 -133 c 0,31,32
 67 -120 67 -120 67 -61 c 0,33,34
 67 6 67 6 148 6 c 2,35,-1
 168 6 l 1,36,37
 177 5 177 5 185 5 c 2,38,-1
 327 2 l 2,39,40
 371 2 371 2 395 27 c 0,41,42
 419 51 419 51 419 93 c 0,43,44
 419 120 419 120 410 139 c 0,45,46
 397 164 397 164 375 164 c 0,47,48
 344 164 344 164 344 176 c 0,49,50
 344 189 344 189 357 190 c 1,51,-1
 379 190 l 2,52,53
 398 190 398 190 410 221 c 0,54,55
 419 244 419 244 419 267 c 0,56,57
 419 309 419 309 378 338 c 1,58,59
 338 368 338 368 296 368 c 0,60,61
 256 368 256 368 222 350 c 1,62,63
 181 330 181 330 170 296 c 1,64,65
 183 307 183 307 207 307 c 0,66,67
 258 307 258 307 286 265 c 0,68,69
 310 229 310 229 310 176 c 0,70,71
 310 101 310 101 282 69 c 1,72,73
 252 37 252 37 181 37 c 0,74,75
 65 37 65 37 65 196 c 0,76,77
 65 292 65 292 133 344 c 1,78,79
 195 390 195 390 296 390 c 0,80,81
 517 390 517 390 517 260 c 0,0,1
228 167 m 0,82,83
 228 276 228 276 187 276 c 0,84,85
 167 276 167 276 155 240 c 1,86,87
 143 210 143 210 143 185 c 0,88,89
 143 144 143 144 150 112 c 1,90,91
 159 56 159 56 182 56 c 0,92,93
 208 56 208 56 220 100 c 0,94,95
 228 128 228 128 228 167 c 0,82,83
EndSplineSet
Validated: 33
EndChar

StartChar: zh
Encoding: 3380 3380 144
Width: 454
GlyphClass: 2
Flags: W
LayerCount: 2
Fore
SplineSet
454 272 m 0,0,1
 454 230 454 230 427 195 c 0,2,3
 400 159 400 159 356 152 c 1,4,5
 422 128 422 128 422 65 c 0,6,7
 422 18 422 18 367 -5 c 0,8,9
 324 -22 324 -22 269 -22 c 0,10,11
 109 -22 109 -22 109 52 c 0,12,13
 109 104 109 104 158 104 c 0,14,15
 178 104 178 104 194 92 c 0,16,17
 211 78 211 78 211 62 c 0,18,19
 211 -3 211 -3 267 -3 c 0,20,21
 342 -3 342 -3 342 72 c 0,22,23
 342 113 342 113 314 137 c 1,24,25
 298 135 298 135 254 135 c 0,26,27
 174 135 174 135 118 173 c 1,28,29
 62 209 62 209 62 270 c 0,30,31
 62 391 62 391 138 391 c 0,32,33
 153 391 153 391 165 382 c 1,34,35
 178 375 178 375 178 362 c 0,36,37
 178 345 178 345 167 314 c 1,38,39
 156 286 156 286 156 267 c 1,40,41
 153 227 153 227 183 192 c 1,42,43
 213 159 213 159 255 159 c 0,44,45
 272 159 272 159 284 162 c 1,46,47
 206 192 206 192 206 271 c 0,48,49
 206 326 206 326 238 358 c 0,50,51
 270 391 270 391 333 391 c 0,52,53
 387 391 387 391 420 357 c 0,54,55
 454 323 454 323 454 272 c 0,0,1
372 272 m 128,-1,57
 372 371 372 371 331 371 c 0,58,59
 287 371 287 371 287 272 c 128,-1,60
 287 173 287 173 331 173 c 0,61,56
 372 173 372 173 372 272 c 128,-1,57
EndSplineSet
Validated: 33
EndChar

StartChar: v1
Encoding: 3381 3381 145
Width: 585
GlyphClass: 2
Flags: W
LayerCount: 2
Fore
SplineSet
585 0 m 1,0,-1
 312 0 l 2,1,2
 290 0 290 0 290 11 c 1,3,-1
 311 68 l 2,4,5
 332 125 332 125 332 188 c 0,6,7
 332 242 332 242 311 298 c 0,8,9
 285 368 285 368 242 368 c 0,10,11
 206 368 206 368 183 306 c 1,12,13
 164 258 164 258 164 208 c 0,14,15
 164 156 164 156 177 113 c 1,16,17
 189 68 189 68 189 39 c 0,18,19
 189 24 189 24 180 9 c 1,20,21
 168 -8 168 -8 150 -8 c 0,22,23
 61 -8 61 -8 61 189 c 0,24,25
 61 264 61 264 100 318 c 1,26,27
 149 391 149 391 246 391 c 0,28,29
 347 391 347 391 398 327 c 0,30,31
 439 276 439 276 439 197 c 0,32,33
 439 98 439 98 374 24 c 1,34,-1
 480 24 l 1,35,-1
 480 345 l 2,36,37
 480 366 480 366 495 378 c 1,38,39
 508 391 508 391 530 391 c 0,40,41
 585 391 585 391 585 345 c 2,42,-1
 585 0 l 1,0,-1
EndSplineSet
Validated: 1
EndChar

StartChar: z1
Encoding: 3382 3382 146
Width: 673
GlyphClass: 2
Flags: W
LayerCount: 2
Fore
SplineSet
673 166 m 0,0,1
 673 -8 673 -8 540 -8 c 0,2,3
 474 -8 474 -8 440 43 c 0,4,5
 409 89 409 89 409 173 c 0,6,7
 409 237 409 237 434 290 c 1,8,9
 463 348 463 348 508 357 c 1,10,11
 488 367 488 367 464 367 c 0,12,13
 387 367 387 367 387 202 c 0,14,15
 387 96 387 96 351 46 c 0,16,17
 312 -8 312 -8 219 -8 c 0,18,19
 141 -8 141 -8 99 53 c 0,20,21
 61 109 61 109 61 200 c 0,22,23
 61 260 61 260 85 317 c 0,24,25
 115 390 115 390 164 390 c 0,26,27
 209 390 209 390 209 336 c 0,28,29
 209 310 209 310 184 260 c 1,30,31
 160 208 160 208 160 170 c 0,32,33
 160 13 160 13 226 13 c 0,34,35
 282 13 282 13 282 116 c 0,36,37
 282 120 282 120 280 158 c 1,38,39
 278 176 278 176 278 200 c 0,40,41
 278 288 278 288 326 339 c 128,-1,42
 374 390 374 390 454 390 c 0,43,44
 563 390 563 390 620 330 c 1,45,46
 673 271 673 271 673 166 c 0,0,1
580 177 m 0,47,48
 580 214 580 214 571 264 c 1,49,50
 562 335 562 335 542 335 c 0,51,52
 520 335 520 335 508 264 c 0,53,54
 500 220 500 220 500 175 c 0,55,56
 500 129 500 129 508 85 c 0,57,58
 520 13 520 13 542 13 c 0,59,60
 562 13 562 13 571 86 c 1,61,62
 580 136 580 136 580 177 c 0,47,48
EndSplineSet
Validated: 1
EndChar

StartChar: sh
Encoding: 3383 3383 147
Width: 688
GlyphClass: 2
Flags: W
LayerCount: 2
Fore
SplineSet
687 -1 m 1,0,-1
 281 -1 l 2,1,2
 247 -1 247 -1 247 19 c 0,3,4
 247 35 247 35 260 71 c 128,-1,5
 273 107 273 107 273 130 c 0,6,7
 273 239 273 239 217 239 c 0,8,9
 183 239 183 239 171 199 c 1,10,11
 166 177 166 177 166 135 c 0,12,13
 166 113 166 113 176 79 c 0,14,15
 186 43 186 43 186 23 c 0,16,17
 186 -8 186 -8 141 -8 c 0,18,19
 101 -8 101 -8 80 47 c 0,20,21
 63 89 63 89 63 130 c 0,22,23
 63 191 63 191 106 225 c 0,24,25
 147 257 147 257 218 257 c 0,26,27
 286 257 286 257 327 223 c 0,28,29
 368 190 368 190 368 130 c 0,30,31
 368 71 368 71 314 23 c 1,32,-1
 601 23 l 1,33,-1
 601 226 l 1,34,-1
 543 189 l 1,35,-1
 543 31 l 1,36,-1
 467 31 l 1,37,-1
 467 172 l 1,38,39
 458 171 458 171 442 171 c 0,40,41
 392 171 392 171 367 205 c 1,42,43
 344 234 344 234 344 281 c 0,44,45
 344 326 344 326 367 357 c 0,46,47
 392 392 392 392 438 392 c 0,48,49
 481 392 481 392 513 360 c 1,50,51
 543 327 543 327 543 279 c 2,52,-1
 543 221 l 1,53,54
 570 232 570 232 585 260 c 1,55,56
 601 286 601 286 601 319 c 0,57,58
 601 391 601 391 644 391 c 128,-1,59
 687 391 687 391 687 338 c 2,60,-1
 687 -1 l 1,0,-1
464 281 m 0,61,62
 464 368 464 368 433 368 c 0,63,64
 401 368 401 368 401 281 c 0,65,66
 401 193 401 193 433 193 c 0,67,68
 464 193 464 193 464 281 c 0,61,62
EndSplineSet
Validated: 1
EndChar

StartChar: s1
Encoding: 3384 3384 148
Width: 806
GlyphClass: 2
Flags: W
LayerCount: 2
Fore
SplineSet
806 183 m 0,0,1
 806 105 806 105 766 52 c 0,2,3
 720 -8 720 -8 639 -8 c 0,4,5
 560 -8 560 -8 520 35 c 1,6,7
 484 72 484 72 484 139 c 2,8,-1
 484 293 l 2,9,10
 484 368 484 368 416 368 c 0,11,12
 375 368 375 368 375 329 c 2,13,-1
 375 44 l 2,14,15
 375 22 375 22 359 7 c 0,16,17
 344 -8 344 -8 323 -8 c 128,-1,18
 302 -8 302 -8 285 7 c 1,19,20
 269 23 269 23 269 44 c 2,21,-1
 269 324 l 2,22,23
 269 368 269 368 228 368 c 0,24,25
 192 368 192 368 172 311 c 1,26,27
 154 263 154 263 154 185 c 0,28,29
 154 138 154 138 174 94 c 0,30,31
 195 46 195 46 195 25 c 0,32,33
 195 17 195 17 185 5 c 1,34,35
 176 -8 176 -8 162 -8 c 0,36,37
 62 -8 62 -8 62 187 c 0,38,39
 62 390 62 390 216 390 c 0,40,41
 302 390 302 390 325 343 c 1,42,43
 336 390 336 390 428 390 c 0,44,45
 500 390 500 390 540 358 c 1,46,47
 579 325 579 325 579 268 c 2,48,-1
 579 106 l 2,49,50
 579 69 579 69 593 45 c 0,51,52
 610 14 610 14 639 14 c 0,53,54
 720 14 720 14 720 180 c 0,55,56
 720 216 720 216 687 267 c 1,57,58
 653 317 653 317 653 349 c 0,59,60
 653 390 653 390 693 390 c 0,61,62
 746 390 746 390 776 332 c 0,63,64
 806 275 806 275 806 183 c 0,0,1
EndSplineSet
Validated: 1
EndChar

StartChar: h1
Encoding: 3385 3385 149
Width: 741
GlyphClass: 2
Flags: W
LayerCount: 2
Fore
SplineSet
740 203 m 0,0,1
 740 111 740 111 712 54 c 0,2,3
 681 -7 681 -7 627 -7 c 0,4,5
 588 -7 588 -7 588 37 c 0,6,7
 588 70 588 70 621 119 c 1,8,9
 654 170 654 170 654 206 c 0,10,11
 654 368 654 368 563 368 c 0,12,13
 471 368 471 368 471 202 c 0,14,15
 471 168 471 168 500 118 c 0,16,17
 528 69 528 69 528 36 c 0,18,19
 528 12 528 12 513 0 c 0,20,21
 511 -2 511 -2 508 0 c 1,22,-1
 260 0 l 2,23,24
 228 0 228 0 228 20 c 0,25,26
 228 30 228 30 246 68 c 1,27,28
 263 107 263 107 263 129 c 0,29,30
 263 236 263 236 210 236 c 0,31,32
 177 236 177 236 166 201 c 0,33,34
 161 184 161 184 161 129 c 0,35,36
 161 109 161 109 170 79 c 0,37,38
 180 49 180 49 180 23 c 0,39,40
 180 -7 180 -7 136 -7 c 0,41,42
 106 -7 106 -7 84 32 c 0,43,44
 62 73 62 73 62 129 c 0,45,46
 62 255 62 255 211 255 c 0,47,48
 283 255 283 255 322 215 c 0,49,50
 354 181 354 181 354 129 c 0,51,52
 354 69 354 69 293 24 c 1,53,-1
 425 24 l 1,54,55
 385 71 385 71 385 199 c 0,56,57
 385 280 385 280 426 332 c 0,58,59
 473 391 473 391 563 391 c 0,60,61
 654 391 654 391 699 332 c 1,62,63
 740 282 740 282 740 203 c 0,0,1
EndSplineSet
Validated: 1
EndChar

StartChar: uni0D3D
Encoding: 3389 3389 150
Width: 624
GlyphClass: 2
Flags: W
LayerCount: 2
Fore
SplineSet
649 436 m 1,0,-1
 592 414 l 1,1,2
 595 435 595 435 585 449 c 1,3,4
 574 462 574 462 552 461 c 1,5,6
 508 461 508 461 477 403 c 1,7,-1
 364 175 l 1,8,-1
 432 179 l 1,9,-1
 414 124 l 1,10,-1
 336 120 l 1,11,12
 325 99 325 99 191 -180 c 0,13,14
 140 -284 140 -284 46 -284 c 0,15,16
 -36 -284 -36 -284 -33 -205 c 1,17,-1
 8 -183 l 1,18,19
 3 -204 3 -204 15 -217 c 1,20,21
 26 -231 26 -231 48 -230 c 0,22,23
 95 -228 95 -228 122 -172 c 2,24,-1
 264 118 l 1,25,-1
 208 115 l 1,26,-1
 226 169 l 1,27,-1
 291 173 l 1,28,-1
 409 411 l 2,29,30
 460 515 460 515 570 515 c 0,31,32
 654 515 654 515 649 436 c 1,0,-1
EndSplineSet
Validated: 33
EndChar

StartChar: uni0D3E
Encoding: 3390 3390 151
Width: 359
GlyphClass: 2
Flags: W
LayerCount: 2
Fore
SplineSet
358 187 m 0,0,1
 358 105 358 105 319 51 c 0,2,3
 277 -8 277 -8 199 -8 c 0,4,5
 56 -8 56 -8 56 112 c 0,6,7
 56 167 56 167 106 167 c 0,8,9
 146 167 146 167 155 112 c 1,10,11
 169 14 169 14 205 14 c 0,12,13
 262 14 262 14 262 194 c 0,14,15
 262 258 262 258 249 307 c 0,16,17
 232 368 232 368 205 368 c 0,18,19
 169 368 169 368 155 265 c 0,20,21
 148 219 148 219 106 219 c 0,22,23
 56 219 56 219 56 276 c 0,24,25
 56 334 56 334 99 365 c 1,26,27
 137 390 137 390 199 390 c 0,28,29
 358 390 358 390 358 187 c 0,0,1
EndSplineSet
Validated: 1
EndChar

StartChar: uni0D3F
Encoding: 3391 3391 152
Width: 184
GlyphClass: 2
Flags: W
LayerCount: 2
Fore
SplineSet
183 29 m 2,0,1
 183 11 183 11 169 0 c 128,-1,2
 155 -11 155 -11 134 -11 c 0,3,4
 84 -11 84 -11 84 28 c 2,5,-1
 84 474 l 2,6,7
 84 580 84 580 30 580 c 0,8,9
 -16 580 -16 580 -23 520 c 1,10,11
 -23 501 -23 501 -20 487 c 0,12,13
 -17 466 -17 466 -17 459 c 0,14,15
 -19 443 -19 443 -35 433 c 0,16,17
 -52 422 -52 422 -70 422 c 0,18,19
 -85 422 -85 422 -102 439 c 1,20,21
 -119 458 -119 458 -119 476 c 0,22,23
 -119 538 -119 538 -90 567 c 1,24,25
 -56 603 -56 603 30 603 c 0,26,27
 183 603 183 603 183 458 c 2,28,-1
 183 29 l 2,0,1
EndSplineSet
Validated: 1
EndChar

StartChar: uni0D40
Encoding: 3392 3392 153
Width: 194
GlyphClass: 2
Flags: W
LayerCount: 2
Fore
SplineSet
194 28 m 2,0,1
 194 12 194 12 180 1 c 128,-1,2
 166 -10 166 -10 145 -10 c 0,3,4
 95 -10 95 -10 95 27 c 2,5,-1
 95 464 l 2,6,7
 95 573 95 573 50 573 c 1,8,-1
 38 574 l 1,9,10
 67 543 67 543 67 495 c 0,11,12
 67 456 67 456 45 429 c 0,13,14
 21 400 21 400 -23 400 c 0,15,16
 -122 400 -122 400 -122 498 c 0,17,18
 -122 546 -122 546 -84 575 c 128,-1,19
 -46 604 -46 604 15 604 c 0,20,21
 109 604 109 604 151 568 c 0,22,23
 194 531 194 531 194 449 c 2,24,-1
 194 28 l 2,0,1
-5 485 m 0,25,26
 -5 553 -5 553 -28 553 c 0,27,28
 -52 553 -52 553 -52 485 c 0,29,30
 -52 424 -52 424 -28 424 c 0,31,32
 -5 424 -5 424 -5 485 c 0,25,26
EndSplineSet
Validated: 1
EndChar

StartChar: u1
Encoding: 3393 3393 154
Width: 331
GlyphClass: 2
Flags: W
LayerCount: 2
Fore
SplineSet
331 -104 m 0,0,1
 331 -157 331 -157 293 -192 c 0,2,3
 256 -226 256 -226 195 -226 c 256,4,5
 134 -226 134 -226 96 -187 c 0,6,7
 62 -151 62 -151 62 -102 c 0,8,9
 62 -60 62 -60 86 -32 c 1,10,11
 113 3 113 3 162 10 c 1,12,13
 153 24 153 24 153 37 c 0,14,15
 153 70 153 70 186 119 c 1,16,17
 219 170 219 170 219 206 c 0,18,19
 219 369 219 369 128 369 c 1,20,-1
 120 367 l 2,21,22
 114 366 114 366 111 367 c 0,23,24
 94 370 94 370 94 380 c 1,25,26
 95 386 95 386 111 390 c 0,27,28
 112 391 112 391 128 391 c 0,29,30
 218 391 218 391 265 332 c 0,31,32
 305 282 305 282 305 203 c 0,33,34
 305 44 305 44 248 6 c 1,35,36
 331 -18 331 -18 331 -104 c 0,0,1
248 -112 m 0,37,38
 248 -33 248 -33 213 -7 c 1,39,40
 203 -10 203 -10 193 -8 c 1,41,42
 184 -8 184 -8 180 -6 c 1,43,44
 150 -26 150 -26 150 -111 c 0,45,46
 150 -146 150 -146 161 -168 c 1,47,48
 174 -198 174 -198 197 -198 c 0,49,50
 248 -198 248 -198 248 -112 c 0,37,38
EndSplineSet
Validated: 1
EndChar

StartChar: u2
Encoding: 3394 3394 155
Width: 339
GlyphClass: 2
Flags: HW
LayerCount: 2
Fore
SplineSet
339 -104 m 0,0,1
 339 -158 339 -158 300 -191 c 1,2,3
 262 -225 262 -225 200 -225 c 0,4,5
 135 -225 135 -225 97 -187 c 1,6,7
 63 -151 63 -151 63 -102 c 0,8,9
 63 -62 63 -62 88 -32 c 0,10,11
 115 1 115 1 168 9 c 1,12,13
 158 23 158 23 158 37 c 0,14,15
 158 70 158 70 191 119 c 1,16,17
 224 170 224 170 224 206 c 0,18,19
 224 369 224 369 133 369 c 0,20,21
 130 369 130 369 122 366 c 0,22,23
 116 363 116 363 111 366 c 1,24,25
 96 369 96 369 96 378 c 0,26,27
 96 382 96 382 110 390 c 0,28,29
 111 391 111 391 133 391 c 0,30,31
 224 391 224 391 269 332 c 1,32,33
 310 282 310 282 310 203 c 0,34,35
 310 42 310 42 252 5 c 1,36,37
 339 -18 339 -18 339 -104 c 0,0,1
254 -112 m 0,38,39
 254 -31 254 -31 217 -7 c 1,40,41
 209 -10 209 -10 197 -8 c 1,42,43
 189 -8 189 -8 185 -6 c 1,44,45
 153 -23 153 -23 153 -111 c 0,46,47
 153 -146 153 -146 164 -169 c 0,48,49
 178 -200 178 -200 202 -200 c 0,50,51
 254 -200 254 -200 254 -112 c 0,38,39
239 -101 m 0,52,53
 239 -121 239 -121 228 -137 c 0,54,55
 218 -152 218 -152 203 -152 c 128,-1,56
 188 -152 188 -152 177 -137 c 0,57,58
 167 -123 167 -123 167 -101 c 0,59,60
 167 -80 167 -80 177 -66 c 0,61,62
 188 -51 188 -51 203 -51 c 128,-1,63
 218 -51 218 -51 228 -66 c 0,64,65
 239 -82 239 -82 239 -101 c 0,52,53
EndSplineSet
Validated: 1
EndChar

StartChar: r1
Encoding: 3395 3395 156
Width: 224
GlyphClass: 2
Flags: W
LayerCount: 2
Fore
SplineSet
223 -33 m 0,0,1
 223 -105 223 -105 172 -144 c 1,2,3
 128 -169 128 -169 84 -169 c 2,4,-1
 8 -169 l 2,5,6
 -106 -169 -106 -169 -106 -104 c 0,7,8
 -106 -54 -106 -54 -50 -39 c 0,9,10
 -17 -30 -17 -30 58 -30 c 0,11,12
 81 -30 81 -30 97 -35 c 0,13,14
 99 -36 99 -36 134 -45 c 1,15,16
 131 6 131 6 74 83 c 0,17,18
 19 156 19 156 19 213 c 2,19,-1
 19 353 l 2,20,21
 19 370 19 370 35 383 c 1,22,23
 52 394 52 394 72 394 c 0,24,25
 90 394 90 394 102 382 c 1,26,27
 116 370 116 370 116 352 c 2,28,-1
 116 215 l 2,29,30
 116 163 116 163 169 92 c 0,31,32
 223 20 223 20 223 -33 c 0,0,1
128 -106 m 0,33,34
 128 -52 128 -52 49 -52 c 0,35,36
 -34 -52 -34 -52 -31 -105 c 0,37,38
 -28 -150 -28 -150 50 -150 c 0,39,40
 95 -150 95 -150 114 -139 c 0,41,42
 128 -130 128 -130 128 -106 c 0,33,34
EndSplineSet
Validated: 33
EndChar

StartChar: uni0D46
Encoding: 3398 3398 157
Width: 491
GlyphClass: 2
Flags: W
LayerCount: 2
Fore
SplineSet
490 172 m 0,0,1
 490 -9 490 -9 388 -9 c 0,2,3
 353 -9 353 -9 353 25 c 0,4,5
 353 35 353 35 374 92 c 0,6,7
 395 148 395 148 395 198 c 0,8,9
 395 249 395 249 370 299 c 0,10,11
 334 368 334 368 274 368 c 0,12,13
 170 368 170 368 166 251 c 1,14,15
 186 261 186 261 209 261 c 0,16,17
 276 261 276 261 307 215 c 0,18,19
 331 180 331 180 331 126 c 0,20,21
 331 57 331 57 284 19 c 0,22,23
 249 -9 249 -9 209 -9 c 0,24,25
 142 -9 142 -9 103 36 c 0,26,27
 65 81 65 81 65 165 c 0,28,29
 65 390 65 390 274 390 c 0,30,31
 490 390 490 390 490 172 c 0,0,1
245 119 m 0,32,33
 245 157 245 157 234 193 c 0,34,35
 222 233 222 233 201 233 c 0,36,37
 162 233 162 233 162 120 c 0,38,39
 162 86 162 86 171 54 c 1,40,41
 183 17 183 17 202 17 c 0,42,43
 245 17 245 17 245 119 c 0,32,33
EndSplineSet
Validated: 1
EndChar

StartChar: uni0D47
Encoding: 3399 3399 158
Width: 410
GlyphClass: 2
Flags: W
LayerCount: 2
Fore
SplineSet
410 91 m 0,0,1
 410 37 410 37 375 14 c 0,2,3
 341 -8 341 -8 262 -8 c 0,4,5
 61 -8 61 -8 61 195 c 0,6,7
 61 293 61 293 104 339 c 1,8,9
 156 390 156 390 280 390 c 0,10,11
 410 390 410 390 410 284 c 0,12,13
 410 238 410 238 372 215 c 0,14,15
 344 199 344 199 306 199 c 0,16,17
 270 199 270 199 246 223 c 1,18,19
 223 248 223 248 223 292 c 0,20,21
 223 327 223 327 259 369 c 1,22,23
 218 369 218 369 188 309 c 1,24,25
 162 254 162 254 162 195 c 0,26,27
 162 126 162 126 190 70 c 0,28,29
 218 13 218 13 249 13 c 1,30,31
 222 49 222 49 222 88 c 0,32,33
 222 118 222 118 243 142 c 0,34,35
 268 172 268 172 309 172 c 0,36,37
 359 172 359 172 386 145 c 0,38,39
 410 122 410 122 410 91 c 0,0,1
338 279 m 0,40,41
 338 369 338 369 311 369 c 0,42,43
 282 369 282 369 282 282 c 0,44,45
 282 214 282 214 307 214 c 0,46,47
 322 214 322 214 331 240 c 0,48,49
 338 258 338 258 338 279 c 0,40,41
339 81 m 0,50,51
 339 163 339 163 309 163 c 0,52,53
 282 163 282 163 282 83 c 0,54,55
 282 11 282 11 306 11 c 0,56,57
 339 11 339 11 339 81 c 0,50,51
EndSplineSet
Validated: 1
EndChar

StartChar: uni0D48
Encoding: 3400 3400 159
Width: 972
GlyphClass: 2
Flags: W
LayerCount: 2
Fore
SplineSet
972 172 m 0,0,1
 972 -9 972 -9 869 -9 c 0,2,3
 835 -9 835 -9 835 25 c 0,4,5
 835 35 835 35 856 92 c 0,6,7
 877 148 877 148 877 198 c 0,8,9
 877 247 877 247 851 299 c 0,10,11
 816 368 816 368 756 368 c 0,12,13
 652 368 652 368 647 251 c 1,14,15
 667 261 667 261 690 261 c 0,16,17
 757 261 757 261 788 215 c 0,18,19
 812 180 812 180 812 126 c 0,20,21
 812 57 812 57 765 19 c 0,22,23
 731 -9 731 -9 690 -9 c 0,24,25
 623 -9 623 -9 584 36 c 1,26,27
 546 83 546 83 546 165 c 0,28,29
 546 390 546 390 756 390 c 0,30,31
 972 390 972 390 972 172 c 0,0,1
726 119 m 0,32,33
 726 160 726 160 716 193 c 0,34,35
 704 233 704 233 682 233 c 0,36,37
 643 233 643 233 643 120 c 0,38,39
 643 86 643 86 652 54 c 1,40,41
 664 17 664 17 683 17 c 0,42,43
 726 17 726 17 726 119 c 0,32,33
490 172 m 0,44,45
 490 -9 490 -9 388 -9 c 0,46,47
 353 -9 353 -9 353 25 c 0,48,49
 353 35 353 35 374 92 c 0,50,51
 395 148 395 148 395 198 c 0,52,53
 395 249 395 249 370 299 c 0,54,55
 334 368 334 368 274 368 c 0,56,57
 170 368 170 368 166 251 c 1,58,59
 186 261 186 261 209 261 c 0,60,61
 276 261 276 261 307 215 c 0,62,63
 331 180 331 180 331 126 c 0,64,65
 331 57 331 57 284 19 c 0,66,67
 249 -9 249 -9 209 -9 c 0,68,69
 142 -9 142 -9 103 36 c 0,70,71
 65 81 65 81 65 165 c 0,72,73
 65 390 65 390 274 390 c 0,74,75
 490 390 490 390 490 172 c 0,44,45
245 119 m 0,76,77
 245 157 245 157 234 193 c 0,78,79
 222 233 222 233 201 233 c 0,80,81
 162 233 162 233 162 120 c 0,82,83
 162 86 162 86 171 54 c 1,84,85
 183 17 183 17 202 17 c 0,86,87
 245 17 245 17 245 119 c 0,76,77
EndSplineSet
Validated: 1
EndChar

StartChar: uni0D4A
Encoding: 3402 3402 160
Width: 1156
GlyphClass: 2
Flags: W
LayerCount: 2
Fore
SplineSet
1155 95 m 2,0,1
 1155 34 1155 34 1111 -10 c 0,2,3
 1068 -54 1068 -54 1005 -54 c 2,4,-1
 232 -54 l 2,5,6
 169 -54 169 -54 126 -10 c 0,7,8
 82 34 82 34 82 95 c 2,9,-1
 82 438 l 2,10,11
 82 498 82 498 126 544 c 1,12,13
 170 588 170 588 232 588 c 2,14,-1
 1005 588 l 2,15,16
 1067 588 1067 588 1111 544 c 1,17,18
 1155 498 1155 498 1155 438 c 2,19,-1
 1155 95 l 2,0,1
1111 141 m 2,20,-1
 1111 394 l 2,21,22
 1111 455 1111 455 1067 501 c 1,23,24
 1023 545 1023 545 962 545 c 2,25,-1
 275 545 l 2,26,27
 214 545 214 545 170 501 c 1,28,29
 126 455 126 455 126 394 c 2,30,-1
 126 141 l 2,31,32
 126 80 126 80 170 36 c 0,33,34
 213 -8 213 -8 275 -8 c 2,35,-1
 962 -8 l 2,36,37
 1024 -8 1024 -8 1067 36 c 0,38,39
 1111 80 1111 80 1111 141 c 2,20,-1
1046 262 m 0,40,41
 1046 68 1046 68 909 68 c 0,42,43
 784 68 784 68 784 194 c 2,44,-1
 784 196 l 1,45,-1
 815 196 l 1,46,47
 824 152 824 152 835 139 c 0,48,49
 850 119 850 119 888 119 c 0,50,51
 942 119 942 119 961 168 c 0,52,53
 973 200 973 200 973 263 c 0,54,55
 973 406 973 406 898 406 c 0,56,57
 850 406 850 406 834 376 c 1,58,59
 821 359 821 359 815 305 c 1,60,-1
 784 305 l 1,61,-1
 784 307 l 2,62,63
 784 376 784 376 808 409 c 0,64,65
 835 445 835 445 902 445 c 0,66,67
 1046 445 1046 445 1046 262 c 0,40,41
746 223 m 1,68,-1
 658 223 l 1,69,-1
 658 265 l 1,70,-1
 746 265 l 1,71,-1
 746 223 l 1,68,-1
624 255 m 0,72,73
 624 151 624 151 505 62 c 1,74,-1
 458 81 l 1,75,76
 545 146 545 146 545 242 c 0,77,78
 545 307 545 307 498 354 c 0,79,80
 451 400 451 400 385 400 c 0,81,82
 314 400 314 400 268 353 c 0,83,84
 222 305 222 305 213 236 c 1,85,-1
 216 232 l 1,86,87
 260 292 260 292 316 292 c 0,88,89
 363 292 363 292 396 256 c 128,-1,90
 429 220 429 220 429 174 c 0,91,92
 429 124 429 124 398 96 c 1,93,94
 369 68 369 68 318 68 c 0,95,96
 254 68 254 68 217 113 c 1,97,98
 183 156 183 156 183 221 c 0,99,100
 183 313 183 313 246 379 c 0,101,102
 308 445 308 445 400 445 c 0,103,104
 486 445 486 445 552 394 c 0,105,106
 624 338 624 338 624 255 c 0,72,73
367 180 m 0,107,108
 367 209 367 209 348 231 c 0,109,110
 330 252 330 252 300 252 c 128,-1,111
 270 252 270 252 250 233 c 1,112,113
 229 215 229 215 229 185 c 0,114,115
 229 158 229 158 250 136 c 0,116,117
 271 115 271 115 299 115 c 0,118,119
 326 115 326 115 346 134 c 0,120,121
 367 154 367 154 367 180 c 0,107,108
EndSplineSet
Validated: 1
EndChar

StartChar: uni0D4B
Encoding: 3403 3403 161
Width: 1064
GlyphClass: 2
Flags: W
LayerCount: 2
Fore
SplineSet
1064 95 m 2,0,1
 1064 34 1064 34 1020 -10 c 0,2,3
 977 -54 977 -54 914 -54 c 2,4,-1
 232 -54 l 2,5,6
 169 -54 169 -54 126 -10 c 0,7,8
 82 34 82 34 82 95 c 2,9,-1
 82 438 l 2,10,11
 82 498 82 498 126 544 c 1,12,13
 170 588 170 588 232 588 c 2,14,-1
 914 588 l 2,15,16
 976 588 976 588 1020 544 c 1,17,18
 1064 498 1064 498 1064 438 c 2,19,-1
 1064 95 l 2,0,1
1028 129 m 2,20,-1
 1028 394 l 2,21,22
 1028 455 1028 455 984 501 c 1,23,24
 940 545 940 545 878 545 c 2,25,-1
 279 545 l 2,26,27
 217 545 217 545 173 501 c 1,28,29
 129 455 129 455 129 394 c 2,30,-1
 129 129 l 2,31,32
 129 68 129 68 173 24 c 0,33,34
 216 -20 216 -20 279 -20 c 2,35,-1
 878 -20 l 2,36,37
 941 -20 941 -20 984 24 c 0,38,39
 1028 68 1028 68 1028 129 c 2,20,-1
944 261 m 0,40,41
 944 67 944 67 808 67 c 0,42,43
 683 67 683 67 683 193 c 2,44,-1
 683 195 l 1,45,-1
 713 195 l 1,46,47
 720 155 720 155 732 138 c 1,48,49
 748 119 748 119 786 119 c 0,50,51
 871 119 871 119 871 262 c 0,52,53
 871 404 871 404 796 404 c 0,54,55
 749 404 749 404 731 376 c 0,56,57
 720 358 720 358 713 304 c 1,58,-1
 683 304 l 1,59,-1
 683 307 l 2,60,61
 683 375 683 375 707 408 c 1,62,63
 732 445 732 445 801 445 c 0,64,65
 944 445 944 445 944 261 c 0,40,41
645 223 m 1,66,-1
 556 223 l 1,67,-1
 556 264 l 1,68,-1
 645 264 l 1,69,-1
 645 223 l 1,66,-1
519 168 m 0,70,71
 519 119 519 119 466 90 c 1,72,73
 426 70 426 70 367 70 c 0,74,75
 280 70 280 70 233 121 c 1,76,77
 186 174 186 174 186 261 c 128,-1,78
 186 348 186 348 234 397 c 128,-1,79
 282 446 282 446 367 446 c 0,80,81
 425 446 425 446 466 426 c 0,82,83
 519 399 519 399 519 349 c 0,84,85
 519 275 519 275 449 275 c 0,86,87
 414 275 414 275 389 293 c 0,88,89
 365 311 365 311 365 345 c 0,90,91
 365 391 365 391 393 413 c 1,92,93
 380 419 380 419 362 419 c 0,94,95
 255 419 255 419 255 261 c 0,96,97
 255 97 255 97 362 97 c 0,98,99
 377 97 377 97 393 104 c 1,100,101
 365 120 365 120 365 168 c 0,102,103
 365 200 365 200 391 219 c 0,104,105
 415 237 415 237 449 237 c 0,106,107
 478 237 478 237 499 218 c 0,108,109
 519 199 519 199 519 168 c 0,70,71
489 347 m 0,110,111
 489 397 489 397 442 407 c 1,112,113
 414 394 414 394 414 351 c 0,114,115
 414 303 414 303 449 303 c 0,116,117
 489 303 489 303 489 347 c 0,110,111
489 170 m 0,118,119
 489 186 489 186 477 198 c 1,120,121
 464 209 464 209 449 209 c 0,122,123
 414 209 414 209 414 165 c 0,124,125
 414 125 414 125 442 110 c 1,126,127
 489 119 489 119 489 170 c 0,118,119
EndSplineSet
Validated: 1
EndChar

StartChar: uni0D4C
Encoding: 3404 3404 162
Width: 465
GlyphClass: 2
Flags: W
LayerCount: 2
Fore
SplineSet
465 224 m 0,0,1
 465 115 465 115 424 59 c 0,2,3
 373 -11 373 -11 247 -11 c 0,4,5
 126 -11 126 -11 126 43 c 0,6,7
 126 65 126 65 143 65 c 128,-1,8
 160 65 160 65 191 37 c 0,9,10
 221 10 221 10 256 10 c 0,11,12
 323 10 323 10 350 99 c 0,13,14
 368 156 368 156 368 238 c 0,15,16
 368 274 368 274 360 312 c 1,17,18
 350 369 350 369 325 369 c 0,19,20
 301 369 301 369 301 337 c 2,21,-1
 301 173 l 2,22,23
 301 156 301 156 286 144 c 0,24,25
 270 131 270 131 253 131 c 0,26,27
 232 131 232 131 215 143 c 1,28,29
 199 156 199 156 199 174 c 2,30,-1
 199 336 l 2,31,32
 199 369 199 369 176 369 c 0,33,34
 138 369 138 369 138 259 c 0,35,36
 138 245 138 245 144 218 c 128,-1,37
 150 191 150 191 150 176 c 0,38,39
 150 159 150 159 137 144 c 1,40,41
 124 131 124 131 106 131 c 0,42,43
 52 131 52 131 52 256 c 0,44,45
 52 311 52 311 84 352 c 1,46,47
 116 391 116 391 171 391 c 0,48,49
 240 391 240 391 252 344 c 1,50,51
 266 391 266 391 329 391 c 0,52,53
 465 391 465 391 465 224 c 0,0,1
EndSplineSet
Validated: 1
EndChar

StartChar: xx
Encoding: 3405 3405 163
Width: 44
GlyphClass: 2
Flags: W
LayerCount: 2
Fore
SplineSet
212 510 m 0,0,1
 212 459 212 459 177 427 c 1,2,3
 137 392 137 392 67 392 c 0,4,5
 -79 392 -79 392 -79 519 c 0,6,7
 -79 569 -79 569 -23 569 c 0,8,9
 19 569 19 569 19 528 c 0,10,11
 19 518 19 518 18 510 c 0,12,13
 16 494 16 494 16 492 c 0,14,15
 16 411 16 411 66 411 c 0,16,17
 126 411 126 411 120 516 c 0,18,19
 120 518 120 518 118.5 523 c 128,-1,20
 117 528 117 528 116 531 c 0,21,22
 114 547 114 547 114 548 c 0,23,24
 114 569 114 569 145 569 c 0,25,26
 211 569 211 569 212 510 c 0,0,1
EndSplineSet
Validated: 33
EndChar

StartChar: uni0D57
Encoding: 3415 3415 164
Width: 465
GlyphClass: 2
Flags: W
LayerCount: 2
Fore
SplineSet
465 224 m 0,0,1
 465 115 465 115 424 59 c 0,2,3
 373 -11 373 -11 247 -11 c 0,4,5
 126 -11 126 -11 126 43 c 0,6,7
 126 65 126 65 143 65 c 128,-1,8
 160 65 160 65 191 37 c 0,9,10
 221 10 221 10 256 10 c 0,11,12
 323 10 323 10 350 99 c 0,13,14
 368 156 368 156 368 238 c 0,15,16
 368 274 368 274 360 312 c 1,17,18
 350 369 350 369 325 369 c 0,19,20
 301 369 301 369 301 337 c 2,21,-1
 301 173 l 2,22,23
 301 156 301 156 286 144 c 0,24,25
 270 131 270 131 253 131 c 0,26,27
 232 131 232 131 215 143 c 1,28,29
 199 156 199 156 199 174 c 2,30,-1
 199 336 l 2,31,32
 199 369 199 369 176 369 c 0,33,34
 138 369 138 369 138 259 c 0,35,36
 138 245 138 245 144 218 c 128,-1,37
 150 191 150 191 150 176 c 0,38,39
 150 159 150 159 137 144 c 1,40,41
 124 131 124 131 106 131 c 0,42,43
 52 131 52 131 52 256 c 0,44,45
 52 311 52 311 84 352 c 1,46,47
 116 391 116 391 171 391 c 0,48,49
 240 391 240 391 252 344 c 1,50,51
 266 391 266 391 329 391 c 0,52,53
 465 391 465 391 465 224 c 0,0,1
EndSplineSet
Validated: 1
EndChar

StartChar: uni0d60
Encoding: 3424 3424 165
Width: 607
GlyphClass: 2
Flags: W
LayerCount: 2
Fore
SplineSet
610 240 m 0,0,1
 610 179 610 179 580 133 c 0,2,3
 549 84 549 84 498 78 c 1,4,-1
 498 72 l 1,5,6
 596 56 596 56 596 -30 c 0,7,8
 596 -104 596 -104 505 -137 c 1,9,10
 437 -163 437 -163 334 -163 c 0,11,12
 230 -163 230 -163 165 -137 c 0,13,14
 79 -104 79 -104 79 -30 c 0,15,16
 79 56 79 56 174 72 c 1,17,-1
 174 76 l 1,18,19
 116 87 116 87 88 135 c 0,20,21
 62 178 62 178 62 240 c 0,22,23
 62 305 62 305 93 346 c 0,24,25
 128 393 128 393 194 393 c 0,26,27
 242 393 242 393 273.5 360.5 c 128,-1,28
 305 328 305 328 305 278 c 0,29,30
 305 230 305 230 274.5 198 c 128,-1,31
 244 166 244 166 198 166 c 0,32,33
 171 166 171 166 146.5 182 c 128,-1,34
 122 198 122 198 114 226 c 1,35,36
 114 98 114 98 334 98 c 0,37,38
 557 98 557 98 557 226 c 1,39,40
 550 198 550 198 525 182 c 128,-1,41
 500 166 500 166 471 166 c 0,42,43
 426 166 426 166 397 199 c 128,-1,44
 368 232 368 232 368 280 c 0,45,46
 368 330 368 330 399 361.5 c 128,-1,47
 430 393 430 393 479 393 c 0,48,49
 540 393 540 393 576 345 c 1,50,51
 610 303 610 303 610 240 c 0,0,1
538 280 m 0,52,53
 538 306 538 306 522 323.5 c 128,-1,54
 506 341 506 341 477 341 c 0,55,56
 450 341 450 341 433 323.5 c 128,-1,57
 416 306 416 306 416 282 c 0,58,59
 416 256 416 256 433 236 c 128,-1,60
 450 216 450 216 477 216 c 0,61,62
 506 216 506 216 522 235.5 c 128,-1,63
 538 255 538 255 538 280 c 0,52,53
252 280 m 0,64,65
 252 306 252 306 236 323.5 c 128,-1,66
 220 341 220 341 192 341 c 128,-1,67
 164 341 164 341 146.5 323.5 c 128,-1,68
 129 306 129 306 129 282 c 0,69,70
 129 256 129 256 146.5 236 c 128,-1,71
 164 216 164 216 192 216 c 0,72,73
 219 216 219 216 235.5 235.5 c 128,-1,74
 252 255 252 255 252 280 c 0,64,65
536 -30 m 0,75,76
 536 43 536 43 334 43 c 0,77,78
 137 43 137 43 137 -30 c 0,79,80
 137 -108 137 -108 334 -108 c 0,81,82
 402 -108 402 -108 456 -95 c 0,83,84
 536 -76 536 -76 536 -30 c 0,75,76
468 -32 m 0,85,86
 468 -50 468 -50 449 -66.5 c 128,-1,87
 430 -83 430 -83 404 -83 c 1,88,-1
 388 -51 l 1,89,90
 400 -51 400 -51 412 -44 c 128,-1,91
 424 -37 424 -37 424 -32 c 0,92,93
 424 -14 424 -14 382 -14 c 0,94,95
 362 -14 362 -14 362 -22 c 2,96,-1
 362 -81 l 1,97,-1
 316 -81 l 1,98,-1
 316 -22 l 2,99,100
 316 -14 316 -14 292 -14 c 0,101,102
 252 -14 252 -14 252 -32 c 0,103,104
 252 -38 252 -38 263 -45.5 c 128,-1,105
 274 -53 274 -53 288 -56 c 1,106,-1
 270 -84 l 1,107,108
 207 -70 207 -70 207 -33 c 0,109,110
 207 -10 207 -10 231.5 4 c 128,-1,111
 256 18 256 18 292 18 c 0,112,113
 320 18 320 18 339 7 c 1,114,115
 358 18 358 18 384 18 c 0,116,117
 420 18 420 18 444 4 c 128,-1,118
 468 -10 468 -10 468 -32 c 0,85,86
EndSplineSet
Validated: 1
EndChar

StartChar: l2
Encoding: 3425 3425 166
Width: 854
GlyphClass: 2
Flags: W
LayerCount: 2
Fore
SplineSet
854 85 m 0,0,1
 854 -14 854 -14 798 -84 c 1,2,3
 740 -160 740 -160 642 -160 c 0,4,5
 584 -160 584 -160 536 -127 c 1,6,-1
 557 -83 l 1,7,8
 598 -114 598 -114 642 -114 c 0,9,10
 717 -114 717 -114 762 -51 c 1,11,12
 803 4 803 4 803 82 c 0,13,14
 803 223 803 223 710 249 c 1,15,16
 731 210 731 210 731 160 c 0,17,18
 731 89 731 89 702 45 c 0,19,20
 668 -7 668 -7 601 -7 c 0,21,22
 538 -7 538 -7 506 35 c 1,23,24
 475 72 475 72 475 136 c 0,25,26
 475 205 475 205 515.5 253 c 128,-1,27
 556 301 556 301 624 301 c 1,28,29
 601 341 601 341 530 341 c 0,30,31
 486 341 486 341 459 315.5 c 128,-1,32
 432 290 432 290 432 247 c 2,33,-1
 432 0 l 1,34,-1
 376 0 l 1,35,-1
 376 247 l 2,36,37
 376 291 376 291 347 316 c 128,-1,38
 318 341 318 341 274 341 c 0,39,40
 207 341 207 341 163.5 295 c 128,-1,41
 120 249 120 249 116 182 c 1,42,43
 125 208 125 208 156 223 c 0,44,45
 181 236 181 236 212 236 c 0,46,47
 264 236 264 236 300.5 201.5 c 128,-1,48
 337 167 337 167 337 114 c 0,49,50
 337 58 337 58 299.5 25.5 c 128,-1,51
 262 -7 262 -7 205 -7 c 0,52,53
 134 -7 134 -7 96 45 c 0,54,55
 62 91 62 91 62 164 c 0,56,57
 62 242 62 242 102 304 c 128,-1,58
 142 366 142 366 214 386 c 0,59,60
 242 393 242 393 280 393 c 0,61,62
 374 393 374 393 404 332 c 1,63,64
 431 393 431 393 521 393 c 0,65,66
 632 393 632 393 684 302 c 1,67,68
 768 293 768 293 813 230 c 0,69,70
 854 172 854 172 854 85 c 0,0,1
681 148 m 0,71,72
 681 210 681 210 654 255 c 1,73,74
 645 256 645 256 636 256 c 0,75,76
 586 256 586 256 556 222 c 128,-1,77
 526 188 526 188 526 135 c 0,78,79
 526 96 526 96 544 70 c 0,80,81
 563 41 563 41 600 41 c 0,82,83
 681 41 681 41 681 148 c 0,71,72
272 112 m 0,84,85
 272 142 272 142 252 164 c 128,-1,86
 232 186 232 186 203 186 c 0,87,88
 173 186 173 186 151.5 165 c 128,-1,89
 130 144 130 144 130 114 c 128,-1,90
 130 84 130 84 151.5 63.5 c 128,-1,91
 173 43 173 43 203 43 c 0,92,93
 232 43 232 43 252 63 c 128,-1,94
 272 83 272 83 272 112 c 0,84,85
EndSplineSet
Validated: 1
EndChar

StartChar: uni0D66
Encoding: 3430 3430 167
Width: 582
GlyphClass: 2
Flags: W
LayerCount: 2
Fore
SplineSet
300 379 m 1,0,1
 290 376 290 376 287 384 c 1,2,-1
 261 385 l 2,3,4
 236 385 236 385 219 372 c 0,5,6
 199 358 199 358 186 335 c 0,7,8
 170 307 170 307 164 279 c 0,9,10
 157 250 157 250 157 209 c 0,11,12
 157 126 157 126 186 85 c 1,13,14
 226 31 226 31 261 31 c 0,15,16
 278 31 278 31 282 32 c 1,17,18
 295 43 295 43 302 48.5 c 128,-1,19
 309 54 309 54 314.5 60 c 128,-1,20
 320 66 320 66 324 72 c 128,-1,21
 328 78 328 78 335 89 c 0,22,23
 352 115 352 115 362 149 c 1,24,25
 367 179 367 179 367 209 c 0,26,27
 367 221 367 221 369 233 c 1,28,-1
 369 241 l 1,29,30
 364 278 364 278 369 301 c 1,31,32
 370 311 370 311 381 322 c 0,33,34
 394 335 394 335 407 332 c 0,35,36
 457 322 457 322 456 237 c 1,37,38
 460 230 460 230 460 209 c 0,39,40
 460 131 460 131 409 62 c 1,41,42
 387 36 387 36 349 19 c 1,43,44
 313 4 313 4 262 4 c 0,45,46
 161 4 161 4 115 62 c 1,47,48
 63 131 63 131 63 209 c 0,49,50
 63 296 63 296 122 358 c 1,51,52
 172 412 172 412 275 412 c 1,53,-1
 296 411 l 1,54,55
 304 413 304 413 308 413 c 2,56,-1
 511 413 l 2,57,58
 558 413 558 413 558 361 c 0,59,60
 558 349 558 349 542 347 c 128,-1,61
 526 345 526 345 505.5 349.5 c 128,-1,62
 485 354 485 354 455 359.5 c 128,-1,63
 425 365 425 365 405 366 c 0,64,65
 395 366 395 366 352 375 c 128,-1,66
 309 384 309 384 300 379 c 1,0,1
EndSplineSet
Validated: 33
EndChar

StartChar: uni0D67
Encoding: 3431 3431 168
Width: 649
GlyphClass: 2
Flags: W
LayerCount: 2
Fore
SplineSet
612 0 m 1,0,-1
 612 223 l 1,1,2
 613 307 613 307 569.5 348.5 c 128,-1,3
 526 390 526 390 439 390 c 0,4,5
 263 390 263 390 263 223 c 2,6,-1
 263 24 l 1,7,-1
 199 24 l 1,8,9
 145 28 145 28 136 -32 c 1,10,11
 136 -59 136 -59 155 -76.5 c 128,-1,12
 174 -94 174 -94 197 -93 c 1,13,-1
 400 -94 l 2,14,15
 457 -94 457 -94 457 -54 c 0,16,17
 457 -32 457 -32 399.5 -32.5 c 128,-1,18
 342 -33 342 -33 294 -39 c 1,19,20
 284 -39 284 -39 240.5 -48 c 128,-1,21
 197 -57 197 -57 188 -52 c 0,22,23
 174 -45 174 -45 175.5 -27 c 128,-1,24
 177 -9 177 -9 193 -8 c 1,25,26
 224 -4 224 -4 418 -2 c 2,27,-1
 612 0 l 1,0,-1
512 24 m 1,28,-1
 366 24 l 1,29,-1
 366 260 l 2,30,31
 366 364 366 364 440 364 c 0,32,33
 512 364 512 364 512 256 c 2,34,-1
 512 24 l 1,28,-1
EndSplineSet
Validated: 41
EndChar

StartChar: uni0D68
Encoding: 3432 3432 169
Width: 553
GlyphClass: 2
Flags: W
LayerCount: 2
Fore
SplineSet
552 34 m 1,0,-1
 376 34 l 1,1,2
 441 110 441 110 441 197 c 0,3,4
 441 276 441 276 400 327 c 0,5,6
 349 391 349 391 248 391 c 0,7,8
 153 391 153 391 102 318 c 0,9,10
 65 265 65 265 65 189 c 0,11,12
 65 -8 65 -8 153 -8 c 0,13,14
 171 -8 171 -8 182 9 c 0,15,16
 193 25 193 25 193 39 c 0,17,18
 193 66 193 66 179 113 c 0,19,20
 166 156 166 156 166 208 c 0,21,22
 166 258 166 258 185 306 c 0,23,24
 209 368 209 368 244 368 c 0,25,26
 288 368 288 368 314 298 c 0,27,28
 335 242 335 242 335 188 c 0,29,30
 335 124 335 124 313 68 c 1,31,-1
 292 11 l 1,32,33
 292 0 292 0 314 0 c 2,34,-1
 553 0 l 1,35,-1
 553 16 l 1,36,-1
 552 35 l 1,37,-1
 552 34 l 1,0,-1
EndSplineSet
Validated: 9
EndChar

StartChar: uni0D69
Encoding: 3433 3433 170
Width: 672
GlyphClass: 2
Flags: W
LayerCount: 2
Fore
SplineSet
92 401 m 0,0,-1
668 32 m 1,1,-1
 525 32 l 1,2,3
 585 90 585 90 585 195 c 0,4,5
 585 391 585 391 428 391 c 0,6,7
 386 391 386 391 368 385 c 0,8,9
 337 375 337 375 325 343 c 1,10,11
 306 377 306 377 279 385 c 0,12,13
 262 391 262 391 216 391 c 0,14,15
 62 391 62 391 62 187 c 0,16,17
 62 -9 62 -9 162 -9 c 0,18,19
 173 -9 173 -9 184 2 c 1,20,21
 195 15 195 15 195 25 c 0,22,23
 195 48 195 48 174 101 c 0,24,25
 154 150 154 150 154 185 c 0,26,27
 154 250 154 250 167 296 c 0,28,29
 187 369 187 369 228 369 c 128,-1,30
 269 369 269 369 269 324 c 2,31,-1
 269 44 l 2,32,33
 269 22 269 22 286 7 c 1,34,35
 302 -9 302 -9 323 -9 c 128,-1,36
 344 -9 344 -9 359 7 c 1,37,38
 375 22 375 22 375 44 c 2,39,-1
 375 324 l 2,40,41
 375 369 375 369 416 369 c 128,-1,42
 457 369 457 369 477 296 c 0,43,44
 490 250 490 250 490 185 c 0,45,46
 490 156 490 156 474 102 c 1,47,48
 457 51 457 51 457 25 c 0,49,50
 457 0 457 0 486 0 c 2,51,-1
 668 0 l 1,52,-1
 668 32 l 1,1,-1
EndSplineSet
Validated: 9
EndChar

StartChar: uni0D6A
Encoding: 3434 3434 171
Width: 525
GlyphClass: 2
Flags: W
LayerCount: 2
Fore
SplineSet
392 488 m 0,0,1
 392 418 392 418 391 372 c 1,2,3
 454 347 454 347 491 290 c 0,4,5
 524 240 524 240 524 179 c 0,6,7
 524 101 524 101 492 49 c 1,8,9
 453 -10 453 -10 383 -10 c 0,10,11
 309 -10 309 -10 270 41 c 1,12,13
 237 88 237 88 237 160 c 0,14,15
 237 231 237 231 251 265 c 0,16,17
 253 269 253 269 259.5 296.5 c 128,-1,18
 266 324 266 324 283 352 c 1,19,20
 279 353 279 353 283 355 c 1,21,22
 277 357 277 357 274 357 c 0,23,24
 205 357 205 357 180 295 c 0,25,26
 165 256 165 256 165 171 c 0,27,28
 165 122 165 122 175 91 c 0,29,30
 185 58 185 58 185 44 c 0,31,32
 185 15 185 15 180 6 c 0,33,34
 171 -9 171 -9 144 -9 c 0,35,36
 116 -9 116 -9 94 27 c 0,37,38
 63 80 63 80 63 183 c 0,39,40
 63 281 63 281 115 336 c 0,41,42
 166 390 166 390 262 390 c 0,43,44
 292 390 292 390 297 389 c 1,45,46
 302 404 302 404 301.5 447 c 128,-1,47
 301 490 301 490 304 502 c 0,48,49
 309 521 309 521 331 528.5 c 128,-1,50
 353 536 353 536 372.5 525.5 c 128,-1,51
 392 515 392 515 392 488 c 0,0,1
427 166 m 0,52,53
 427 318 427 318 378 318 c 0,54,55
 330 318 330 318 330 166 c 0,56,57
 330 13 330 13 378 13 c 0,58,59
 427 13 427 13 427 166 c 0,52,53
EndSplineSet
Validated: 33
EndChar

StartChar: uni0D6B
Encoding: 3435 3435 172
Width: 761
GlyphClass: 2
Flags: W
LayerCount: 2
Fore
SplineSet
595 14 m 0,0,1
 595 -68 595 -68 514 -113 c 1,2,3
 445 -150 445 -150 349 -150 c 0,4,5
 184 -150 184 -150 98 -44 c 0,6,7
 63 0 63 0 52 61 c 128,-1,8
 41 122 41 122 41 217 c 0,9,10
 41 238 41 238 42 247 c 0,11,12
 42 248 42 248 41.5 249.5 c 128,-1,13
 41 251 41 251 41 252 c 2,14,-1
 42 258 l 1,15,16
 46 320 46 320 67 355 c 1,17,18
 87 410 87 410 123 452 c 0,19,20
 155 489 155 489 189 509.5 c 128,-1,21
 223 530 223 530 284 547 c 0,22,23
 367 569 367 569 404 565 c 1,24,25
 461 571 461 571 527 554 c 0,26,27
 575 541 575 541 609 518 c 128,-1,28
 643 495 643 495 684 447 c 0,29,30
 741 382 741 382 750 292 c 1,31,32
 766 207 766 207 749 127 c 0,33,34
 731 41 731 41 705.5 6 c 128,-1,35
 680 -29 680 -29 639 -20 c 0,36,37
 614 -14 614 -14 615 15 c 0,38,39
 615 22 615 22 621 54 c 1,40,41
 626 70 626 70 641 103 c 0,42,43
 657 137 657 137 664 168 c 0,44,45
 678 229 678 229 673 285 c 1,46,-1
 680 281 l 2,47,48
 679 282 679 282 669 317 c 128,-1,49
 659 352 659 352 651 367 c 0,50,51
 646 377 646 377 637.5 394.5 c 128,-1,52
 629 412 629 412 623 420 c 0,53,54
 608 437 608 437 590.5 450.5 c 128,-1,55
 573 464 573 464 555.5 472.5 c 128,-1,56
 538 481 538 481 519 487.5 c 128,-1,57
 500 494 500 494 481.5 497 c 128,-1,58
 463 500 463 500 443 503 c 128,-1,59
 423 506 423 506 405 508 c 1,60,61
 367 504 367 504 363 504 c 0,62,63
 320 501 320 501 294 495 c 1,64,65
 274 489 274 489 230 468 c 1,66,67
 204 449 204 449 181 431 c 1,68,69
 140 395 140 395 125 367 c 1,70,71
 96 281 96 281 96 279 c 0,72,73
 87 232 87 232 87 209 c 0,74,75
 87 68 87 68 128 0 c 0,76,77
 158 -50 158 -50 225 -82.5 c 128,-1,78
 292 -115 292 -115 352 -115 c 0,79,80
 414 -115 414 -115 451 -80 c 0,81,82
 487 -47 487 -47 487 12 c 0,83,84
 487 52 487 52 471 84 c 0,85,86
 450 125 450 125 416 125 c 2,87,-1
 380 124 l 1,88,89
 359 126 359 126 359 146 c 0,90,91
 359 173 359 173 374 173 c 0,92,93
 433 173 433 173 459 190 c 1,94,95
 488 212 488 212 488 270 c 0,96,97
 488 369 488 369 387 369 c 0,98,99
 326 369 326 369 295 306 c 1,100,101
 269 256 269 256 269 188 c 0,102,103
 269 140 269 140 284 101 c 1,104,-1
 296 74 l 2,105,106
 305 54 305 54 305 46 c 0,107,108
 305 25 305 25 291 8 c 128,-1,109
 277 -9 277 -9 256 -9 c 0,110,111
 208 -9 208 -9 186 60 c 1,112,113
 172 108 172 108 172 171 c 0,114,115
 172 276 172 276 226 333 c 0,116,117
 280 391 280 391 383 391 c 0,118,119
 475 391 475 391 523 371 c 0,120,121
 594 341 594 341 594 260 c 0,122,123
 594 228 594 228 579 196 c 0,124,125
 561 160 561 160 534 151 c 1,126,127
 595 111 595 111 595 14 c 0,0,1
EndSplineSet
Validated: 33
EndChar

StartChar: uni0D6C
Encoding: 3436 3436 173
Width: 796
GlyphClass: 2
Flags: W
LayerCount: 2
Fore
SplineSet
796 187 m 0,0,1
 796 124 796 124 761.5 40.5 c 128,-1,2
 727 -43 727 -43 679.5 -100 c 128,-1,3
 632 -157 632 -157 599 -151 c 0,4,5
 597 -151 597 -151 588 -151.5 c 128,-1,6
 579 -152 579 -152 571 -151.5 c 128,-1,7
 563 -151 563 -151 560 -148 c 0,8,9
 547 -133 547 -133 547 -117 c 0,10,11
 547 -76 547 -76 595 -57 c 0,12,13
 631 -43 631 -43 658.5 14 c 128,-1,14
 686 71 686 71 695.5 117.5 c 128,-1,15
 705 164 705 164 705 185 c 0,16,17
 705 245 705 245 691 295 c 0,18,19
 672 367 672 367 630 367 c 0,20,21
 589 367 589 367 589 317 c 2,22,-1
 589 44 l 2,23,24
 589 22 589 22 573 7 c 1,25,26
 558 -9 558 -9 537 -9 c 0,27,28
 515 -9 515 -9 499 7 c 128,-1,29
 483 23 483 23 483 44 c 2,30,-1
 483 317 l 2,31,32
 483 340 483 340 467 353 c 0,33,34
 450 367 450 367 428 367 c 128,-1,35
 406 367 406 367 390 353 c 0,36,37
 375 340 375 340 375 317 c 2,38,-1
 375 44 l 2,39,40
 375 22 375 22 359 7 c 1,41,42
 344 -9 344 -9 323 -9 c 0,43,44
 301 -9 301 -9 285 7 c 128,-1,45
 269 23 269 23 269 44 c 2,46,-1
 269 317 l 2,47,48
 269 367 269 367 228 367 c 0,49,50
 186 367 186 367 167 295 c 0,51,52
 154 249 154 249 154 185 c 0,53,54
 154 144 154 144 170 105 c 1,55,56
 195 38 195 38 195 25 c 0,57,58
 195 15 195 15 184 2 c 1,59,60
 173 -9 173 -9 162 -9 c 0,61,62
 62 -9 62 -9 62 187 c 0,63,64
 62 391 62 391 216 391 c 0,65,66
 295 391 295 391 325 343 c 1,67,68
 349 391 349 391 423 391 c 0,69,70
 512 391 512 391 539 343 c 1,71,72
 566 391 566 391 642 391 c 0,73,74
 796 391 796 391 796 187 c 0,0,1
EndSplineSet
Validated: 33
EndChar

StartChar: uni0D6D
Encoding: 3437 3437 174
Width: 569
GlyphClass: 2
Flags: W
LayerCount: 2
Fore
SplineSet
568 176 m 0,0,1
 568 52 568 52 480 -55 c 0,2,3
 398 -155 398 -155 253 -155 c 0,4,5
 201 -155 201 -155 157 -136 c 1,6,-1
 157 -135 l 1,7,8
 87 -111 87 -111 96 -67 c 1,9,10
 101 -52 101 -52 119 -53 c 1,11,12
 121 -52 121 -52 144 -57 c 0,13,14
 146 -57 146 -57 149.5 -59 c 128,-1,15
 153 -61 153 -61 160.5 -64 c 128,-1,16
 168 -67 168 -67 175 -70 c 0,17,18
 198 -81 198 -81 217 -86 c 0,19,20
 317 -110 317 -110 390 -54 c 1,21,22
 397 -47 397 -47 409 -33 c 1,23,24
 437 6 437 6 454 59 c 0,25,26
 459 77 459 77 462 90 c 0,27,28
 464 102 464 102 462 113 c 1,29,-1
 466 112 l 1,30,31
 471 145 471 145 471 174 c 0,32,33
 471 275 471 275 428 327 c 0,34,35
 374 394 374 394 312 394 c 0,36,37
 252 394 252 394 210 350 c 1,38,39
 169 304 169 304 160 230 c 1,40,41
 162 232 162 232 164 232 c 0,42,43
 168 234 168 234 169 234 c 0,44,45
 190 246 190 246 238 246 c 0,46,47
 311 246 311 246 345 212 c 0,48,49
 389 168 389 168 389 128 c 0,50,51
 389 71 389 71 345 39 c 128,-1,52
 301 7 301 7 230 7 c 0,53,54
 137 7 137 7 98 57 c 1,55,56
 60 115 60 115 60 182 c 0,57,58
 60 276 60 276 130 354 c 0,59,60
 190 421 190 421 314 421 c 0,61,62
 442 421 442 421 502 348 c 0,63,64
 568 267 568 267 568 176 c 0,0,1
281 125 m 0,65,66
 281 164 281 164 266 194 c 0,67,68
 253 222 253 222 229 222 c 128,-1,69
 205 222 205 222 189 194 c 0,70,71
 172 165 172 165 172 126 c 0,72,73
 172 86 172 86 188 60 c 0,74,75
 204 33 204 33 228 33 c 128,-1,76
 252 33 252 33 266 59 c 1,77,78
 281 84 281 84 281 125 c 0,65,66
EndSplineSet
Validated: 33
EndChar

StartChar: uni0D6E
Encoding: 3438 3438 175
Width: 585
GlyphClass: 2
Flags: W
LayerCount: 2
Fore
SplineSet
586 92 m 1,0,1
 586 54 586 54 586.5 25 c 128,-1,2
 587 -4 587 -4 579.5 -28.5 c 128,-1,3
 572 -53 572 -53 553 -68 c 0,4,5
 492 -116 492 -116 390 -124 c 0,6,7
 253 -134 253 -134 247 -68 c 0,8,9
 245 -47 245 -47 268 -42 c 1,10,11
 271 -40 271 -40 300 -37 c 1,12,13
 311 -37 311 -37 342 -41 c 0,14,15
 376 -45 376 -45 397 -44 c 0,16,17
 459 -39 459 -39 486 0 c 1,18,-1
 312 0 l 2,19,20
 290 0 290 0 290 11 c 1,21,-1
 311 68 l 2,22,23
 332 125 332 125 332 188 c 0,24,25
 332 242 332 242 311 298 c 0,26,27
 285 368 285 368 242 368 c 0,28,29
 206 368 206 368 183 306 c 1,30,31
 164 258 164 258 164 208 c 0,32,33
 164 156 164 156 177 113 c 1,34,35
 189 68 189 68 189 39 c 0,36,37
 189 24 189 24 180 9 c 1,38,39
 168 -8 168 -8 150 -8 c 0,40,41
 61 -8 61 -8 61 189 c 0,42,43
 61 264 61 264 100 318 c 1,44,45
 149 391 149 391 246 391 c 0,46,47
 347 391 347 391 398 327 c 0,48,49
 439 276 439 276 439 197 c 0,50,51
 439 98 439 98 374 24 c 1,52,-1
 480 24 l 1,53,-1
 480 345 l 2,54,55
 480 366 480 366 495 378 c 1,56,57
 508 391 508 391 530 391 c 0,58,59
 585 391 585 391 585 345 c 2,60,-1
 585 112 l 1,61,62
 587 100 587 100 586 92 c 1,0,1
EndSplineSet
Validated: 33
EndChar

StartChar: uni0D6F
Encoding: 3439 3439 176
Width: 712
GlyphClass: 2
Flags: W
LayerCount: 2
Fore
SplineSet
615 166 m 0,0,1
 615 318 615 318 565 318 c 0,2,3
 517 318 517 318 517 166 c 0,4,5
 517 13 517 13 565 13 c 0,6,7
 615 13 615 13 615 166 c 0,0,1
596 367 m 1,8,9
 644 344 644 344 678 290 c 1,10,11
 712 241 712 241 712 179 c 0,12,13
 712 101 712 101 680 49 c 1,14,15
 642 -10 642 -10 570 -10 c 128,-1,16
 498 -10 498 -10 459 41 c 0,17,18
 424 88 424 88 424 160 c 0,19,20
 424 229 424 229 439 265 c 0,21,22
 456 306 456 306 506 352 c 1,23,24
 496 357 496 357 463 357 c 0,25,26
 432 357 432 357 407 342 c 1,27,28
 375 325 375 325 375 296 c 2,29,-1
 375 44 l 2,30,31
 375 22 375 22 359 6 c 0,32,33
 344 -10 344 -10 323 -10 c 128,-1,34
 302 -10 302 -10 286 6 c 0,35,36
 269 23 269 23 269 44 c 2,37,-1
 269 324 l 2,38,39
 269 366 269 366 222 366 c 0,40,41
 154 366 154 366 154 185 c 0,42,43
 154 146 154 146 169 108 c 2,44,-1
 185 67 l 2,45,46
 195 40 195 40 195 25 c 0,47,48
 195 13 195 13 184 2 c 1,49,50
 174 -10 174 -10 162 -10 c 0,51,52
 62 -10 62 -10 62 187 c 0,53,54
 62 391 62 391 216 391 c 0,55,56
 304 391 304 391 327 338 c 1,57,58
 333 365 333 365 377 379 c 0,59,60
 412 390 412 390 450 390 c 0,61,62
 469 390 469 390 504 385 c 1,63,64
 506 400 506 400 506 439 c 128,-1,65
 506 478 506 478 509 487 c 0,66,67
 514 505 514 505 535.5 513 c 128,-1,68
 557 521 557 521 576.5 510.5 c 128,-1,69
 596 500 596 500 596 473 c 2,70,-1
 596 367 l 1,8,9
EndSplineSet
Validated: 33
EndChar

StartChar: uni0D70
Encoding: 3440 3440 177
Width: 216
GlyphClass: 2
Flags: W
LayerCount: 2
Fore
SplineSet
175 80 m 0,0,1
 191 80 191 80 203 68 c 1,2,3
 222 52 222 52 211 25 c 1,4,5
 199 0 199 0 175 1 c 1,6,7
 150 0 150 0 138 25 c 1,8,9
 127 51 127 51 147 68 c 1,10,11
 158 80 158 80 175 80 c 0,0,1
EndSplineSet
Validated: 33
EndChar

StartChar: uni0D71
Encoding: 3441 3441 178
Width: 1024
GlyphClass: 2
Flags: W
LayerCount: 2
Fore
SplineSet
684 226 m 128,-1,1
 684 100 684 100 595 12 c 1,2,3
 506 -79 506 -79 380 -79 c 0,4,5
 253 -79 253 -79 163 10 c 1,6,7
 74 100 74 100 74 226 c 128,-1,8
 74 352 74 352 163 442 c 1,9,10
 253 530 253 530 379 530 c 128,-1,11
 505 530 505 530 594 442 c 0,12,0
 684 352 684 352 684 226 c 128,-1,1
652 224.5 m 128,-1,14
 652 339 652 339 570 419 c 1,15,16
 490 500 490 500 375.5 500 c 128,-1,17
 261 500 261 500 180 419 c 0,18,19
 100 339 100 339 100 224.5 c 128,-1,20
 100 110 100 110 180 28 c 1,21,22
 261 -53 261 -53 375.5 -53 c 128,-1,23
 490 -53 490 -53 570 28 c 0,24,13
 652 110 652 110 652 224.5 c 128,-1,14
538 70 m 1,25,-1
 466 -3 l 1,26,27
 456 12 456 12 449 49.5 c 128,-1,28
 442 87 442 87 426 104 c 0,29,30
 417 114 417 114 403.5 135 c 128,-1,31
 390 156 390 156 378 169 c 1,32,33
 356 186 356 186 352 188 c 1,34,35
 346 188 346 188 335 188 c 128,-1,36
 324 188 324 188 320 188 c 1,37,38
 318 160 318 160 318 106 c 1,39,-1
 242 30 l 1,40,41
 242 146 242 146 254 342 c 1,42,-1
 282 370 l 1,43,44
 264 370 264 370 238 366 c 1,45,-1
 314 444 l 1,46,47
 362 452 362 452 427 442 c 128,-1,48
 492 432 492 432 519 404 c 0,49,50
 536 387 536 387 536 340 c 128,-1,51
 536 293 536 293 521 278 c 2,52,-1
 466 223 l 1,53,54
 471 217 471 217 477.5 206.5 c 128,-1,55
 484 196 484 196 490 188 c 1,56,57
 494 180 494 180 502 173 c 1,58,59
 518 156 518 156 524 119 c 128,-1,60
 530 82 530 82 538 70 c 1,25,-1
459 264 m 1,61,62
 463 312 463 312 446 332 c 1,63,64
 414 364 414 364 328 368 c 1,65,66
 324 318 324 318 320 205 c 1,67,-1
 379 264 l 1,68,69
 398 274 398 274 421 263 c 1,70,71
 448 263 448 263 459 264 c 1,61,62
EndSplineSet
Validated: 33
EndChar

StartChar: ZWNJ
Encoding: 8204 8204 179
Width: 160
GlyphClass: 2
Flags: W
LayerCount: 2
Fore
SplineSet
33 516 m 1,0,-1
 112 516 l 1,1,-1
 112 22 l 1,2,-1
 33 22 l 1,3,-1
 33 516 l 1,0,-1
EndSplineSet
Validated: 1
EndChar

StartChar: ZWJ
Encoding: 8205 8205 180
Width: 160
GlyphClass: 2
Flags: W
LayerCount: 2
Fore
SplineSet
112 22 m 1,0,-1
 33 22 l 1,1,-1
 33 456 l 1,2,-1
 70 515 l 1,3,-1
 77 515 l 1,4,-1
 112 461 l 1,5,-1
 112 22 l 1,0,-1
194 417 m 1,6,-1
 100 555 l 1,7,-1
 188 677 l 1,8,-1
 135 677 l 1,9,-1
 93 616 l 2,10,11
 77 593 77 593 72 587 c 1,12,13
 62 605 62 605 56 616 c 1,14,-1
 16 677 l 1,15,-1
 -38 677 l 1,16,-1
 48 553 l 1,17,-1
 -45 417 l 1,18,-1
 7 417 l 1,19,-1
 33 456 l 1,20,-1
 33 516 l 1,21,-1
 70 515 l 1,22,-1
 74 520 l 1,23,-1
 77 515 l 1,24,-1
 112 515 l 1,25,-1
 112 461 l 1,26,-1
 142 417 l 1,27,-1
 194 417 l 1,6,-1
EndSplineSet
Validated: 5
EndChar

StartChar: uni25CC
Encoding: 9676 9676 181
Width: 476
GlyphClass: 2
Flags: W
LayerCount: 2
Fore
SplineSet
435 335 m 1,0,-1
 390 304 l 1,1,2
 370 337 370 337 360 343 c 0,3,4
 344 354 344 354 334 360 c 1,5,-1
 364 402 l 1,6,7
 398 380 398 380 412 366 c 1,8,9
 428 346 428 346 435 335 c 1,0,-1
289 432 m 1,10,-1
 280 382 l 1,11,12
 254 386 254 386 240 386 c 128,-1,13
 226 386 226 386 198 382 c 1,14,-1
 190 432 l 1,15,16
 220 438 220 438 240 438 c 0,17,18
 261 438 261 438 289 432 c 1,10,-1
460 270 m 1,19,20
 466 247 466 247 466 223.5 c 128,-1,21
 466 200 466 200 460 177 c 1,22,-1
 408 186 l 1,23,24
 412 212 412 212 412 223 c 0,25,26
 412 238 412 238 408 262 c 1,27,-1
 460 270 l 1,19,20
435 112 m 1,28,29
 412 79 412 79 400 68 c 0,30,31
 398 66 398 66 385 58.5 c 128,-1,32
 372 51 372 51 364 46 c 1,33,-1
 334 88 l 1,34,35
 364 106 364 106 372 116 c 0,36,37
 387 138 387 138 390 144 c 1,38,-1
 435 112 l 1,28,29
148 360 m 1,39,40
 112 340 112 340 108 330 c 1,41,-1
 102 322 l 2,42,43
 96 314 96 314 91 304 c 1,44,-1
 46 335 l 1,45,46
 68 366 68 366 80 378 c 0,47,48
 85 382 85 382 116 402 c 1,49,-1
 148 360 l 1,39,40
74 186 m 1,50,-1
 20 177 l 1,51,52
 10 223 10 223 20 270 c 1,53,-1
 74 262 l 1,54,55
 68 248 68 248 68 223 c 0,56,57
 68 200 68 200 74 186 c 1,50,-1
289 16 m 1,58,59
 270 10 270 10 240 10 c 0,60,61
 212 10 212 10 190 16 c 1,62,-1
 198 66 l 1,63,64
 226 62 226 62 240 62 c 128,-1,65
 254 62 254 62 280 66 c 1,66,-1
 289 16 l 1,58,59
148 88 m 1,67,-1
 116 46 l 1,68,69
 77 70 77 70 68 81 c 2,70,-1
 46 112 l 1,71,-1
 91 144 l 1,72,73
 112 112 112 112 121 106 c 1,74,75
 125 102 125 102 148 88 c 1,67,-1
EndSplineSet
Validated: 33
EndChar

StartChar: r4
Encoding: 65538 -1 183
Width: 202
GlyphClass: 3
Flags: W
LayerCount: 2
Fore
SplineSet
564 -123 m 1,0,1
 523 -139 523 -139 453 -139 c 0,2,3
 377 -139 377 -139 300 -123 c 1,4,5
 182 -72 182 -72 128 8 c 128,-1,6
 74 88 74 88 74 217 c 0,7,8
 74 389 74 389 158 389 c 0,9,10
 184 389 184 389 188 360 c 1,11,12
 190 356 190 356 190 321 c 0,13,14
 190 306 190 306 182 269 c 0,15,16
 173 226 173 226 173 200 c 0,17,18
 173 -11 173 -11 362 -101 c 1,19,20
 421 -114 421 -114 479 -114 c 0,21,22
 532 -114 532 -114 564 -101 c 1,23,-1
 564 -123 l 1,0,1
EndSplineSet
Validated: 1
Ligature2: "'pstf' Post Base Forms in Malay+AQEA-lam lookup 7 subtable" r3 xx
EndChar

StartChar: y2
Encoding: 65539 -1 184
Width: 304
GlyphClass: 3
Flags: W
LayerCount: 2
Fore
SplineSet
303 -33 m 0,0,1
 303 -94 303 -94 264 -133 c 128,-1,2
 225 -172 225 -172 160 -172 c 128,-1,3
 95 -172 95 -172 56 -136 c 1,4,5
 18 -98 18 -98 18 -39 c 0,6,7
 18 18 18 18 73 18 c 0,8,9
 91 18 91 18 107 5 c 1,10,11
 123 -10 123 -10 123 -31 c 0,12,13
 123 -32 123 -32 121 -62 c 0,14,15
 119 -77 119 -77 119 -94 c 0,16,17
 119 -146 119 -146 162 -146 c 0,18,19
 215 -146 215 -146 215 -57 c 0,20,21
 215 3 215 3 157 79 c 1,22,23
 99 157 99 157 99 213 c 2,24,-1
 99 353 l 2,25,26
 99 370 99 370 115 383 c 1,27,28
 132 394 132 394 152 394 c 0,29,30
 168 394 168 394 182 382 c 256,31,32
 196 370 196 370 196 352 c 2,33,-1
 196 215 l 2,34,35
 196 163 196 163 249 92 c 0,36,37
 303 20 303 20 303 -33 c 0,0,1
EndSplineSet
Validated: 1
Ligature2: "'pstf' Post Base Forms in Malay+AQEA-lam lookup 7 subtable" y1 xx
EndChar

StartChar: y2u1
Encoding: 65540 -1 185
Width: 346
GlyphClass: 3
Flags: W
LayerCount: 2
Fore
SplineSet
345 -260 m 0,0,1
 345 -314 345 -314 308 -348 c 128,-1,2
 271 -382 271 -382 210 -382 c 0,3,4
 147 -382 147 -382 111 -343 c 1,5,6
 77 -309 77 -309 77 -258 c 0,7,8
 77 -199 77 -199 121 -168 c 1,9,10
 18 -147 18 -147 18 -39 c 0,11,12
 18 18 18 18 73 18 c 0,13,14
 91 18 91 18 107 5 c 1,15,16
 123 -10 123 -10 123 -31 c 0,17,18
 123 -32 123 -32 121 -62 c 0,19,20
 119 -77 119 -77 119 -94 c 0,21,22
 119 -146 119 -146 162 -146 c 0,23,24
 215 -146 215 -146 215 -57 c 0,25,26
 215 3 215 3 157 79 c 1,27,28
 99 157 99 157 99 213 c 2,29,-1
 99 353 l 2,30,31
 99 370 99 370 115 383 c 1,32,33
 132 394 132 394 152 394 c 0,34,35
 168 394 168 394 182 382 c 256,36,37
 196 370 196 370 196 352 c 2,38,-1
 196 215 l 2,39,40
 196 163 196 163 249 92 c 0,41,42
 303 20 303 20 303 -33 c 0,43,44
 303 -109 303 -109 248 -146 c 1,45,46
 345 -165 345 -165 345 -260 c 0,0,1
262 -267 m 0,47,48
 262 -235 262 -235 253 -205 c 1,49,50
 241 -170 241 -170 223 -160 c 1,51,52
 208 -167 208 -167 185 -170 c 1,53,54
 164 -197 164 -197 164 -266 c 0,55,56
 164 -297 164 -297 175 -324 c 1,57,58
 189 -353 189 -353 211 -353 c 0,59,60
 262 -353 262 -353 262 -267 c 0,47,48
EndSplineSet
Validated: 1
Ligature2: "'psts' Post Base Substitutions in Malay+AQEA-lam lookup 5 subtable" y2 u1
EndChar

StartChar: y2u2
Encoding: 65541 -1 186
Width: 346
GlyphClass: 3
Flags: W
LayerCount: 2
Fore
SplineSet
345 -265 m 0,0,1
 345 -318 345 -318 303 -353 c 0,2,3
 262 -387 262 -387 195 -387 c 0,4,5
 124 -387 124 -387 84 -348 c 1,6,7
 47 -314 47 -314 47 -263 c 0,8,9
 47 -195 47 -195 109 -165 c 1,10,11
 18 -140 18 -140 18 -39 c 0,12,13
 18 18 18 18 73 18 c 0,14,15
 91 18 91 18 107 5 c 1,16,17
 123 -10 123 -10 123 -31 c 0,18,19
 123 -32 123 -32 121 -62 c 0,20,21
 119 -77 119 -77 119 -94 c 0,22,23
 119 -146 119 -146 162 -146 c 0,24,25
 215 -146 215 -146 215 -57 c 0,26,27
 215 3 215 3 157 79 c 1,28,29
 99 157 99 157 99 213 c 2,30,-1
 99 353 l 2,31,32
 99 370 99 370 115 383 c 1,33,34
 132 394 132 394 152 394 c 0,35,36
 168 394 168 394 182 382 c 256,37,38
 196 370 196 370 196 352 c 2,39,-1
 196 215 l 2,40,41
 196 163 196 163 249 92 c 0,42,43
 303 20 303 20 303 -33 c 0,44,45
 303 -114 303 -114 240 -152 c 1,46,47
 345 -172 345 -172 345 -265 c 0,0,1
253 -272 m 0,48,49
 253 -239 253 -239 243 -210 c 0,50,51
 229 -173 229 -173 210 -165 c 1,52,53
 186 -171 186 -171 171 -172 c 1,54,55
 143 -198 143 -198 143 -271 c 0,56,57
 143 -305 143 -305 156 -330 c 0,58,59
 171 -360 171 -360 197 -360 c 0,60,61
 253 -360 253 -360 253 -272 c 0,48,49
237 -262 m 0,62,63
 237 -284 237 -284 225 -297 c 1,64,65
 214 -312 214 -312 198 -312 c 0,66,67
 180 -312 180 -312 170 -297 c 1,68,69
 159 -285 159 -285 159 -262 c 0,70,71
 159 -240 159 -240 170 -226 c 128,-1,72
 181 -212 181 -212 198 -212 c 0,73,74
 214 -212 214 -212 225 -226 c 0,75,76
 237 -241 237 -241 237 -262 c 0,62,63
EndSplineSet
Validated: 1
Ligature2: "'psts' Post Base Substitutions in Malay+AQEA-lam lookup 5 subtable" y2 u2
EndChar

